G04 #@! TF.GenerationSoftware,KiCad,Pcbnew,(5.1.4)-1*
G04 #@! TF.CreationDate,2020-11-02T02:01:27-05:00*
G04 #@! TF.ProjectId,remote_racing_pcb,72656d6f-7465-45f7-9261-63696e675f70,rev?*
G04 #@! TF.SameCoordinates,Original*
G04 #@! TF.FileFunction,Legend,Bot*
G04 #@! TF.FilePolarity,Positive*
%FSLAX46Y46*%
G04 Gerber Fmt 4.6, Leading zero omitted, Abs format (unit mm)*
G04 Created by KiCad (PCBNEW (5.1.4)-1) date 2020-11-02 02:01:27*
%MOMM*%
%LPD*%
G04 APERTURE LIST*
%ADD10C,0.100000*%
%ADD11C,0.150000*%
%ADD12C,0.120000*%
%ADD13C,0.200000*%
%ADD14C,0.254000*%
G04 APERTURE END LIST*
D10*
X136505000Y-97135000D02*
X137005000Y-97135000D01*
X136505000Y-97135000D02*
X136505000Y-97635000D01*
X146705000Y-97135000D02*
X146205000Y-97135000D01*
X146705000Y-97135000D02*
X146705000Y-97635000D01*
X136505000Y-107335000D02*
X136505000Y-106835000D01*
X136505000Y-107335000D02*
X137005000Y-107335000D01*
X145605000Y-107335000D02*
X145605000Y-108335000D01*
X146105000Y-107335000D02*
X145605000Y-107335000D01*
X146705000Y-106735000D02*
X146105000Y-107335000D01*
X146705000Y-106435000D02*
X146705000Y-106735000D01*
D11*
X170180000Y-116840000D02*
G75*
G03X168910000Y-115570000I-1270000J0D01*
G01*
X184150000Y-115570000D02*
G75*
G03X182880000Y-116840000I0J-1270000D01*
G01*
X170180000Y-132080000D02*
X170180000Y-116840000D01*
X182880000Y-132080000D02*
X170180000Y-132080000D01*
X182880000Y-116840000D02*
X182880000Y-132080000D01*
X185420000Y-115570000D02*
X184150000Y-115570000D01*
X185420000Y-85090000D02*
X185420000Y-115570000D01*
X167640000Y-85090000D02*
X185420000Y-85090000D01*
X167640000Y-115570000D02*
X167640000Y-85090000D01*
X168910000Y-115570000D02*
X167640000Y-115570000D01*
D12*
X161680000Y-103794000D02*
X161680000Y-104994000D01*
X163440000Y-104994000D02*
X163440000Y-103794000D01*
X151705000Y-93285000D02*
X156905000Y-93285000D01*
X151705000Y-98425000D02*
X151705000Y-93285000D01*
X156905000Y-101025000D02*
X156905000Y-93285000D01*
X151705000Y-98425000D02*
X154305000Y-98425000D01*
X154305000Y-98425000D02*
X154305000Y-101025000D01*
X154305000Y-101025000D02*
X156905000Y-101025000D01*
X151705000Y-99695000D02*
X151705000Y-101025000D01*
X151705000Y-101025000D02*
X153035000Y-101025000D01*
X151980000Y-106180000D02*
X151980000Y-107180000D01*
X150280000Y-107180000D02*
X150280000Y-106180000D01*
X141089000Y-110832000D02*
X140089000Y-110832000D01*
X140089000Y-109132000D02*
X141089000Y-109132000D01*
X150075000Y-106180000D02*
X150075000Y-107180000D01*
X148375000Y-107180000D02*
X148375000Y-106180000D01*
X141089000Y-112737000D02*
X140089000Y-112737000D01*
X140089000Y-111037000D02*
X141089000Y-111037000D01*
X133135000Y-98163000D02*
X133135000Y-97163000D01*
X134835000Y-97163000D02*
X134835000Y-98163000D01*
X160790000Y-109816000D02*
X159790000Y-109816000D01*
X159790000Y-108116000D02*
X160790000Y-108116000D01*
X156044000Y-104656000D02*
X156044000Y-105656000D01*
X154344000Y-105656000D02*
X154344000Y-104656000D01*
X154139000Y-104656000D02*
X154139000Y-105656000D01*
X152439000Y-105656000D02*
X152439000Y-104656000D01*
D13*
X156650000Y-106691000D02*
G75*
G03X156650000Y-106891000I0J-100000D01*
G01*
X156650000Y-106891000D02*
G75*
G03X156650000Y-106691000I0J100000D01*
G01*
X156650000Y-106891000D02*
X156650000Y-106891000D01*
X156650000Y-106691000D02*
X156650000Y-106691000D01*
D10*
X157250000Y-107291000D02*
X157250000Y-107191000D01*
X157750000Y-107291000D02*
X157250000Y-107291000D01*
X160250000Y-107291000D02*
X160250000Y-107191000D01*
X159750000Y-107291000D02*
X160250000Y-107291000D01*
X157250000Y-104291000D02*
X157250000Y-104391000D01*
X157750000Y-104291000D02*
X157250000Y-104291000D01*
X160250000Y-104291000D02*
X160250000Y-104391000D01*
X159750000Y-104291000D02*
X160250000Y-104291000D01*
D11*
X142493904Y-101687380D02*
X142493904Y-102496904D01*
X142446285Y-102592142D01*
X142398666Y-102639761D01*
X142303428Y-102687380D01*
X142112952Y-102687380D01*
X142017714Y-102639761D01*
X141970095Y-102592142D01*
X141922476Y-102496904D01*
X141922476Y-101687380D01*
X141493904Y-101782619D02*
X141446285Y-101735000D01*
X141351047Y-101687380D01*
X141112952Y-101687380D01*
X141017714Y-101735000D01*
X140970095Y-101782619D01*
X140922476Y-101877857D01*
X140922476Y-101973095D01*
X140970095Y-102115952D01*
X141541523Y-102687380D01*
X140922476Y-102687380D01*
X187412380Y-113538095D02*
X188221904Y-113538095D01*
X188317142Y-113585714D01*
X188364761Y-113633333D01*
X188412380Y-113728571D01*
X188412380Y-113919047D01*
X188364761Y-114014285D01*
X188317142Y-114061904D01*
X188221904Y-114109523D01*
X187412380Y-114109523D01*
X188412380Y-115109523D02*
X188412380Y-114538095D01*
X188412380Y-114823809D02*
X187412380Y-114823809D01*
X187555238Y-114728571D01*
X187650476Y-114633333D01*
X187698095Y-114538095D01*
X164662380Y-104227333D02*
X164186190Y-103894000D01*
X164662380Y-103655904D02*
X163662380Y-103655904D01*
X163662380Y-104036857D01*
X163710000Y-104132095D01*
X163757619Y-104179714D01*
X163852857Y-104227333D01*
X163995714Y-104227333D01*
X164090952Y-104179714D01*
X164138571Y-104132095D01*
X164186190Y-104036857D01*
X164186190Y-103655904D01*
X163995714Y-105084476D02*
X164662380Y-105084476D01*
X163614761Y-104846380D02*
X164329047Y-104608285D01*
X164329047Y-105227333D01*
X154638333Y-101477380D02*
X154638333Y-102191666D01*
X154685952Y-102334523D01*
X154781190Y-102429761D01*
X154924047Y-102477380D01*
X155019285Y-102477380D01*
X154257380Y-101477380D02*
X153638333Y-101477380D01*
X153971666Y-101858333D01*
X153828809Y-101858333D01*
X153733571Y-101905952D01*
X153685952Y-101953571D01*
X153638333Y-102048809D01*
X153638333Y-102286904D01*
X153685952Y-102382142D01*
X153733571Y-102429761D01*
X153828809Y-102477380D01*
X154114523Y-102477380D01*
X154209761Y-102429761D01*
X154257380Y-102382142D01*
X151487142Y-109212142D02*
X151534761Y-109164523D01*
X151582380Y-109021666D01*
X151582380Y-108926428D01*
X151534761Y-108783571D01*
X151439523Y-108688333D01*
X151344285Y-108640714D01*
X151153809Y-108593095D01*
X151010952Y-108593095D01*
X150820476Y-108640714D01*
X150725238Y-108688333D01*
X150630000Y-108783571D01*
X150582380Y-108926428D01*
X150582380Y-109021666D01*
X150630000Y-109164523D01*
X150677619Y-109212142D01*
X151582380Y-110164523D02*
X151582380Y-109593095D01*
X151582380Y-109878809D02*
X150582380Y-109878809D01*
X150725238Y-109783571D01*
X150820476Y-109688333D01*
X150868095Y-109593095D01*
X151582380Y-111116904D02*
X151582380Y-110545476D01*
X151582380Y-110831190D02*
X150582380Y-110831190D01*
X150725238Y-110735952D01*
X150820476Y-110640714D01*
X150868095Y-110545476D01*
X144406857Y-110466142D02*
X144454476Y-110513761D01*
X144597333Y-110561380D01*
X144692571Y-110561380D01*
X144835428Y-110513761D01*
X144930666Y-110418523D01*
X144978285Y-110323285D01*
X145025904Y-110132809D01*
X145025904Y-109989952D01*
X144978285Y-109799476D01*
X144930666Y-109704238D01*
X144835428Y-109609000D01*
X144692571Y-109561380D01*
X144597333Y-109561380D01*
X144454476Y-109609000D01*
X144406857Y-109656619D01*
X143454476Y-110561380D02*
X144025904Y-110561380D01*
X143740190Y-110561380D02*
X143740190Y-109561380D01*
X143835428Y-109704238D01*
X143930666Y-109799476D01*
X144025904Y-109847095D01*
X142835428Y-109561380D02*
X142740190Y-109561380D01*
X142644952Y-109609000D01*
X142597333Y-109656619D01*
X142549714Y-109751857D01*
X142502095Y-109942333D01*
X142502095Y-110180428D01*
X142549714Y-110370904D01*
X142597333Y-110466142D01*
X142644952Y-110513761D01*
X142740190Y-110561380D01*
X142835428Y-110561380D01*
X142930666Y-110513761D01*
X142978285Y-110466142D01*
X143025904Y-110370904D01*
X143073523Y-110180428D01*
X143073523Y-109942333D01*
X143025904Y-109751857D01*
X142978285Y-109656619D01*
X142930666Y-109609000D01*
X142835428Y-109561380D01*
X149582142Y-109307333D02*
X149629761Y-109259714D01*
X149677380Y-109116857D01*
X149677380Y-109021619D01*
X149629761Y-108878761D01*
X149534523Y-108783523D01*
X149439285Y-108735904D01*
X149248809Y-108688285D01*
X149105952Y-108688285D01*
X148915476Y-108735904D01*
X148820238Y-108783523D01*
X148725000Y-108878761D01*
X148677380Y-109021619D01*
X148677380Y-109116857D01*
X148725000Y-109259714D01*
X148772619Y-109307333D01*
X149677380Y-109783523D02*
X149677380Y-109974000D01*
X149629761Y-110069238D01*
X149582142Y-110116857D01*
X149439285Y-110212095D01*
X149248809Y-110259714D01*
X148867857Y-110259714D01*
X148772619Y-110212095D01*
X148725000Y-110164476D01*
X148677380Y-110069238D01*
X148677380Y-109878761D01*
X148725000Y-109783523D01*
X148772619Y-109735904D01*
X148867857Y-109688285D01*
X149105952Y-109688285D01*
X149201190Y-109735904D01*
X149248809Y-109783523D01*
X149296428Y-109878761D01*
X149296428Y-110069238D01*
X149248809Y-110164476D01*
X149201190Y-110212095D01*
X149105952Y-110259714D01*
X143549666Y-112244142D02*
X143597285Y-112291761D01*
X143740142Y-112339380D01*
X143835380Y-112339380D01*
X143978238Y-112291761D01*
X144073476Y-112196523D01*
X144121095Y-112101285D01*
X144168714Y-111910809D01*
X144168714Y-111767952D01*
X144121095Y-111577476D01*
X144073476Y-111482238D01*
X143978238Y-111387000D01*
X143835380Y-111339380D01*
X143740142Y-111339380D01*
X143597285Y-111387000D01*
X143549666Y-111434619D01*
X142978238Y-111767952D02*
X143073476Y-111720333D01*
X143121095Y-111672714D01*
X143168714Y-111577476D01*
X143168714Y-111529857D01*
X143121095Y-111434619D01*
X143073476Y-111387000D01*
X142978238Y-111339380D01*
X142787761Y-111339380D01*
X142692523Y-111387000D01*
X142644904Y-111434619D01*
X142597285Y-111529857D01*
X142597285Y-111577476D01*
X142644904Y-111672714D01*
X142692523Y-111720333D01*
X142787761Y-111767952D01*
X142978238Y-111767952D01*
X143073476Y-111815571D01*
X143121095Y-111863190D01*
X143168714Y-111958428D01*
X143168714Y-112148904D01*
X143121095Y-112244142D01*
X143073476Y-112291761D01*
X142978238Y-112339380D01*
X142787761Y-112339380D01*
X142692523Y-112291761D01*
X142644904Y-112244142D01*
X142597285Y-112148904D01*
X142597285Y-111958428D01*
X142644904Y-111863190D01*
X142692523Y-111815571D01*
X142787761Y-111767952D01*
X132842142Y-97496333D02*
X132889761Y-97448714D01*
X132937380Y-97305857D01*
X132937380Y-97210619D01*
X132889761Y-97067761D01*
X132794523Y-96972523D01*
X132699285Y-96924904D01*
X132508809Y-96877285D01*
X132365952Y-96877285D01*
X132175476Y-96924904D01*
X132080238Y-96972523D01*
X131985000Y-97067761D01*
X131937380Y-97210619D01*
X131937380Y-97305857D01*
X131985000Y-97448714D01*
X132032619Y-97496333D01*
X131937380Y-97829666D02*
X131937380Y-98496333D01*
X132937380Y-98067761D01*
X160456666Y-110823142D02*
X160504285Y-110870761D01*
X160647142Y-110918380D01*
X160742380Y-110918380D01*
X160885238Y-110870761D01*
X160980476Y-110775523D01*
X161028095Y-110680285D01*
X161075714Y-110489809D01*
X161075714Y-110346952D01*
X161028095Y-110156476D01*
X160980476Y-110061238D01*
X160885238Y-109966000D01*
X160742380Y-109918380D01*
X160647142Y-109918380D01*
X160504285Y-109966000D01*
X160456666Y-110013619D01*
X160123333Y-109918380D02*
X159504285Y-109918380D01*
X159837619Y-110299333D01*
X159694761Y-110299333D01*
X159599523Y-110346952D01*
X159551904Y-110394571D01*
X159504285Y-110489809D01*
X159504285Y-110727904D01*
X159551904Y-110823142D01*
X159599523Y-110870761D01*
X159694761Y-110918380D01*
X159980476Y-110918380D01*
X160075714Y-110870761D01*
X160123333Y-110823142D01*
X155551142Y-107656333D02*
X155598761Y-107608714D01*
X155646380Y-107465857D01*
X155646380Y-107370619D01*
X155598761Y-107227761D01*
X155503523Y-107132523D01*
X155408285Y-107084904D01*
X155217809Y-107037285D01*
X155074952Y-107037285D01*
X154884476Y-107084904D01*
X154789238Y-107132523D01*
X154694000Y-107227761D01*
X154646380Y-107370619D01*
X154646380Y-107465857D01*
X154694000Y-107608714D01*
X154741619Y-107656333D01*
X154741619Y-108037285D02*
X154694000Y-108084904D01*
X154646380Y-108180142D01*
X154646380Y-108418238D01*
X154694000Y-108513476D01*
X154741619Y-108561095D01*
X154836857Y-108608714D01*
X154932095Y-108608714D01*
X155074952Y-108561095D01*
X155646380Y-107989666D01*
X155646380Y-108608714D01*
X153646142Y-107656333D02*
X153693761Y-107608714D01*
X153741380Y-107465857D01*
X153741380Y-107370619D01*
X153693761Y-107227761D01*
X153598523Y-107132523D01*
X153503285Y-107084904D01*
X153312809Y-107037285D01*
X153169952Y-107037285D01*
X152979476Y-107084904D01*
X152884238Y-107132523D01*
X152789000Y-107227761D01*
X152741380Y-107370619D01*
X152741380Y-107465857D01*
X152789000Y-107608714D01*
X152836619Y-107656333D01*
X153741380Y-108608714D02*
X153741380Y-108037285D01*
X153741380Y-108323000D02*
X152741380Y-108323000D01*
X152884238Y-108227761D01*
X152979476Y-108132523D01*
X153027095Y-108037285D01*
D14*
X160292142Y-106002666D02*
X159687380Y-106002666D01*
X160413095Y-106365523D02*
X159989761Y-105095523D01*
X159566428Y-106365523D01*
X158417380Y-106244571D02*
X158477857Y-106305047D01*
X158659285Y-106365523D01*
X158780238Y-106365523D01*
X158961666Y-106305047D01*
X159082619Y-106184095D01*
X159143095Y-106063142D01*
X159203571Y-105821238D01*
X159203571Y-105639809D01*
X159143095Y-105397904D01*
X159082619Y-105276952D01*
X158961666Y-105156000D01*
X158780238Y-105095523D01*
X158659285Y-105095523D01*
X158477857Y-105156000D01*
X158417380Y-105216476D01*
X157207857Y-106365523D02*
X157933571Y-106365523D01*
X157570714Y-106365523D02*
X157570714Y-105095523D01*
X157691666Y-105276952D01*
X157812619Y-105397904D01*
X157933571Y-105458380D01*
M02*
