M48
; DRILL file {KiCad (5.1.4)-1} date 11/2/2020 2:01:38 AM
; FORMAT={-:-/ absolute / inch / decimal}
; #@! TF.CreationDate,2020-11-02T02:01:38-05:00
; #@! TF.GenerationSoftware,Kicad,Pcbnew,(5.1.4)-1
; #@! TF.FileFunction,Plated,1,2,PTH
FMAT,2
INCH
T1C0.0157
T2C0.0394
T3C0.0630
%
G90
G05
T1
X4.6425Y-4.05
X4.645Y-4.45
X4.646Y-4.512
X4.8Y-4.15
X5.2785Y-3.75
X5.314Y-3.8506
X5.3775Y-4.355
X5.3775Y-4.3944
X5.575Y-4.46
X5.65Y-4.15
X5.675Y-4.19
X5.6827Y-3.9327
X5.7149Y-3.9004
X5.745Y-3.875
X5.75Y-4.1615
X5.9629Y-4.0976
X6.2325Y-4.0666
X6.2661Y-4.0441
X6.34Y-4.1106
X6.34Y-4.15
X6.4Y-4.29
T2
X5.65Y-4.7
X5.75Y-4.7
X5.85Y-4.7
X5.95Y-4.7
X6.05Y-4.7
X6.65Y-3.4
X6.65Y-3.5
X6.65Y-3.6
X6.65Y-3.7
X6.65Y-3.8
X6.65Y-3.9
X6.65Y-4.0
X6.65Y-4.4
X6.65Y-4.5
X7.25Y-3.4
X7.25Y-3.5
X7.25Y-3.6
X7.25Y-3.7
X7.25Y-3.8
X7.25Y-3.9
X7.25Y-4.0
X7.25Y-4.1
X7.25Y-4.2
X7.25Y-4.3
X7.25Y-4.4
X7.25Y-4.5
X5.9Y-3.4
X6.0Y-3.4
X6.1Y-3.4
X6.2Y-3.4
X6.025Y-3.725
X6.025Y-3.825
X6.025Y-3.925
X6.125Y-3.725
X6.125Y-3.825
X6.125Y-3.925
X4.75Y-3.4
X4.75Y-3.5
X4.85Y-3.4
X4.85Y-3.5
X4.95Y-3.4
X4.95Y-3.5
X5.05Y-3.4
X5.05Y-3.5
X5.15Y-3.4
X5.15Y-3.5
X5.25Y-3.4
X5.25Y-3.5
X5.425Y-3.4
X5.425Y-3.5
X5.525Y-3.4
X5.525Y-3.5
X5.625Y-3.4
X5.625Y-3.5
X5.725Y-3.4
X5.725Y-3.5
T3
X4.2207Y-3.435
X5.425Y-4.7014
X5.175Y-4.7014
X4.44Y-3.435
X6.55Y-4.7
X6.3Y-4.7
T0
M30
