G04 #@! TF.GenerationSoftware,KiCad,Pcbnew,(5.1.4)-1*
G04 #@! TF.CreationDate,2020-11-02T02:01:27-05:00*
G04 #@! TF.ProjectId,remote_racing_pcb,72656d6f-7465-45f7-9261-63696e675f70,rev?*
G04 #@! TF.SameCoordinates,Original*
G04 #@! TF.FileFunction,Legend,Top*
G04 #@! TF.FilePolarity,Positive*
%FSLAX46Y46*%
G04 Gerber Fmt 4.6, Leading zero omitted, Abs format (unit mm)*
G04 Created by KiCad (PCBNEW (5.1.4)-1) date 2020-11-02 02:01:27*
%MOMM*%
%LPD*%
G04 APERTURE LIST*
%ADD10C,0.125000*%
%ADD11C,0.120000*%
%ADD12C,0.150000*%
%ADD13C,0.254000*%
%ADD14C,0.300000*%
%ADD15C,0.200000*%
G04 APERTURE END LIST*
D10*
X121388095Y-91459809D02*
X121078571Y-91459809D01*
X121245238Y-91269333D01*
X121173809Y-91269333D01*
X121126190Y-91245523D01*
X121102380Y-91221714D01*
X121078571Y-91174095D01*
X121078571Y-91055047D01*
X121102380Y-91007428D01*
X121126190Y-90983619D01*
X121173809Y-90959809D01*
X121316666Y-90959809D01*
X121364285Y-90983619D01*
X121388095Y-91007428D01*
X120864285Y-91007428D02*
X120840476Y-90983619D01*
X120864285Y-90959809D01*
X120888095Y-90983619D01*
X120864285Y-91007428D01*
X120864285Y-90959809D01*
X120673809Y-91459809D02*
X120364285Y-91459809D01*
X120530952Y-91269333D01*
X120459523Y-91269333D01*
X120411904Y-91245523D01*
X120388095Y-91221714D01*
X120364285Y-91174095D01*
X120364285Y-91055047D01*
X120388095Y-91007428D01*
X120411904Y-90983619D01*
X120459523Y-90959809D01*
X120602380Y-90959809D01*
X120650000Y-90983619D01*
X120673809Y-91007428D01*
X120221428Y-91459809D02*
X120054761Y-90959809D01*
X119888095Y-91459809D01*
X123832857Y-91929119D02*
X123761428Y-91905309D01*
X123642380Y-91905309D01*
X123594761Y-91929119D01*
X123570952Y-91952928D01*
X123547142Y-92000547D01*
X123547142Y-92048166D01*
X123570952Y-92095785D01*
X123594761Y-92119595D01*
X123642380Y-92143404D01*
X123737619Y-92167214D01*
X123785238Y-92191023D01*
X123809047Y-92214833D01*
X123832857Y-92262452D01*
X123832857Y-92310071D01*
X123809047Y-92357690D01*
X123785238Y-92381500D01*
X123737619Y-92405309D01*
X123618571Y-92405309D01*
X123547142Y-92381500D01*
X123047142Y-91952928D02*
X123070952Y-91929119D01*
X123142380Y-91905309D01*
X123190000Y-91905309D01*
X123261428Y-91929119D01*
X123309047Y-91976738D01*
X123332857Y-92024357D01*
X123356666Y-92119595D01*
X123356666Y-92191023D01*
X123332857Y-92286261D01*
X123309047Y-92333880D01*
X123261428Y-92381500D01*
X123190000Y-92405309D01*
X123142380Y-92405309D01*
X123070952Y-92381500D01*
X123047142Y-92357690D01*
X122832857Y-91905309D02*
X122832857Y-92405309D01*
X122547142Y-91905309D02*
X122761428Y-92191023D01*
X122547142Y-92405309D02*
X122832857Y-92119595D01*
X124023333Y-90839833D02*
X124047142Y-90863642D01*
X124094761Y-90935071D01*
X124118571Y-90982690D01*
X124142380Y-91054119D01*
X124166190Y-91173166D01*
X124166190Y-91268404D01*
X124142380Y-91387452D01*
X124118571Y-91458880D01*
X124094761Y-91506500D01*
X124047142Y-91577928D01*
X124023333Y-91601738D01*
X123547142Y-91077928D02*
X123570952Y-91054119D01*
X123642380Y-91030309D01*
X123690000Y-91030309D01*
X123761428Y-91054119D01*
X123809047Y-91101738D01*
X123832857Y-91149357D01*
X123856666Y-91244595D01*
X123856666Y-91316023D01*
X123832857Y-91411261D01*
X123809047Y-91458880D01*
X123761428Y-91506500D01*
X123690000Y-91530309D01*
X123642380Y-91530309D01*
X123570952Y-91506500D01*
X123547142Y-91482690D01*
X122975714Y-91554119D02*
X123404285Y-90911261D01*
X122809047Y-91030309D02*
X122809047Y-91530309D01*
X122690000Y-91530309D01*
X122618571Y-91506500D01*
X122570952Y-91458880D01*
X122547142Y-91411261D01*
X122523333Y-91316023D01*
X122523333Y-91244595D01*
X122547142Y-91149357D01*
X122570952Y-91101738D01*
X122618571Y-91054119D01*
X122690000Y-91030309D01*
X122809047Y-91030309D01*
X122356666Y-90839833D02*
X122332857Y-90863642D01*
X122285238Y-90935071D01*
X122261428Y-90982690D01*
X122237619Y-91054119D01*
X122213809Y-91173166D01*
X122213809Y-91268404D01*
X122237619Y-91387452D01*
X122261428Y-91458880D01*
X122285238Y-91506500D01*
X122332857Y-91577928D01*
X122356666Y-91601738D01*
X126515714Y-91905309D02*
X126515714Y-92405309D01*
X126349047Y-92048166D01*
X126182380Y-92405309D01*
X126182380Y-91905309D01*
X125849047Y-92405309D02*
X125753809Y-92405309D01*
X125706190Y-92381500D01*
X125658571Y-92333880D01*
X125634761Y-92238642D01*
X125634761Y-92071976D01*
X125658571Y-91976738D01*
X125706190Y-91929119D01*
X125753809Y-91905309D01*
X125849047Y-91905309D01*
X125896666Y-91929119D01*
X125944285Y-91976738D01*
X125968095Y-92071976D01*
X125968095Y-92238642D01*
X125944285Y-92333880D01*
X125896666Y-92381500D01*
X125849047Y-92405309D01*
X125444285Y-91929119D02*
X125372857Y-91905309D01*
X125253809Y-91905309D01*
X125206190Y-91929119D01*
X125182380Y-91952928D01*
X125158571Y-92000547D01*
X125158571Y-92048166D01*
X125182380Y-92095785D01*
X125206190Y-92119595D01*
X125253809Y-92143404D01*
X125349047Y-92167214D01*
X125396666Y-92191023D01*
X125420476Y-92214833D01*
X125444285Y-92262452D01*
X125444285Y-92310071D01*
X125420476Y-92357690D01*
X125396666Y-92381500D01*
X125349047Y-92405309D01*
X125230000Y-92405309D01*
X125158571Y-92381500D01*
X124944285Y-91905309D02*
X124944285Y-92405309D01*
X126301428Y-90839833D02*
X126325238Y-90863642D01*
X126372857Y-90935071D01*
X126396666Y-90982690D01*
X126420476Y-91054119D01*
X126444285Y-91173166D01*
X126444285Y-91268404D01*
X126420476Y-91387452D01*
X126396666Y-91458880D01*
X126372857Y-91506500D01*
X126325238Y-91577928D01*
X126301428Y-91601738D01*
X125825238Y-91030309D02*
X125991904Y-91268404D01*
X126110952Y-91030309D02*
X126110952Y-91530309D01*
X125920476Y-91530309D01*
X125872857Y-91506500D01*
X125849047Y-91482690D01*
X125825238Y-91435071D01*
X125825238Y-91363642D01*
X125849047Y-91316023D01*
X125872857Y-91292214D01*
X125920476Y-91268404D01*
X126110952Y-91268404D01*
X125610952Y-91030309D02*
X125610952Y-91530309D01*
X125491904Y-91530309D01*
X125420476Y-91506500D01*
X125372857Y-91458880D01*
X125349047Y-91411261D01*
X125325238Y-91316023D01*
X125325238Y-91244595D01*
X125349047Y-91149357D01*
X125372857Y-91101738D01*
X125420476Y-91054119D01*
X125491904Y-91030309D01*
X125610952Y-91030309D01*
X125158571Y-90839833D02*
X125134761Y-90863642D01*
X125087142Y-90935071D01*
X125063333Y-90982690D01*
X125039523Y-91054119D01*
X125015714Y-91173166D01*
X125015714Y-91268404D01*
X125039523Y-91387452D01*
X125063333Y-91458880D01*
X125087142Y-91506500D01*
X125134761Y-91577928D01*
X125158571Y-91601738D01*
X128603333Y-91007428D02*
X128627142Y-90983619D01*
X128698571Y-90959809D01*
X128746190Y-90959809D01*
X128817619Y-90983619D01*
X128865238Y-91031238D01*
X128889047Y-91078857D01*
X128912857Y-91174095D01*
X128912857Y-91245523D01*
X128889047Y-91340761D01*
X128865238Y-91388380D01*
X128817619Y-91436000D01*
X128746190Y-91459809D01*
X128698571Y-91459809D01*
X128627142Y-91436000D01*
X128603333Y-91412190D01*
X128103333Y-91007428D02*
X128127142Y-90983619D01*
X128198571Y-90959809D01*
X128246190Y-90959809D01*
X128317619Y-90983619D01*
X128365238Y-91031238D01*
X128389047Y-91078857D01*
X128412857Y-91174095D01*
X128412857Y-91245523D01*
X128389047Y-91340761D01*
X128365238Y-91388380D01*
X128317619Y-91436000D01*
X128246190Y-91459809D01*
X128198571Y-91459809D01*
X128127142Y-91436000D01*
X128103333Y-91412190D01*
X127912857Y-90983619D02*
X127841428Y-90959809D01*
X127722380Y-90959809D01*
X127674761Y-90983619D01*
X127650952Y-91007428D01*
X127627142Y-91055047D01*
X127627142Y-91102666D01*
X127650952Y-91150285D01*
X127674761Y-91174095D01*
X127722380Y-91197904D01*
X127817619Y-91221714D01*
X127865238Y-91245523D01*
X127889047Y-91269333D01*
X127912857Y-91316952D01*
X127912857Y-91364571D01*
X127889047Y-91412190D01*
X127865238Y-91436000D01*
X127817619Y-91459809D01*
X127698571Y-91459809D01*
X127627142Y-91436000D01*
X131286190Y-91459809D02*
X130952857Y-90959809D01*
X130952857Y-91459809D02*
X131286190Y-90959809D01*
X130762380Y-91150285D02*
X130381428Y-91150285D01*
X133826190Y-91459809D02*
X133492857Y-90959809D01*
X133492857Y-91459809D02*
X133826190Y-90959809D01*
X133302380Y-91150285D02*
X132921428Y-91150285D01*
X133111904Y-90959809D02*
X133111904Y-91340761D01*
X121030952Y-84324000D02*
X121078571Y-84347809D01*
X121150000Y-84347809D01*
X121221428Y-84324000D01*
X121269047Y-84276380D01*
X121292857Y-84228761D01*
X121316666Y-84133523D01*
X121316666Y-84062095D01*
X121292857Y-83966857D01*
X121269047Y-83919238D01*
X121221428Y-83871619D01*
X121150000Y-83847809D01*
X121102380Y-83847809D01*
X121030952Y-83871619D01*
X121007142Y-83895428D01*
X121007142Y-84062095D01*
X121102380Y-84062095D01*
X120792857Y-83847809D02*
X120792857Y-84347809D01*
X120507142Y-83847809D01*
X120507142Y-84347809D01*
X120269047Y-83847809D02*
X120269047Y-84347809D01*
X120150000Y-84347809D01*
X120078571Y-84324000D01*
X120030952Y-84276380D01*
X120007142Y-84228761D01*
X119983333Y-84133523D01*
X119983333Y-84062095D01*
X120007142Y-83966857D01*
X120030952Y-83919238D01*
X120078571Y-83871619D01*
X120150000Y-83847809D01*
X120269047Y-83847809D01*
X123761428Y-83871619D02*
X123690000Y-83847809D01*
X123570952Y-83847809D01*
X123523333Y-83871619D01*
X123499523Y-83895428D01*
X123475714Y-83943047D01*
X123475714Y-83990666D01*
X123499523Y-84038285D01*
X123523333Y-84062095D01*
X123570952Y-84085904D01*
X123666190Y-84109714D01*
X123713809Y-84133523D01*
X123737619Y-84157333D01*
X123761428Y-84204952D01*
X123761428Y-84252571D01*
X123737619Y-84300190D01*
X123713809Y-84324000D01*
X123666190Y-84347809D01*
X123547142Y-84347809D01*
X123475714Y-84324000D01*
X123261428Y-84109714D02*
X123094761Y-84109714D01*
X123023333Y-83847809D02*
X123261428Y-83847809D01*
X123261428Y-84347809D01*
X123023333Y-84347809D01*
X122570952Y-83847809D02*
X122809047Y-83847809D01*
X122809047Y-84347809D01*
X126515714Y-83847809D02*
X126515714Y-84347809D01*
X126349047Y-83990666D01*
X126182380Y-84347809D01*
X126182380Y-83847809D01*
X125944285Y-83847809D02*
X125944285Y-84347809D01*
X125730000Y-83871619D02*
X125658571Y-83847809D01*
X125539523Y-83847809D01*
X125491904Y-83871619D01*
X125468095Y-83895428D01*
X125444285Y-83943047D01*
X125444285Y-83990666D01*
X125468095Y-84038285D01*
X125491904Y-84062095D01*
X125539523Y-84085904D01*
X125634761Y-84109714D01*
X125682380Y-84133523D01*
X125706190Y-84157333D01*
X125730000Y-84204952D01*
X125730000Y-84252571D01*
X125706190Y-84300190D01*
X125682380Y-84324000D01*
X125634761Y-84347809D01*
X125515714Y-84347809D01*
X125444285Y-84324000D01*
X125134761Y-84347809D02*
X125039523Y-84347809D01*
X124991904Y-84324000D01*
X124944285Y-84276380D01*
X124920476Y-84181142D01*
X124920476Y-84014476D01*
X124944285Y-83919238D01*
X124991904Y-83871619D01*
X125039523Y-83847809D01*
X125134761Y-83847809D01*
X125182380Y-83871619D01*
X125230000Y-83919238D01*
X125253809Y-84014476D01*
X125253809Y-84181142D01*
X125230000Y-84276380D01*
X125182380Y-84324000D01*
X125134761Y-84347809D01*
X128912857Y-83904309D02*
X128912857Y-84404309D01*
X128793809Y-84404309D01*
X128722380Y-84380500D01*
X128674761Y-84332880D01*
X128650952Y-84285261D01*
X128627142Y-84190023D01*
X128627142Y-84118595D01*
X128650952Y-84023357D01*
X128674761Y-83975738D01*
X128722380Y-83928119D01*
X128793809Y-83904309D01*
X128912857Y-83904309D01*
X128055714Y-84428119D02*
X128484285Y-83785261D01*
X127603333Y-83951928D02*
X127627142Y-83928119D01*
X127698571Y-83904309D01*
X127746190Y-83904309D01*
X127817619Y-83928119D01*
X127865238Y-83975738D01*
X127889047Y-84023357D01*
X127912857Y-84118595D01*
X127912857Y-84190023D01*
X127889047Y-84285261D01*
X127865238Y-84332880D01*
X127817619Y-84380500D01*
X127746190Y-84404309D01*
X127698571Y-84404309D01*
X127627142Y-84380500D01*
X127603333Y-84356690D01*
X128877142Y-82838833D02*
X128900952Y-82862642D01*
X128948571Y-82934071D01*
X128972380Y-82981690D01*
X128996190Y-83053119D01*
X129020000Y-83172166D01*
X129020000Y-83267404D01*
X128996190Y-83386452D01*
X128972380Y-83457880D01*
X128948571Y-83505500D01*
X128900952Y-83576928D01*
X128877142Y-83600738D01*
X128734285Y-83529309D02*
X128615238Y-83029309D01*
X128520000Y-83386452D01*
X128424761Y-83029309D01*
X128305714Y-83529309D01*
X127829523Y-83029309D02*
X127996190Y-83267404D01*
X128115238Y-83029309D02*
X128115238Y-83529309D01*
X127924761Y-83529309D01*
X127877142Y-83505500D01*
X127853333Y-83481690D01*
X127829523Y-83434071D01*
X127829523Y-83362642D01*
X127853333Y-83315023D01*
X127877142Y-83291214D01*
X127924761Y-83267404D01*
X128115238Y-83267404D01*
X127662857Y-82838833D02*
X127639047Y-82862642D01*
X127591428Y-82934071D01*
X127567619Y-82981690D01*
X127543809Y-83053119D01*
X127520000Y-83172166D01*
X127520000Y-83267404D01*
X127543809Y-83386452D01*
X127567619Y-83457880D01*
X127591428Y-83505500D01*
X127639047Y-83576928D01*
X127662857Y-83600738D01*
X131119523Y-84085904D02*
X131119523Y-83847809D01*
X131286190Y-84347809D02*
X131119523Y-84085904D01*
X130952857Y-84347809D01*
X130786190Y-84038285D02*
X130405238Y-84038285D01*
X130595714Y-83847809D02*
X130595714Y-84228761D01*
X133659523Y-84085904D02*
X133659523Y-83847809D01*
X133826190Y-84347809D02*
X133659523Y-84085904D01*
X133492857Y-84347809D01*
X133326190Y-84038285D02*
X132945238Y-84038285D01*
X137961666Y-91459809D02*
X137628333Y-91459809D01*
X137842619Y-90959809D01*
X140239761Y-91459809D02*
X140335000Y-91459809D01*
X140382619Y-91436000D01*
X140406428Y-91412190D01*
X140454047Y-91340761D01*
X140477857Y-91245523D01*
X140477857Y-91055047D01*
X140454047Y-91007428D01*
X140430238Y-90983619D01*
X140382619Y-90959809D01*
X140287380Y-90959809D01*
X140239761Y-90983619D01*
X140215952Y-91007428D01*
X140192142Y-91055047D01*
X140192142Y-91174095D01*
X140215952Y-91221714D01*
X140239761Y-91245523D01*
X140287380Y-91269333D01*
X140382619Y-91269333D01*
X140430238Y-91245523D01*
X140454047Y-91221714D01*
X140477857Y-91174095D01*
X142755952Y-91459809D02*
X142994047Y-91459809D01*
X143017857Y-91221714D01*
X142994047Y-91245523D01*
X142946428Y-91269333D01*
X142827380Y-91269333D01*
X142779761Y-91245523D01*
X142755952Y-91221714D01*
X142732142Y-91174095D01*
X142732142Y-91055047D01*
X142755952Y-91007428D01*
X142779761Y-90983619D01*
X142827380Y-90959809D01*
X142946428Y-90959809D01*
X142994047Y-90983619D01*
X143017857Y-91007428D01*
X145319761Y-91293142D02*
X145319761Y-90959809D01*
X145438809Y-91483619D02*
X145557857Y-91126476D01*
X145248333Y-91126476D01*
X137961666Y-84347809D02*
X137652142Y-84347809D01*
X137818809Y-84157333D01*
X137747380Y-84157333D01*
X137699761Y-84133523D01*
X137675952Y-84109714D01*
X137652142Y-84062095D01*
X137652142Y-83943047D01*
X137675952Y-83895428D01*
X137699761Y-83871619D01*
X137747380Y-83847809D01*
X137890238Y-83847809D01*
X137937857Y-83871619D01*
X137961666Y-83895428D01*
X140477857Y-84300190D02*
X140454047Y-84324000D01*
X140406428Y-84347809D01*
X140287380Y-84347809D01*
X140239761Y-84324000D01*
X140215952Y-84300190D01*
X140192142Y-84252571D01*
X140192142Y-84204952D01*
X140215952Y-84133523D01*
X140501666Y-83847809D01*
X140192142Y-83847809D01*
X142732142Y-83847809D02*
X143017857Y-83847809D01*
X142875000Y-83847809D02*
X142875000Y-84347809D01*
X142922619Y-84276380D01*
X142970238Y-84228761D01*
X143017857Y-84204952D01*
X145438809Y-84347809D02*
X145391190Y-84347809D01*
X145343571Y-84324000D01*
X145319761Y-84300190D01*
X145295952Y-84252571D01*
X145272142Y-84157333D01*
X145272142Y-84038285D01*
X145295952Y-83943047D01*
X145319761Y-83895428D01*
X145343571Y-83871619D01*
X145391190Y-83847809D01*
X145438809Y-83847809D01*
X145486428Y-83871619D01*
X145510238Y-83895428D01*
X145534047Y-83943047D01*
X145557857Y-84038285D01*
X145557857Y-84157333D01*
X145534047Y-84252571D01*
X145510238Y-84300190D01*
X145486428Y-84324000D01*
X145438809Y-84347809D01*
X155618571Y-84324000D02*
X155666190Y-84347809D01*
X155737619Y-84347809D01*
X155809047Y-84324000D01*
X155856666Y-84276380D01*
X155880476Y-84228761D01*
X155904285Y-84133523D01*
X155904285Y-84062095D01*
X155880476Y-83966857D01*
X155856666Y-83919238D01*
X155809047Y-83871619D01*
X155737619Y-83847809D01*
X155690000Y-83847809D01*
X155618571Y-83871619D01*
X155594761Y-83895428D01*
X155594761Y-84062095D01*
X155690000Y-84062095D01*
X155380476Y-83847809D02*
X155380476Y-84181142D01*
X155380476Y-84085904D02*
X155356666Y-84133523D01*
X155332857Y-84157333D01*
X155285238Y-84181142D01*
X155237619Y-84181142D01*
X154880476Y-83871619D02*
X154928095Y-83847809D01*
X155023333Y-83847809D01*
X155070952Y-83871619D01*
X155094761Y-83919238D01*
X155094761Y-84109714D01*
X155070952Y-84157333D01*
X155023333Y-84181142D01*
X154928095Y-84181142D01*
X154880476Y-84157333D01*
X154856666Y-84109714D01*
X154856666Y-84062095D01*
X155094761Y-84014476D01*
X154451904Y-83871619D02*
X154499523Y-83847809D01*
X154594761Y-83847809D01*
X154642380Y-83871619D01*
X154666190Y-83919238D01*
X154666190Y-84109714D01*
X154642380Y-84157333D01*
X154594761Y-84181142D01*
X154499523Y-84181142D01*
X154451904Y-84157333D01*
X154428095Y-84109714D01*
X154428095Y-84062095D01*
X154666190Y-84014476D01*
X154213809Y-84181142D02*
X154213809Y-83847809D01*
X154213809Y-84133523D02*
X154190000Y-84157333D01*
X154142380Y-84181142D01*
X154070952Y-84181142D01*
X154023333Y-84157333D01*
X153999523Y-84109714D01*
X153999523Y-83847809D01*
X157860952Y-84324000D02*
X157908571Y-84347809D01*
X157980000Y-84347809D01*
X158051428Y-84324000D01*
X158099047Y-84276380D01*
X158122857Y-84228761D01*
X158146666Y-84133523D01*
X158146666Y-84062095D01*
X158122857Y-83966857D01*
X158099047Y-83919238D01*
X158051428Y-83871619D01*
X157980000Y-83847809D01*
X157932380Y-83847809D01*
X157860952Y-83871619D01*
X157837142Y-83895428D01*
X157837142Y-84062095D01*
X157932380Y-84062095D01*
X157622857Y-83847809D02*
X157622857Y-84347809D01*
X157337142Y-83847809D01*
X157337142Y-84347809D01*
X157099047Y-83847809D02*
X157099047Y-84347809D01*
X156980000Y-84347809D01*
X156908571Y-84324000D01*
X156860952Y-84276380D01*
X156837142Y-84228761D01*
X156813333Y-84133523D01*
X156813333Y-84062095D01*
X156837142Y-83966857D01*
X156860952Y-83919238D01*
X156908571Y-83871619D01*
X156980000Y-83847809D01*
X157099047Y-83847809D01*
X153364285Y-84085904D02*
X153364285Y-83847809D01*
X153530952Y-84347809D02*
X153364285Y-84085904D01*
X153197619Y-84347809D01*
X152840476Y-83871619D02*
X152888095Y-83847809D01*
X152983333Y-83847809D01*
X153030952Y-83871619D01*
X153054761Y-83919238D01*
X153054761Y-84109714D01*
X153030952Y-84157333D01*
X152983333Y-84181142D01*
X152888095Y-84181142D01*
X152840476Y-84157333D01*
X152816666Y-84109714D01*
X152816666Y-84062095D01*
X153054761Y-84014476D01*
X152530952Y-83847809D02*
X152578571Y-83871619D01*
X152602380Y-83919238D01*
X152602380Y-84347809D01*
X152269047Y-83847809D02*
X152316666Y-83871619D01*
X152340476Y-83919238D01*
X152340476Y-84347809D01*
X152007142Y-83847809D02*
X152054761Y-83871619D01*
X152078571Y-83895428D01*
X152102380Y-83943047D01*
X152102380Y-84085904D01*
X152078571Y-84133523D01*
X152054761Y-84157333D01*
X152007142Y-84181142D01*
X151935714Y-84181142D01*
X151888095Y-84157333D01*
X151864285Y-84133523D01*
X151840476Y-84085904D01*
X151840476Y-83943047D01*
X151864285Y-83895428D01*
X151888095Y-83871619D01*
X151935714Y-83847809D01*
X152007142Y-83847809D01*
X151673809Y-84181142D02*
X151578571Y-83847809D01*
X151483333Y-84085904D01*
X151388095Y-83847809D01*
X151292857Y-84181142D01*
X150145714Y-83847809D02*
X150312380Y-84085904D01*
X150431428Y-83847809D02*
X150431428Y-84347809D01*
X150240952Y-84347809D01*
X150193333Y-84324000D01*
X150169523Y-84300190D01*
X150145714Y-84252571D01*
X150145714Y-84181142D01*
X150169523Y-84133523D01*
X150193333Y-84109714D01*
X150240952Y-84085904D01*
X150431428Y-84085904D01*
X149740952Y-83871619D02*
X149788571Y-83847809D01*
X149883809Y-83847809D01*
X149931428Y-83871619D01*
X149955238Y-83919238D01*
X149955238Y-84109714D01*
X149931428Y-84157333D01*
X149883809Y-84181142D01*
X149788571Y-84181142D01*
X149740952Y-84157333D01*
X149717142Y-84109714D01*
X149717142Y-84062095D01*
X149955238Y-84014476D01*
X149288571Y-83847809D02*
X149288571Y-84347809D01*
X149288571Y-83871619D02*
X149336190Y-83847809D01*
X149431428Y-83847809D01*
X149479047Y-83871619D01*
X149502857Y-83895428D01*
X149526666Y-83943047D01*
X149526666Y-84085904D01*
X149502857Y-84133523D01*
X149479047Y-84157333D01*
X149431428Y-84181142D01*
X149336190Y-84181142D01*
X149288571Y-84157333D01*
X153646190Y-121646190D02*
X153693809Y-121646190D01*
X153741428Y-121670000D01*
X153765238Y-121693809D01*
X153789047Y-121741428D01*
X153812857Y-121836666D01*
X153812857Y-121955714D01*
X153789047Y-122050952D01*
X153765238Y-122098571D01*
X153741428Y-122122380D01*
X153693809Y-122146190D01*
X153646190Y-122146190D01*
X153598571Y-122122380D01*
X153574761Y-122098571D01*
X153550952Y-122050952D01*
X153527142Y-121955714D01*
X153527142Y-121836666D01*
X153550952Y-121741428D01*
X153574761Y-121693809D01*
X153598571Y-121670000D01*
X153646190Y-121646190D01*
X151272857Y-122146190D02*
X150987142Y-122146190D01*
X151130000Y-122146190D02*
X151130000Y-121646190D01*
X151082380Y-121717619D01*
X151034761Y-121765238D01*
X150987142Y-121789047D01*
X148447142Y-121693809D02*
X148470952Y-121670000D01*
X148518571Y-121646190D01*
X148637619Y-121646190D01*
X148685238Y-121670000D01*
X148709047Y-121693809D01*
X148732857Y-121741428D01*
X148732857Y-121789047D01*
X148709047Y-121860476D01*
X148423333Y-122146190D01*
X148732857Y-122146190D01*
X145883333Y-121646190D02*
X146192857Y-121646190D01*
X146026190Y-121836666D01*
X146097619Y-121836666D01*
X146145238Y-121860476D01*
X146169047Y-121884285D01*
X146192857Y-121931904D01*
X146192857Y-122050952D01*
X146169047Y-122098571D01*
X146145238Y-122122380D01*
X146097619Y-122146190D01*
X145954761Y-122146190D01*
X145907142Y-122122380D01*
X145883333Y-122098571D01*
X143129047Y-121670000D02*
X143081428Y-121646190D01*
X143010000Y-121646190D01*
X142938571Y-121670000D01*
X142890952Y-121717619D01*
X142867142Y-121765238D01*
X142843333Y-121860476D01*
X142843333Y-121931904D01*
X142867142Y-122027142D01*
X142890952Y-122074761D01*
X142938571Y-122122380D01*
X143010000Y-122146190D01*
X143057619Y-122146190D01*
X143129047Y-122122380D01*
X143152857Y-122098571D01*
X143152857Y-121931904D01*
X143057619Y-121931904D01*
X143367142Y-122146190D02*
X143367142Y-121646190D01*
X143652857Y-122146190D01*
X143652857Y-121646190D01*
X143890952Y-122146190D02*
X143890952Y-121646190D01*
X144010000Y-121646190D01*
X144081428Y-121670000D01*
X144129047Y-121717619D01*
X144152857Y-121765238D01*
X144176666Y-121860476D01*
X144176666Y-121931904D01*
X144152857Y-122027142D01*
X144129047Y-122074761D01*
X144081428Y-122122380D01*
X144010000Y-122146190D01*
X143890952Y-122146190D01*
D11*
X136465000Y-85030000D02*
X136465000Y-90230000D01*
X144145000Y-85030000D02*
X136465000Y-85030000D01*
X146745000Y-90230000D02*
X136465000Y-90230000D01*
X144145000Y-85030000D02*
X144145000Y-87630000D01*
X144145000Y-87630000D02*
X146745000Y-87630000D01*
X146745000Y-87630000D02*
X146745000Y-90230000D01*
X145415000Y-85030000D02*
X146745000Y-85030000D01*
X146745000Y-85030000D02*
X146745000Y-86360000D01*
X142180000Y-118050000D02*
X142180000Y-120710000D01*
X152400000Y-118050000D02*
X142180000Y-118050000D01*
X152400000Y-120710000D02*
X142180000Y-120710000D01*
X152400000Y-118050000D02*
X152400000Y-120710000D01*
X153670000Y-118050000D02*
X155000000Y-118050000D01*
X155000000Y-118050000D02*
X155000000Y-119380000D01*
D12*
X161770000Y-119380000D02*
G75*
G03X161770000Y-119380000I-1750000J0D01*
G01*
X168120000Y-119380000D02*
G75*
G03X168120000Y-119380000I-1750000J0D01*
G01*
X114526000Y-87249000D02*
G75*
G03X114526000Y-87249000I-1750000J0D01*
G01*
X108956000Y-87249000D02*
G75*
G03X108956000Y-87249000I-1750000J0D01*
G01*
X133195000Y-119416000D02*
G75*
G03X133195000Y-119416000I-1750000J0D01*
G01*
X139545000Y-119416000D02*
G75*
G03X139545000Y-119416000I-1750000J0D01*
G01*
D13*
X139868670Y-96256000D02*
G75*
G03X139868670Y-96256000I-59670J0D01*
G01*
X141620000Y-98005000D02*
X141620000Y-100005000D01*
X146820000Y-98005000D02*
X146820000Y-100005000D01*
X141620000Y-101605000D02*
X146820000Y-101605000D01*
X141620000Y-96405000D02*
X146820000Y-96405000D01*
D11*
X154060000Y-90516000D02*
X154060000Y-89316000D01*
X155820000Y-89316000D02*
X155820000Y-90516000D01*
X151520000Y-90516000D02*
X151520000Y-89316000D01*
X153280000Y-89316000D02*
X153280000Y-90516000D01*
X148980000Y-90516000D02*
X148980000Y-89316000D01*
X150740000Y-89316000D02*
X150740000Y-90516000D01*
X158810000Y-87690000D02*
X158810000Y-85030000D01*
X151130000Y-87690000D02*
X158810000Y-87690000D01*
X151130000Y-85030000D02*
X158810000Y-85030000D01*
X151130000Y-87690000D02*
X151130000Y-85030000D01*
X149860000Y-87690000D02*
X148530000Y-87690000D01*
X148530000Y-87690000D02*
X148530000Y-86360000D01*
X134680000Y-90230000D02*
X134680000Y-85030000D01*
X121920000Y-90230000D02*
X134680000Y-90230000D01*
X119320000Y-85030000D02*
X134680000Y-85030000D01*
X121920000Y-90230000D02*
X121920000Y-87630000D01*
X121920000Y-87630000D02*
X119320000Y-87630000D01*
X119320000Y-87630000D02*
X119320000Y-85030000D01*
X120650000Y-90230000D02*
X119320000Y-90230000D01*
X119320000Y-90230000D02*
X119320000Y-88900000D01*
D14*
X111633300Y-116605000D02*
G75*
G03X111633300Y-116605000I-142300J0D01*
G01*
D15*
X109730000Y-113870000D02*
X109730000Y-114730000D01*
X109730000Y-111330000D02*
X109730000Y-112190000D01*
X109730000Y-108790000D02*
X109730000Y-109650000D01*
X109730000Y-106250000D02*
X109730000Y-107110000D01*
X109730000Y-103710000D02*
X109730000Y-104570000D01*
X93730000Y-113870000D02*
X93730000Y-114730000D01*
X93730000Y-111330000D02*
X93730000Y-112190000D01*
X93730000Y-108790000D02*
X93730000Y-109650000D01*
X93730000Y-106250000D02*
X93730000Y-107110000D01*
X93730000Y-103710000D02*
X93730000Y-104570000D01*
X93730000Y-117220000D02*
X109730000Y-117220000D01*
X93730000Y-101220000D02*
X109730000Y-101220000D01*
D11*
X150710000Y-98671000D02*
X150710000Y-97671000D01*
X149010000Y-97671000D02*
X149010000Y-98671000D01*
X118833000Y-106926000D02*
X118833000Y-105926000D01*
X117133000Y-105926000D02*
X117133000Y-106926000D01*
X120992000Y-106926000D02*
X120992000Y-105926000D01*
X119292000Y-105926000D02*
X119292000Y-106926000D01*
D12*
X160567619Y-86026666D02*
X159853333Y-86026666D01*
X159710476Y-85979047D01*
X159615238Y-85883809D01*
X159567619Y-85740952D01*
X159567619Y-85645714D01*
X159567619Y-87026666D02*
X159567619Y-86455238D01*
X159567619Y-86740952D02*
X160567619Y-86740952D01*
X160424761Y-86645714D01*
X160329523Y-86550476D01*
X160281904Y-86455238D01*
X148256666Y-116038380D02*
X148256666Y-116752666D01*
X148209047Y-116895523D01*
X148113809Y-116990761D01*
X147970952Y-117038380D01*
X147875714Y-117038380D01*
X149209047Y-116038380D02*
X148732857Y-116038380D01*
X148685238Y-116514571D01*
X148732857Y-116466952D01*
X148828095Y-116419333D01*
X149066190Y-116419333D01*
X149161428Y-116466952D01*
X149209047Y-116514571D01*
X149256666Y-116609809D01*
X149256666Y-116847904D01*
X149209047Y-116943142D01*
X149161428Y-116990761D01*
X149066190Y-117038380D01*
X148828095Y-117038380D01*
X148732857Y-116990761D01*
X148685238Y-116943142D01*
D10*
X159150952Y-121900190D02*
X159436666Y-121900190D01*
X159293809Y-122400190D02*
X159293809Y-121900190D01*
X159603333Y-122400190D02*
X159603333Y-121900190D01*
X159793809Y-121900190D01*
X159841428Y-121924000D01*
X159865238Y-121947809D01*
X159889047Y-121995428D01*
X159889047Y-122066857D01*
X159865238Y-122114476D01*
X159841428Y-122138285D01*
X159793809Y-122162095D01*
X159603333Y-122162095D01*
X160365238Y-122400190D02*
X160079523Y-122400190D01*
X160222380Y-122400190D02*
X160222380Y-121900190D01*
X160174761Y-121971619D01*
X160127142Y-122019238D01*
X160079523Y-122043047D01*
X160817619Y-121900190D02*
X160579523Y-121900190D01*
X160555714Y-122138285D01*
X160579523Y-122114476D01*
X160627142Y-122090666D01*
X160746190Y-122090666D01*
X160793809Y-122114476D01*
X160817619Y-122138285D01*
X160841428Y-122185904D01*
X160841428Y-122304952D01*
X160817619Y-122352571D01*
X160793809Y-122376380D01*
X160746190Y-122400190D01*
X160627142Y-122400190D01*
X160579523Y-122376380D01*
X160555714Y-122352571D01*
X165500952Y-121900190D02*
X165786666Y-121900190D01*
X165643809Y-122400190D02*
X165643809Y-121900190D01*
X165953333Y-122400190D02*
X165953333Y-121900190D01*
X166143809Y-121900190D01*
X166191428Y-121924000D01*
X166215238Y-121947809D01*
X166239047Y-121995428D01*
X166239047Y-122066857D01*
X166215238Y-122114476D01*
X166191428Y-122138285D01*
X166143809Y-122162095D01*
X165953333Y-122162095D01*
X166715238Y-122400190D02*
X166429523Y-122400190D01*
X166572380Y-122400190D02*
X166572380Y-121900190D01*
X166524761Y-121971619D01*
X166477142Y-122019238D01*
X166429523Y-122043047D01*
X166881904Y-121900190D02*
X167191428Y-121900190D01*
X167024761Y-122090666D01*
X167096190Y-122090666D01*
X167143809Y-122114476D01*
X167167619Y-122138285D01*
X167191428Y-122185904D01*
X167191428Y-122304952D01*
X167167619Y-122352571D01*
X167143809Y-122376380D01*
X167096190Y-122400190D01*
X166953333Y-122400190D01*
X166905714Y-122376380D01*
X166881904Y-122352571D01*
X113645047Y-84728809D02*
X113359333Y-84728809D01*
X113502190Y-84228809D02*
X113502190Y-84728809D01*
X113192666Y-84228809D02*
X113192666Y-84728809D01*
X113002190Y-84728809D01*
X112954571Y-84705000D01*
X112930761Y-84681190D01*
X112906952Y-84633571D01*
X112906952Y-84562142D01*
X112930761Y-84514523D01*
X112954571Y-84490714D01*
X113002190Y-84466904D01*
X113192666Y-84466904D01*
X112430761Y-84228809D02*
X112716476Y-84228809D01*
X112573619Y-84228809D02*
X112573619Y-84728809D01*
X112621238Y-84657380D01*
X112668857Y-84609761D01*
X112716476Y-84585952D01*
X111954571Y-84228809D02*
X112240285Y-84228809D01*
X112097428Y-84228809D02*
X112097428Y-84728809D01*
X112145047Y-84657380D01*
X112192666Y-84609761D01*
X112240285Y-84585952D01*
X107818952Y-84728809D02*
X107533238Y-84728809D01*
X107676095Y-84228809D02*
X107676095Y-84728809D01*
X107366571Y-84228809D02*
X107366571Y-84728809D01*
X107176095Y-84728809D01*
X107128476Y-84705000D01*
X107104666Y-84681190D01*
X107080857Y-84633571D01*
X107080857Y-84562142D01*
X107104666Y-84514523D01*
X107128476Y-84490714D01*
X107176095Y-84466904D01*
X107366571Y-84466904D01*
X106795142Y-84514523D02*
X106842761Y-84538333D01*
X106866571Y-84562142D01*
X106890380Y-84609761D01*
X106890380Y-84633571D01*
X106866571Y-84681190D01*
X106842761Y-84705000D01*
X106795142Y-84728809D01*
X106699904Y-84728809D01*
X106652285Y-84705000D01*
X106628476Y-84681190D01*
X106604666Y-84633571D01*
X106604666Y-84609761D01*
X106628476Y-84562142D01*
X106652285Y-84538333D01*
X106699904Y-84514523D01*
X106795142Y-84514523D01*
X106842761Y-84490714D01*
X106866571Y-84466904D01*
X106890380Y-84419285D01*
X106890380Y-84324047D01*
X106866571Y-84276428D01*
X106842761Y-84252619D01*
X106795142Y-84228809D01*
X106699904Y-84228809D01*
X106652285Y-84252619D01*
X106628476Y-84276428D01*
X106604666Y-84324047D01*
X106604666Y-84419285D01*
X106628476Y-84466904D01*
X106652285Y-84490714D01*
X106699904Y-84514523D01*
X130814047Y-122190190D02*
X131099761Y-122190190D01*
X130956904Y-122690190D02*
X130956904Y-122190190D01*
X131266428Y-122690190D02*
X131266428Y-122190190D01*
X131456904Y-122190190D01*
X131504523Y-122214000D01*
X131528333Y-122237809D01*
X131552142Y-122285428D01*
X131552142Y-122356857D01*
X131528333Y-122404476D01*
X131504523Y-122428285D01*
X131456904Y-122452095D01*
X131266428Y-122452095D01*
X132004523Y-122190190D02*
X131766428Y-122190190D01*
X131742619Y-122428285D01*
X131766428Y-122404476D01*
X131814047Y-122380666D01*
X131933095Y-122380666D01*
X131980714Y-122404476D01*
X132004523Y-122428285D01*
X132028333Y-122475904D01*
X132028333Y-122594952D01*
X132004523Y-122642571D01*
X131980714Y-122666380D01*
X131933095Y-122690190D01*
X131814047Y-122690190D01*
X131766428Y-122666380D01*
X131742619Y-122642571D01*
X137164047Y-122281190D02*
X137449761Y-122281190D01*
X137306904Y-122781190D02*
X137306904Y-122281190D01*
X137616428Y-122781190D02*
X137616428Y-122281190D01*
X137806904Y-122281190D01*
X137854523Y-122305000D01*
X137878333Y-122328809D01*
X137902142Y-122376428D01*
X137902142Y-122447857D01*
X137878333Y-122495476D01*
X137854523Y-122519285D01*
X137806904Y-122543095D01*
X137616428Y-122543095D01*
X138092619Y-122328809D02*
X138116428Y-122305000D01*
X138164047Y-122281190D01*
X138283095Y-122281190D01*
X138330714Y-122305000D01*
X138354523Y-122328809D01*
X138378333Y-122376428D01*
X138378333Y-122424047D01*
X138354523Y-122495476D01*
X138068809Y-122781190D01*
X138378333Y-122781190D01*
D13*
X141913428Y-102652285D02*
X142094857Y-102712761D01*
X142155333Y-102773238D01*
X142215809Y-102894190D01*
X142215809Y-103075619D01*
X142155333Y-103196571D01*
X142094857Y-103257047D01*
X141973904Y-103317523D01*
X141490095Y-103317523D01*
X141490095Y-102047523D01*
X141913428Y-102047523D01*
X142034380Y-102108000D01*
X142094857Y-102168476D01*
X142155333Y-102289428D01*
X142155333Y-102410380D01*
X142094857Y-102531333D01*
X142034380Y-102591809D01*
X141913428Y-102652285D01*
X141490095Y-102652285D01*
X143304380Y-102470857D02*
X143304380Y-103317523D01*
X142760095Y-102470857D02*
X142760095Y-103136095D01*
X142820571Y-103257047D01*
X142941523Y-103317523D01*
X143122952Y-103317523D01*
X143243904Y-103257047D01*
X143304380Y-103196571D01*
X143727714Y-102470857D02*
X144211523Y-102470857D01*
X143909142Y-102047523D02*
X143909142Y-103136095D01*
X143969619Y-103257047D01*
X144090571Y-103317523D01*
X144211523Y-103317523D01*
X144453428Y-102470857D02*
X144937238Y-102470857D01*
X144634857Y-102047523D02*
X144634857Y-103136095D01*
X144695333Y-103257047D01*
X144816285Y-103317523D01*
X144937238Y-103317523D01*
X145542000Y-103317523D02*
X145421047Y-103257047D01*
X145360571Y-103196571D01*
X145300095Y-103075619D01*
X145300095Y-102712761D01*
X145360571Y-102591809D01*
X145421047Y-102531333D01*
X145542000Y-102470857D01*
X145723428Y-102470857D01*
X145844380Y-102531333D01*
X145904857Y-102591809D01*
X145965333Y-102712761D01*
X145965333Y-103075619D01*
X145904857Y-103196571D01*
X145844380Y-103257047D01*
X145723428Y-103317523D01*
X145542000Y-103317523D01*
X146509619Y-102470857D02*
X146509619Y-103317523D01*
X146509619Y-102591809D02*
X146570095Y-102531333D01*
X146691047Y-102470857D01*
X146872476Y-102470857D01*
X146993428Y-102531333D01*
X147053904Y-102652285D01*
X147053904Y-103317523D01*
D12*
X157043380Y-90082666D02*
X156567190Y-90416000D01*
X157043380Y-90654095D02*
X156043380Y-90654095D01*
X156043380Y-90273142D01*
X156091000Y-90177904D01*
X156138619Y-90130285D01*
X156233857Y-90082666D01*
X156376714Y-90082666D01*
X156471952Y-90130285D01*
X156519571Y-90177904D01*
X156567190Y-90273142D01*
X156567190Y-90654095D01*
X156043380Y-89749333D02*
X156043380Y-89130285D01*
X156424333Y-89463619D01*
X156424333Y-89320761D01*
X156471952Y-89225523D01*
X156519571Y-89177904D01*
X156614809Y-89130285D01*
X156852904Y-89130285D01*
X156948142Y-89177904D01*
X156995761Y-89225523D01*
X157043380Y-89320761D01*
X157043380Y-89606476D01*
X156995761Y-89701714D01*
X156948142Y-89749333D01*
X153582666Y-91749619D02*
X153916000Y-92225809D01*
X154154095Y-91749619D02*
X154154095Y-92749619D01*
X153773142Y-92749619D01*
X153677904Y-92702000D01*
X153630285Y-92654380D01*
X153582666Y-92559142D01*
X153582666Y-92416285D01*
X153630285Y-92321047D01*
X153677904Y-92273428D01*
X153773142Y-92225809D01*
X154154095Y-92225809D01*
X153201714Y-92654380D02*
X153154095Y-92702000D01*
X153058857Y-92749619D01*
X152820761Y-92749619D01*
X152725523Y-92702000D01*
X152677904Y-92654380D01*
X152630285Y-92559142D01*
X152630285Y-92463904D01*
X152677904Y-92321047D01*
X153249333Y-91749619D01*
X152630285Y-91749619D01*
X148788380Y-89955666D02*
X148312190Y-90289000D01*
X148788380Y-90527095D02*
X147788380Y-90527095D01*
X147788380Y-90146142D01*
X147836000Y-90050904D01*
X147883619Y-90003285D01*
X147978857Y-89955666D01*
X148121714Y-89955666D01*
X148216952Y-90003285D01*
X148264571Y-90050904D01*
X148312190Y-90146142D01*
X148312190Y-90527095D01*
X148788380Y-89003285D02*
X148788380Y-89574714D01*
X148788380Y-89289000D02*
X147788380Y-89289000D01*
X147931238Y-89384238D01*
X148026476Y-89479476D01*
X148074095Y-89574714D01*
X141684333Y-93257619D02*
X141684333Y-92543333D01*
X141731952Y-92400476D01*
X141827190Y-92305238D01*
X141970047Y-92257619D01*
X142065285Y-92257619D01*
X140779571Y-92924285D02*
X140779571Y-92257619D01*
X141017666Y-93305238D02*
X141255761Y-92590952D01*
X140636714Y-92590952D01*
X127333333Y-94273619D02*
X127333333Y-93559333D01*
X127380952Y-93416476D01*
X127476190Y-93321238D01*
X127619047Y-93273619D01*
X127714285Y-93273619D01*
X126904761Y-94178380D02*
X126857142Y-94226000D01*
X126761904Y-94273619D01*
X126523809Y-94273619D01*
X126428571Y-94226000D01*
X126380952Y-94178380D01*
X126333333Y-94083142D01*
X126333333Y-93987904D01*
X126380952Y-93845047D01*
X126952380Y-93273619D01*
X126333333Y-93273619D01*
D13*
X98316142Y-116906523D02*
X97711380Y-116906523D01*
X97711380Y-115636523D01*
X98920904Y-116180809D02*
X98799952Y-116120333D01*
X98739476Y-116059857D01*
X98679000Y-115938904D01*
X98679000Y-115878428D01*
X98739476Y-115757476D01*
X98799952Y-115697000D01*
X98920904Y-115636523D01*
X99162809Y-115636523D01*
X99283761Y-115697000D01*
X99344238Y-115757476D01*
X99404714Y-115878428D01*
X99404714Y-115938904D01*
X99344238Y-116059857D01*
X99283761Y-116120333D01*
X99162809Y-116180809D01*
X98920904Y-116180809D01*
X98799952Y-116241285D01*
X98739476Y-116301761D01*
X98679000Y-116422714D01*
X98679000Y-116664619D01*
X98739476Y-116785571D01*
X98799952Y-116846047D01*
X98920904Y-116906523D01*
X99162809Y-116906523D01*
X99283761Y-116846047D01*
X99344238Y-116785571D01*
X99404714Y-116664619D01*
X99404714Y-116422714D01*
X99344238Y-116301761D01*
X99283761Y-116241285D01*
X99162809Y-116180809D01*
X100493285Y-115636523D02*
X100251380Y-115636523D01*
X100130428Y-115697000D01*
X100069952Y-115757476D01*
X99949000Y-115938904D01*
X99888523Y-116180809D01*
X99888523Y-116664619D01*
X99949000Y-116785571D01*
X100009476Y-116846047D01*
X100130428Y-116906523D01*
X100372333Y-116906523D01*
X100493285Y-116846047D01*
X100553761Y-116785571D01*
X100614238Y-116664619D01*
X100614238Y-116362238D01*
X100553761Y-116241285D01*
X100493285Y-116180809D01*
X100372333Y-116120333D01*
X100130428Y-116120333D01*
X100009476Y-116180809D01*
X99949000Y-116241285D01*
X99888523Y-116362238D01*
X101158523Y-116422714D02*
X102126142Y-116422714D01*
X102730904Y-116906523D02*
X102730904Y-115636523D01*
X103154238Y-116543666D01*
X103577571Y-115636523D01*
X103577571Y-116906523D01*
X104061380Y-115636523D02*
X104847571Y-115636523D01*
X104424238Y-116120333D01*
X104605666Y-116120333D01*
X104726619Y-116180809D01*
X104787095Y-116241285D01*
X104847571Y-116362238D01*
X104847571Y-116664619D01*
X104787095Y-116785571D01*
X104726619Y-116846047D01*
X104605666Y-116906523D01*
X104242809Y-116906523D01*
X104121857Y-116846047D01*
X104061380Y-116785571D01*
X105270904Y-115636523D02*
X106057095Y-115636523D01*
X105633761Y-116120333D01*
X105815190Y-116120333D01*
X105936142Y-116180809D01*
X105996619Y-116241285D01*
X106057095Y-116362238D01*
X106057095Y-116664619D01*
X105996619Y-116785571D01*
X105936142Y-116846047D01*
X105815190Y-116906523D01*
X105452333Y-116906523D01*
X105331380Y-116846047D01*
X105270904Y-116785571D01*
D12*
X191008095Y-82782380D02*
X191008095Y-81782380D01*
X191008095Y-82258571D02*
X191579523Y-82258571D01*
X191579523Y-82782380D02*
X191579523Y-81782380D01*
X192008095Y-81877619D02*
X192055714Y-81830000D01*
X192150952Y-81782380D01*
X192389047Y-81782380D01*
X192484285Y-81830000D01*
X192531904Y-81877619D01*
X192579523Y-81972857D01*
X192579523Y-82068095D01*
X192531904Y-82210952D01*
X191960476Y-82782380D01*
X192579523Y-82782380D01*
X151717142Y-98337666D02*
X151764761Y-98385285D01*
X151812380Y-98528142D01*
X151812380Y-98623380D01*
X151764761Y-98766238D01*
X151669523Y-98861476D01*
X151574285Y-98909095D01*
X151383809Y-98956714D01*
X151240952Y-98956714D01*
X151050476Y-98909095D01*
X150955238Y-98861476D01*
X150860000Y-98766238D01*
X150812380Y-98623380D01*
X150812380Y-98528142D01*
X150860000Y-98385285D01*
X150907619Y-98337666D01*
X150812380Y-97480523D02*
X150812380Y-97671000D01*
X150860000Y-97766238D01*
X150907619Y-97813857D01*
X151050476Y-97909095D01*
X151240952Y-97956714D01*
X151621904Y-97956714D01*
X151717142Y-97909095D01*
X151764761Y-97861476D01*
X151812380Y-97766238D01*
X151812380Y-97575761D01*
X151764761Y-97480523D01*
X151717142Y-97432904D01*
X151621904Y-97385285D01*
X151383809Y-97385285D01*
X151288571Y-97432904D01*
X151240952Y-97480523D01*
X151193333Y-97575761D01*
X151193333Y-97766238D01*
X151240952Y-97861476D01*
X151288571Y-97909095D01*
X151383809Y-97956714D01*
X117816333Y-104497142D02*
X117768714Y-104544761D01*
X117625857Y-104592380D01*
X117530619Y-104592380D01*
X117387761Y-104544761D01*
X117292523Y-104449523D01*
X117244904Y-104354285D01*
X117197285Y-104163809D01*
X117197285Y-104020952D01*
X117244904Y-103830476D01*
X117292523Y-103735238D01*
X117387761Y-103640000D01*
X117530619Y-103592380D01*
X117625857Y-103592380D01*
X117768714Y-103640000D01*
X117816333Y-103687619D01*
X118721095Y-103592380D02*
X118244904Y-103592380D01*
X118197285Y-104068571D01*
X118244904Y-104020952D01*
X118340142Y-103973333D01*
X118578238Y-103973333D01*
X118673476Y-104020952D01*
X118721095Y-104068571D01*
X118768714Y-104163809D01*
X118768714Y-104401904D01*
X118721095Y-104497142D01*
X118673476Y-104544761D01*
X118578238Y-104592380D01*
X118340142Y-104592380D01*
X118244904Y-104544761D01*
X118197285Y-104497142D01*
X119975333Y-104497142D02*
X119927714Y-104544761D01*
X119784857Y-104592380D01*
X119689619Y-104592380D01*
X119546761Y-104544761D01*
X119451523Y-104449523D01*
X119403904Y-104354285D01*
X119356285Y-104163809D01*
X119356285Y-104020952D01*
X119403904Y-103830476D01*
X119451523Y-103735238D01*
X119546761Y-103640000D01*
X119689619Y-103592380D01*
X119784857Y-103592380D01*
X119927714Y-103640000D01*
X119975333Y-103687619D01*
X120832476Y-103925714D02*
X120832476Y-104592380D01*
X120594380Y-103544761D02*
X120356285Y-104259047D01*
X120975333Y-104259047D01*
M02*
