G04 #@! TF.GenerationSoftware,KiCad,Pcbnew,(5.1.4)-1*
G04 #@! TF.CreationDate,2020-11-02T02:01:27-05:00*
G04 #@! TF.ProjectId,remote_racing_pcb,72656d6f-7465-45f7-9261-63696e675f70,rev?*
G04 #@! TF.SameCoordinates,Original*
G04 #@! TF.FileFunction,Copper,L2,Bot*
G04 #@! TF.FilePolarity,Positive*
%FSLAX46Y46*%
G04 Gerber Fmt 4.6, Leading zero omitted, Abs format (unit mm)*
G04 Created by KiCad (PCBNEW (5.1.4)-1) date 2020-11-02 02:01:27*
%MOMM*%
%LPD*%
G04 APERTURE LIST*
%ADD10R,1.700000X1.700000*%
%ADD11O,1.700000X1.700000*%
%ADD12R,1.200000X0.300000*%
%ADD13R,0.300000X1.200000*%
%ADD14C,2.800000*%
%ADD15R,1.300000X0.700000*%
%ADD16R,1.250000X1.000000*%
%ADD17R,1.000000X1.250000*%
%ADD18R,0.305000X0.813000*%
%ADD19R,0.813000X0.305000*%
%ADD20C,0.800000*%
%ADD21C,0.250000*%
%ADD22C,0.254000*%
G04 APERTURE END LIST*
D10*
X145415000Y-86360000D03*
D11*
X145415000Y-88900000D03*
X142875000Y-86360000D03*
X142875000Y-88900000D03*
X140335000Y-86360000D03*
X140335000Y-88900000D03*
X137795000Y-86360000D03*
X137795000Y-88900000D03*
D10*
X153670000Y-119380000D03*
D11*
X151130000Y-119380000D03*
X148590000Y-119380000D03*
X146050000Y-119380000D03*
X143510000Y-119380000D03*
D12*
X147355000Y-105985000D03*
X147355000Y-105485000D03*
X147355000Y-104985000D03*
X147355000Y-104485000D03*
X147355000Y-103985000D03*
X147355000Y-103485000D03*
X147355000Y-102985000D03*
X147355000Y-102485000D03*
X147355000Y-101985000D03*
X147355000Y-101485000D03*
X147355000Y-100985000D03*
X147355000Y-100485000D03*
X147355000Y-99985000D03*
X147355000Y-99485000D03*
X147355000Y-98985000D03*
X147355000Y-98485000D03*
D13*
X145355000Y-96485000D03*
X144855000Y-96485000D03*
X144355000Y-96485000D03*
X143855000Y-96485000D03*
X143355000Y-96485000D03*
X142855000Y-96485000D03*
X142355000Y-96485000D03*
X141855000Y-96485000D03*
X141355000Y-96485000D03*
X140855000Y-96485000D03*
X140355000Y-96485000D03*
X139855000Y-96485000D03*
X139355000Y-96485000D03*
X138855000Y-96485000D03*
X138355000Y-96485000D03*
X137855000Y-96485000D03*
D12*
X135855000Y-98485000D03*
X135855000Y-98985000D03*
X135855000Y-99485000D03*
X135855000Y-99985000D03*
X135855000Y-100485000D03*
X135855000Y-100985000D03*
X135855000Y-101485000D03*
X135855000Y-101985000D03*
X135855000Y-102485000D03*
X135855000Y-102985000D03*
X135855000Y-103485000D03*
X135855000Y-103985000D03*
X135855000Y-104485000D03*
X135855000Y-104985000D03*
X135855000Y-105485000D03*
D13*
X137855000Y-107985000D03*
X138355000Y-107985000D03*
X138855000Y-107985000D03*
X139355000Y-107985000D03*
X139855000Y-107985000D03*
X140355000Y-107985000D03*
X140855000Y-107985000D03*
X141355000Y-107985000D03*
X141855000Y-107985000D03*
X142355000Y-107985000D03*
X142855000Y-107985000D03*
X143355000Y-107985000D03*
X143855000Y-107985000D03*
X144355000Y-107985000D03*
X144855000Y-107985000D03*
X145355000Y-107985000D03*
D12*
X135855000Y-105985000D03*
D11*
X184150000Y-86360000D03*
X184150000Y-88900000D03*
X184150000Y-91440000D03*
X184150000Y-93980000D03*
X184150000Y-96520000D03*
X184150000Y-99060000D03*
X184150000Y-101600000D03*
X184150000Y-104140000D03*
X184150000Y-106680000D03*
X184150000Y-109220000D03*
X184150000Y-111760000D03*
D10*
X184150000Y-114300000D03*
D11*
X168910000Y-86360000D03*
D10*
X168910000Y-114300000D03*
D11*
X168910000Y-99060000D03*
X168910000Y-101600000D03*
X168910000Y-91440000D03*
X168910000Y-88900000D03*
X168910000Y-111760000D03*
X168910000Y-96520000D03*
X168910000Y-93980000D03*
D14*
X160020000Y-119380000D03*
X166370000Y-119380000D03*
X112776000Y-87249000D03*
X107206000Y-87249000D03*
X131445000Y-119416000D03*
X137795000Y-119416000D03*
D15*
X162560000Y-105344000D03*
X162560000Y-103444000D03*
D10*
X149860000Y-86360000D03*
D11*
X152400000Y-86360000D03*
X154940000Y-86360000D03*
X157480000Y-86360000D03*
D10*
X153035000Y-99695000D03*
D11*
X155575000Y-99695000D03*
X153035000Y-97155000D03*
X155575000Y-97155000D03*
X153035000Y-94615000D03*
X155575000Y-94615000D03*
D10*
X120650000Y-88900000D03*
D11*
X120650000Y-86360000D03*
X123190000Y-88900000D03*
X123190000Y-86360000D03*
X125730000Y-88900000D03*
X125730000Y-86360000D03*
X128270000Y-88900000D03*
X128270000Y-86360000D03*
X130810000Y-88900000D03*
X130810000Y-86360000D03*
X133350000Y-88900000D03*
X133350000Y-86360000D03*
D16*
X151130000Y-107680000D03*
X151130000Y-105680000D03*
D17*
X139589000Y-109982000D03*
X141589000Y-109982000D03*
D16*
X149225000Y-107680000D03*
X149225000Y-105680000D03*
D17*
X139589000Y-111887000D03*
X141589000Y-111887000D03*
D16*
X133985000Y-96663000D03*
X133985000Y-98663000D03*
D17*
X159290000Y-108966000D03*
X161290000Y-108966000D03*
D16*
X155194000Y-106156000D03*
X155194000Y-104156000D03*
X153289000Y-106156000D03*
X153289000Y-104156000D03*
D18*
X158250000Y-107066000D03*
X158750000Y-107066000D03*
X159250000Y-107066000D03*
D19*
X160025000Y-106791000D03*
X160025000Y-106291000D03*
X160025000Y-105791000D03*
X160025000Y-105291000D03*
X160025000Y-104791000D03*
D18*
X159250000Y-104516000D03*
X158750000Y-104516000D03*
X158250000Y-104516000D03*
D19*
X157475000Y-104791000D03*
X157475000Y-105291000D03*
X157475000Y-105791000D03*
X157475000Y-106291000D03*
X157475000Y-106791000D03*
D20*
X134075000Y-95250000D03*
X121920000Y-105410000D03*
X161036000Y-105410000D03*
X158304999Y-103291693D03*
X151458123Y-104077818D03*
X162560000Y-108966000D03*
X134975676Y-97803982D03*
X141605000Y-113284000D03*
X146050000Y-105701001D03*
X161036000Y-104409997D03*
X159159853Y-102719227D03*
X143510000Y-105410000D03*
X144145000Y-106426001D03*
X136588500Y-110617000D03*
X136588500Y-111617003D03*
X117919500Y-102870000D03*
X117983000Y-113030000D03*
X118008400Y-114604800D03*
X144340153Y-99890153D03*
X145159498Y-99070807D03*
X145923000Y-98425000D03*
D21*
X139355000Y-109748000D02*
X139589000Y-109982000D01*
X139355000Y-107985000D02*
X139355000Y-109748000D01*
X135855000Y-98485000D02*
X135855000Y-97882000D01*
X134604000Y-96663000D02*
X133985000Y-96663000D01*
X135855000Y-97658000D02*
X135855000Y-97882000D01*
X134860000Y-96663000D02*
X135855000Y-97658000D01*
X133985000Y-96663000D02*
X134860000Y-96663000D01*
X159250000Y-108926000D02*
X159290000Y-108966000D01*
X159250000Y-107066000D02*
X159250000Y-108926000D01*
X134075000Y-96573000D02*
X133985000Y-96663000D01*
X134075000Y-95250000D02*
X134075000Y-96573000D01*
X157475000Y-107193500D02*
X156845000Y-107823500D01*
X157475000Y-106791000D02*
X157475000Y-107193500D01*
X145355000Y-107985000D02*
X146015000Y-107985000D01*
X147355000Y-105985000D02*
X147355000Y-106645000D01*
X160025000Y-105791000D02*
X160655000Y-105791000D01*
X160655000Y-105791000D02*
X161036000Y-105410000D01*
X147355000Y-102985000D02*
X149889000Y-102985000D01*
X149889000Y-102985000D02*
X150093010Y-102780990D01*
X150093010Y-102780990D02*
X157794296Y-102780990D01*
X157794296Y-102780990D02*
X158304999Y-103291693D01*
X160681500Y-106291000D02*
X160025000Y-106291000D01*
X161290000Y-108966000D02*
X161290000Y-106899500D01*
X161290000Y-106899500D02*
X160681500Y-106291000D01*
X141589000Y-109857000D02*
X141589000Y-109982000D01*
X140642001Y-108910001D02*
X141589000Y-109857000D01*
X139944999Y-108910001D02*
X140642001Y-108910001D01*
X139855000Y-108820002D02*
X139944999Y-108910001D01*
X139855000Y-107985000D02*
X139855000Y-108820002D01*
X149030000Y-105485000D02*
X149225000Y-105680000D01*
X147355000Y-105485000D02*
X149030000Y-105485000D01*
X151130000Y-105680000D02*
X149225000Y-105680000D01*
X134307000Y-98985000D02*
X133985000Y-98663000D01*
X135855000Y-98985000D02*
X134307000Y-98985000D01*
X155829000Y-104791000D02*
X155194000Y-104156000D01*
X153289000Y-104156000D02*
X155194000Y-104156000D01*
X157475000Y-104791000D02*
X155829000Y-104791000D01*
X147379999Y-104009999D02*
X147355000Y-103985000D01*
X151579941Y-103956000D02*
X151458123Y-104077818D01*
X151365305Y-103985000D02*
X151458123Y-104077818D01*
X147355000Y-103985000D02*
X151365305Y-103985000D01*
X153210818Y-104077818D02*
X153289000Y-104156000D01*
X151458123Y-104077818D02*
X153210818Y-104077818D01*
X159368500Y-106291000D02*
X160025000Y-106291000D01*
X159293499Y-106215999D02*
X159368500Y-106291000D01*
X159293499Y-105366001D02*
X159293499Y-106215999D01*
X159368500Y-105291000D02*
X159293499Y-105366001D01*
X160025000Y-105291000D02*
X159368500Y-105291000D01*
X161290000Y-108966000D02*
X162560000Y-108966000D01*
X133985000Y-98663000D02*
X134116658Y-98663000D01*
X134116658Y-98663000D02*
X134975676Y-97803982D01*
X141589000Y-109982000D02*
X141589000Y-111887000D01*
X141589000Y-111887000D02*
X141589000Y-113268000D01*
X141589000Y-113268000D02*
X141605000Y-113284000D01*
X147355000Y-105485000D02*
X146266001Y-105485000D01*
X146266001Y-105485000D02*
X146050000Y-105701001D01*
X160025000Y-104791000D02*
X160654997Y-104791000D01*
X160654997Y-104791000D02*
X161036000Y-104409997D01*
X147355000Y-102485000D02*
X149315998Y-102485000D01*
X149629019Y-102330981D02*
X149906610Y-102330980D01*
X149315998Y-102485000D02*
X149475000Y-102485000D01*
X149475000Y-102485000D02*
X149629019Y-102330981D01*
X149906610Y-102330980D02*
X157170890Y-102330980D01*
X157170890Y-102330980D02*
X158771606Y-102330980D01*
X158771606Y-102330980D02*
X159159853Y-102719227D01*
X161660000Y-103444000D02*
X162560000Y-103444000D01*
X159177998Y-103444000D02*
X161660000Y-103444000D01*
X158750000Y-103871998D02*
X159177998Y-103444000D01*
X158750000Y-104516000D02*
X158750000Y-103871998D01*
X158250000Y-104262000D02*
X158250000Y-104516000D01*
X157219000Y-103231000D02*
X158250000Y-104262000D01*
X150977939Y-103485000D02*
X147355000Y-103485000D01*
X157219000Y-103231000D02*
X151231939Y-103231000D01*
X151231939Y-103231000D02*
X150977939Y-103485000D01*
X145435000Y-103485000D02*
X146030000Y-103485000D01*
X143510000Y-105410000D02*
X145435000Y-103485000D01*
X147355000Y-103485000D02*
X146030000Y-103485000D01*
X146030000Y-103485000D02*
X145816000Y-103485000D01*
X157475000Y-105291000D02*
X152713998Y-105291000D01*
X147355000Y-104485000D02*
X150840000Y-104485000D01*
X151209999Y-104854999D02*
X150840000Y-104485000D01*
X152277997Y-104854999D02*
X151209999Y-104854999D01*
X152713998Y-105291000D02*
X152277997Y-104854999D01*
X147355000Y-104485000D02*
X146086001Y-104485000D01*
X146086001Y-104485000D02*
X144145000Y-106426001D01*
X155329000Y-106291000D02*
X155194000Y-106156000D01*
X157475000Y-106291000D02*
X155329000Y-106291000D01*
X136607588Y-110617000D02*
X136588500Y-110617000D01*
X138355000Y-107985000D02*
X138355000Y-108869588D01*
X138355000Y-108869588D02*
X136607588Y-110617000D01*
X138855000Y-109049000D02*
X138112500Y-109791500D01*
X138855000Y-107985000D02*
X138855000Y-109049000D01*
X138326407Y-109577593D02*
X138112500Y-109791500D01*
X136661499Y-111617003D02*
X136588500Y-111617003D01*
X138112500Y-109791500D02*
X138112500Y-110166002D01*
X138112500Y-110166002D02*
X136661499Y-111617003D01*
X111460500Y-91503500D02*
X107206000Y-87249000D01*
X114744500Y-91503500D02*
X111460500Y-91503500D01*
X117919500Y-102870000D02*
X117919500Y-94678500D01*
X117919500Y-94678500D02*
X114744500Y-91503500D01*
X135855000Y-105985000D02*
X134426000Y-105985000D01*
X127381000Y-113030000D02*
X134426000Y-105985000D01*
X117983000Y-113030000D02*
X127381000Y-113030000D01*
X118021100Y-114592100D02*
X118008400Y-114604800D01*
X130045001Y-118016001D02*
X131445000Y-119416000D01*
X126621100Y-114592100D02*
X130045001Y-118016001D01*
X125895100Y-114592100D02*
X126621100Y-114592100D01*
X125895100Y-114592100D02*
X118021100Y-114592100D01*
X131444611Y-109768589D02*
X126621100Y-114592100D01*
X136819589Y-109768589D02*
X131444611Y-109768589D01*
X137879999Y-108708179D02*
X136819589Y-109768589D01*
X137879999Y-108459999D02*
X137879999Y-108708179D01*
X137855000Y-107985000D02*
X137855000Y-108435000D01*
X137855000Y-108435000D02*
X137879999Y-108459999D01*
X144855000Y-110565000D02*
X153670000Y-119380000D01*
X144855000Y-107985000D02*
X144855000Y-110565000D01*
X144355000Y-112605000D02*
X151130000Y-119380000D01*
X144355000Y-107985000D02*
X144355000Y-112605000D01*
X143855000Y-114645000D02*
X148590000Y-119380000D01*
X143855000Y-107985000D02*
X143855000Y-114645000D01*
X143355000Y-116685000D02*
X146050000Y-119380000D01*
X143355000Y-107985000D02*
X143355000Y-116685000D01*
X131777310Y-104485000D02*
X121920000Y-94627690D01*
X135855000Y-104485000D02*
X131777310Y-104485000D01*
X121920000Y-87630000D02*
X123190000Y-86360000D01*
X121920000Y-94627690D02*
X121920000Y-87630000D01*
X123190000Y-90102081D02*
X123190000Y-88900000D01*
X123190000Y-95261280D02*
X123190000Y-90102081D01*
X131913720Y-103985000D02*
X123190000Y-95261280D01*
X135855000Y-103985000D02*
X131913720Y-103985000D01*
X124880001Y-87209999D02*
X125730000Y-86360000D01*
X124554999Y-87535001D02*
X124880001Y-87209999D01*
X124554999Y-95989869D02*
X124554999Y-87535001D01*
X132050130Y-103485000D02*
X124554999Y-95989869D01*
X135855000Y-103485000D02*
X132050130Y-103485000D01*
X125730000Y-90102081D02*
X125730000Y-88900000D01*
X125730000Y-96528460D02*
X125730000Y-90102081D01*
X132186540Y-102985000D02*
X125730000Y-96528460D01*
X135855000Y-102985000D02*
X132186540Y-102985000D01*
X132322950Y-102485000D02*
X127000000Y-97162050D01*
X135855000Y-102485000D02*
X132322950Y-102485000D01*
X127000000Y-87630000D02*
X128270000Y-86360000D01*
X127000000Y-97162050D02*
X127000000Y-87630000D01*
X128270000Y-90102081D02*
X128270000Y-88900000D01*
X128270000Y-97795640D02*
X128270000Y-90102081D01*
X132459360Y-101985000D02*
X128270000Y-97795640D01*
X135855000Y-101985000D02*
X132459360Y-101985000D01*
X132595770Y-101485000D02*
X129540000Y-98429230D01*
X135855000Y-101485000D02*
X132595770Y-101485000D01*
X129540000Y-87630000D02*
X130810000Y-86360000D01*
X129540000Y-98429230D02*
X129540000Y-87630000D01*
X130810000Y-90102081D02*
X130810000Y-88900000D01*
X130810000Y-99062820D02*
X130810000Y-90102081D01*
X132732180Y-100985000D02*
X130810000Y-99062820D01*
X135855000Y-100985000D02*
X132732180Y-100985000D01*
X132868590Y-100485000D02*
X132080000Y-99696410D01*
X135855000Y-100485000D02*
X132868590Y-100485000D01*
X132080000Y-87630000D02*
X133350000Y-86360000D01*
X132080000Y-99696410D02*
X132080000Y-87630000D01*
X133005000Y-99985000D02*
X135855000Y-99985000D01*
X132715000Y-99695000D02*
X133005000Y-99985000D01*
X132715000Y-95885000D02*
X132715000Y-99695000D01*
X133350000Y-88900000D02*
X133350000Y-95250000D01*
X133350000Y-95250000D02*
X132715000Y-95885000D01*
X142355000Y-102149998D02*
X142355000Y-107985000D01*
X142355000Y-100850000D02*
X142355000Y-102149998D01*
X153035000Y-97155000D02*
X146050000Y-97155000D01*
X146050000Y-97155000D02*
X142355000Y-100850000D01*
X148205000Y-98485000D02*
X147355000Y-98485000D01*
X153444002Y-98485000D02*
X148205000Y-98485000D01*
X154210001Y-97719001D02*
X153444002Y-98485000D01*
X154210001Y-95790001D02*
X154210001Y-97719001D01*
X153035000Y-94615000D02*
X154210001Y-95790001D01*
X144355000Y-95635000D02*
X144355000Y-96485000D01*
X146550001Y-93439999D02*
X144355000Y-95635000D01*
X155575000Y-94615000D02*
X154399999Y-93439999D01*
X154399999Y-93439999D02*
X146550001Y-93439999D01*
X147355000Y-99985000D02*
X144435000Y-99985000D01*
X144435000Y-99985000D02*
X144340153Y-99890153D01*
X147355000Y-99485000D02*
X145573691Y-99485000D01*
X145573691Y-99485000D02*
X145159498Y-99070807D01*
X147355000Y-98985000D02*
X146483000Y-98985000D01*
X146483000Y-98985000D02*
X145923000Y-98425000D01*
X167810000Y-114300000D02*
X168910000Y-114300000D01*
X142855000Y-96485000D02*
X142855000Y-95649998D01*
X142855000Y-95649998D02*
X145515009Y-92989989D01*
X145515009Y-92989989D02*
X162457579Y-92989989D01*
X162457579Y-92989989D02*
X166173990Y-96706400D01*
X166173990Y-96706400D02*
X166173990Y-112663990D01*
X166173990Y-112663990D02*
X167810000Y-114300000D01*
X166624000Y-109474000D02*
X168910000Y-111760000D01*
X166624000Y-96520000D02*
X166624000Y-109474000D01*
X162643979Y-92539979D02*
X166624000Y-96520000D01*
X145328609Y-92539979D02*
X162643979Y-92539979D01*
X142355000Y-96485000D02*
X142355000Y-95513588D01*
X142355000Y-95513588D02*
X145328609Y-92539979D01*
X145415000Y-87184998D02*
X145415000Y-86360000D01*
X144239999Y-88359999D02*
X145415000Y-87184998D01*
X144239999Y-91343591D02*
X144239999Y-88359999D01*
X140855000Y-96485000D02*
X140855000Y-94728590D01*
X140855000Y-94728590D02*
X144239999Y-91343591D01*
X145415000Y-90805000D02*
X145415000Y-88900000D01*
X141355000Y-96485000D02*
X141355000Y-94865000D01*
X141355000Y-94865000D02*
X145415000Y-90805000D01*
X141605000Y-87630000D02*
X142875000Y-86360000D01*
X141605000Y-92705770D02*
X141605000Y-87630000D01*
X139855000Y-96485000D02*
X139855000Y-94455770D01*
X139855000Y-94455770D02*
X141605000Y-92705770D01*
X142875000Y-92072180D02*
X142875000Y-88900000D01*
X140355000Y-96485000D02*
X140355000Y-94592180D01*
X140355000Y-94592180D02*
X142875000Y-92072180D01*
X140335000Y-86360000D02*
X139065000Y-87630000D01*
X139065000Y-87630000D02*
X139065000Y-93972950D01*
X138855000Y-95635000D02*
X138855000Y-96485000D01*
X138855000Y-94182950D02*
X138855000Y-95635000D01*
X139065000Y-93972950D02*
X138855000Y-94182950D01*
X140335000Y-93339360D02*
X140335000Y-88900000D01*
X139355000Y-96485000D02*
X139355000Y-94319360D01*
X139355000Y-94319360D02*
X140335000Y-93339360D01*
X136945001Y-87209999D02*
X137795000Y-86360000D01*
X136619999Y-87535001D02*
X136945001Y-87209999D01*
X136619999Y-94399999D02*
X136619999Y-87535001D01*
X137855000Y-95635000D02*
X136619999Y-94399999D01*
X137855000Y-96485000D02*
X137855000Y-95635000D01*
X138355000Y-89460000D02*
X137795000Y-88900000D01*
X138355000Y-96485000D02*
X138355000Y-89460000D01*
D22*
G36*
X192547803Y-83307139D02*
G01*
X193301023Y-83513197D01*
X194005852Y-83849384D01*
X194640002Y-84305065D01*
X195183441Y-84865851D01*
X195618981Y-85514001D01*
X195932862Y-86229043D01*
X196116424Y-86993636D01*
X196165001Y-87655126D01*
X196165000Y-119349494D01*
X196092861Y-120157805D01*
X195886803Y-120911023D01*
X195550616Y-121615852D01*
X195094932Y-122250005D01*
X194534149Y-122793441D01*
X193885996Y-123228982D01*
X193170956Y-123542863D01*
X192406364Y-123726424D01*
X191744887Y-123775000D01*
X91470506Y-123775000D01*
X90662195Y-123702861D01*
X89908977Y-123496803D01*
X89204148Y-123160616D01*
X88569995Y-122704932D01*
X88026559Y-122144149D01*
X87591018Y-121495996D01*
X87277137Y-120780956D01*
X87093576Y-120016364D01*
X87045000Y-119354887D01*
X87045000Y-119105701D01*
X119135000Y-119105701D01*
X119135000Y-119654299D01*
X119242026Y-120192354D01*
X119451965Y-120699192D01*
X119756750Y-121155334D01*
X120144666Y-121543250D01*
X120600808Y-121848035D01*
X121107646Y-122057974D01*
X121645701Y-122165000D01*
X122194299Y-122165000D01*
X122732354Y-122057974D01*
X123239192Y-121848035D01*
X123695334Y-121543250D01*
X124083250Y-121155334D01*
X124388035Y-120699192D01*
X124597974Y-120192354D01*
X124705000Y-119654299D01*
X124705000Y-119105701D01*
X124597974Y-118567646D01*
X124388035Y-118060808D01*
X124083250Y-117604666D01*
X123695334Y-117216750D01*
X123239192Y-116911965D01*
X122732354Y-116702026D01*
X122194299Y-116595000D01*
X121645701Y-116595000D01*
X121107646Y-116702026D01*
X120600808Y-116911965D01*
X120144666Y-117216750D01*
X119756750Y-117604666D01*
X119451965Y-118060808D01*
X119242026Y-118567646D01*
X119135000Y-119105701D01*
X87045000Y-119105701D01*
X87045000Y-112928061D01*
X116948000Y-112928061D01*
X116948000Y-113131939D01*
X116987774Y-113331898D01*
X117065795Y-113520256D01*
X117179063Y-113689774D01*
X117319389Y-113830100D01*
X117204463Y-113945026D01*
X117091195Y-114114544D01*
X117013174Y-114302902D01*
X116973400Y-114502861D01*
X116973400Y-114706739D01*
X117013174Y-114906698D01*
X117091195Y-115095056D01*
X117204463Y-115264574D01*
X117348626Y-115408737D01*
X117518144Y-115522005D01*
X117706502Y-115600026D01*
X117906461Y-115639800D01*
X118110339Y-115639800D01*
X118310298Y-115600026D01*
X118498656Y-115522005D01*
X118668174Y-115408737D01*
X118724811Y-115352100D01*
X126306299Y-115352100D01*
X129533998Y-118579800D01*
X129534003Y-118579804D01*
X129572677Y-118618478D01*
X129488204Y-118822413D01*
X129410000Y-119215570D01*
X129410000Y-119616430D01*
X129488204Y-120009587D01*
X129641607Y-120379934D01*
X129864313Y-120713237D01*
X130147763Y-120996687D01*
X130481066Y-121219393D01*
X130851413Y-121372796D01*
X131244570Y-121451000D01*
X131645430Y-121451000D01*
X132038587Y-121372796D01*
X132408934Y-121219393D01*
X132742237Y-120996687D01*
X133025687Y-120713237D01*
X133248393Y-120379934D01*
X133401796Y-120009587D01*
X133480000Y-119616430D01*
X133480000Y-119215570D01*
X135760000Y-119215570D01*
X135760000Y-119616430D01*
X135838204Y-120009587D01*
X135991607Y-120379934D01*
X136214313Y-120713237D01*
X136497763Y-120996687D01*
X136831066Y-121219393D01*
X137201413Y-121372796D01*
X137594570Y-121451000D01*
X137995430Y-121451000D01*
X138388587Y-121372796D01*
X138758934Y-121219393D01*
X139092237Y-120996687D01*
X139375687Y-120713237D01*
X139598393Y-120379934D01*
X139751796Y-120009587D01*
X139830000Y-119616430D01*
X139830000Y-119215570D01*
X139751796Y-118822413D01*
X139598393Y-118452066D01*
X139375687Y-118118763D01*
X139092237Y-117835313D01*
X138758934Y-117612607D01*
X138388587Y-117459204D01*
X137995430Y-117381000D01*
X137594570Y-117381000D01*
X137201413Y-117459204D01*
X136831066Y-117612607D01*
X136497763Y-117835313D01*
X136214313Y-118118763D01*
X135991607Y-118452066D01*
X135838204Y-118822413D01*
X135760000Y-119215570D01*
X133480000Y-119215570D01*
X133401796Y-118822413D01*
X133248393Y-118452066D01*
X133025687Y-118118763D01*
X132742237Y-117835313D01*
X132408934Y-117612607D01*
X132038587Y-117459204D01*
X131645430Y-117381000D01*
X131244570Y-117381000D01*
X130851413Y-117459204D01*
X130647478Y-117543677D01*
X130608804Y-117505003D01*
X130608800Y-117504998D01*
X127695901Y-114592100D01*
X131759413Y-110528589D01*
X135553500Y-110528589D01*
X135553500Y-110718939D01*
X135593274Y-110918898D01*
X135671295Y-111107256D01*
X135677807Y-111117002D01*
X135671295Y-111126747D01*
X135593274Y-111315105D01*
X135553500Y-111515064D01*
X135553500Y-111718942D01*
X135593274Y-111918901D01*
X135671295Y-112107259D01*
X135784563Y-112276777D01*
X135928726Y-112420940D01*
X136098244Y-112534208D01*
X136286602Y-112612229D01*
X136486561Y-112652003D01*
X136690439Y-112652003D01*
X136890398Y-112612229D01*
X137078756Y-112534208D01*
X137111992Y-112512000D01*
X138450928Y-112512000D01*
X138463188Y-112636482D01*
X138499498Y-112756180D01*
X138558463Y-112866494D01*
X138637815Y-112963185D01*
X138734506Y-113042537D01*
X138844820Y-113101502D01*
X138964518Y-113137812D01*
X139089000Y-113150072D01*
X139303250Y-113147000D01*
X139462000Y-112988250D01*
X139462000Y-112014000D01*
X138612750Y-112014000D01*
X138454000Y-112172750D01*
X138450928Y-112512000D01*
X137111992Y-112512000D01*
X137248274Y-112420940D01*
X137392437Y-112276777D01*
X137505705Y-112107259D01*
X137583726Y-111918901D01*
X137620803Y-111732500D01*
X138500413Y-110852891D01*
X138544034Y-110934500D01*
X138499498Y-111017820D01*
X138463188Y-111137518D01*
X138450928Y-111262000D01*
X138454000Y-111601250D01*
X138612750Y-111760000D01*
X139462000Y-111760000D01*
X139462000Y-110109000D01*
X139442000Y-110109000D01*
X139442000Y-109855000D01*
X139462000Y-109855000D01*
X139462000Y-109835000D01*
X139716000Y-109835000D01*
X139716000Y-109855000D01*
X139736000Y-109855000D01*
X139736000Y-110109000D01*
X139716000Y-110109000D01*
X139716000Y-111760000D01*
X139736000Y-111760000D01*
X139736000Y-112014000D01*
X139716000Y-112014000D01*
X139716000Y-112988250D01*
X139874750Y-113147000D01*
X140089000Y-113150072D01*
X140213482Y-113137812D01*
X140333180Y-113101502D01*
X140443494Y-113042537D01*
X140540185Y-112963185D01*
X140589000Y-112903704D01*
X140624387Y-112946823D01*
X140609774Y-112982102D01*
X140570000Y-113182061D01*
X140570000Y-113385939D01*
X140609774Y-113585898D01*
X140687795Y-113774256D01*
X140801063Y-113943774D01*
X140945226Y-114087937D01*
X141114744Y-114201205D01*
X141303102Y-114279226D01*
X141503061Y-114319000D01*
X141706939Y-114319000D01*
X141906898Y-114279226D01*
X142095256Y-114201205D01*
X142264774Y-114087937D01*
X142408937Y-113943774D01*
X142522205Y-113774256D01*
X142595001Y-113598513D01*
X142595001Y-116647668D01*
X142591324Y-116685000D01*
X142605998Y-116833985D01*
X142649454Y-116977246D01*
X142720026Y-117109276D01*
X142791201Y-117196002D01*
X142815000Y-117225001D01*
X142843998Y-117248799D01*
X143490199Y-117895000D01*
X143437050Y-117895000D01*
X143218889Y-117916487D01*
X142938966Y-118001401D01*
X142680986Y-118139294D01*
X142454866Y-118324866D01*
X142269294Y-118550986D01*
X142131401Y-118808966D01*
X142046487Y-119088889D01*
X142017815Y-119380000D01*
X142046487Y-119671111D01*
X142131401Y-119951034D01*
X142269294Y-120209014D01*
X142454866Y-120435134D01*
X142680986Y-120620706D01*
X142938966Y-120758599D01*
X143218889Y-120843513D01*
X143437050Y-120865000D01*
X143582950Y-120865000D01*
X143801111Y-120843513D01*
X144081034Y-120758599D01*
X144339014Y-120620706D01*
X144565134Y-120435134D01*
X144750706Y-120209014D01*
X144780000Y-120154209D01*
X144809294Y-120209014D01*
X144994866Y-120435134D01*
X145220986Y-120620706D01*
X145478966Y-120758599D01*
X145758889Y-120843513D01*
X145977050Y-120865000D01*
X146122950Y-120865000D01*
X146341111Y-120843513D01*
X146621034Y-120758599D01*
X146879014Y-120620706D01*
X147105134Y-120435134D01*
X147290706Y-120209014D01*
X147320000Y-120154209D01*
X147349294Y-120209014D01*
X147534866Y-120435134D01*
X147760986Y-120620706D01*
X148018966Y-120758599D01*
X148298889Y-120843513D01*
X148517050Y-120865000D01*
X148662950Y-120865000D01*
X148881111Y-120843513D01*
X149161034Y-120758599D01*
X149419014Y-120620706D01*
X149645134Y-120435134D01*
X149830706Y-120209014D01*
X149860000Y-120154209D01*
X149889294Y-120209014D01*
X150074866Y-120435134D01*
X150300986Y-120620706D01*
X150558966Y-120758599D01*
X150838889Y-120843513D01*
X151057050Y-120865000D01*
X151202950Y-120865000D01*
X151421111Y-120843513D01*
X151701034Y-120758599D01*
X151959014Y-120620706D01*
X152185134Y-120435134D01*
X152209607Y-120405313D01*
X152230498Y-120474180D01*
X152289463Y-120584494D01*
X152368815Y-120681185D01*
X152465506Y-120760537D01*
X152575820Y-120819502D01*
X152695518Y-120855812D01*
X152820000Y-120868072D01*
X154520000Y-120868072D01*
X154644482Y-120855812D01*
X154764180Y-120819502D01*
X154874494Y-120760537D01*
X154971185Y-120681185D01*
X155050537Y-120584494D01*
X155109502Y-120474180D01*
X155145812Y-120354482D01*
X155158072Y-120230000D01*
X155158072Y-119179570D01*
X157985000Y-119179570D01*
X157985000Y-119580430D01*
X158063204Y-119973587D01*
X158216607Y-120343934D01*
X158439313Y-120677237D01*
X158722763Y-120960687D01*
X159056066Y-121183393D01*
X159426413Y-121336796D01*
X159819570Y-121415000D01*
X160220430Y-121415000D01*
X160613587Y-121336796D01*
X160983934Y-121183393D01*
X161317237Y-120960687D01*
X161600687Y-120677237D01*
X161823393Y-120343934D01*
X161976796Y-119973587D01*
X162055000Y-119580430D01*
X162055000Y-119179570D01*
X164335000Y-119179570D01*
X164335000Y-119580430D01*
X164413204Y-119973587D01*
X164566607Y-120343934D01*
X164789313Y-120677237D01*
X165072763Y-120960687D01*
X165406066Y-121183393D01*
X165776413Y-121336796D01*
X166169570Y-121415000D01*
X166570430Y-121415000D01*
X166963587Y-121336796D01*
X167333934Y-121183393D01*
X167667237Y-120960687D01*
X167950687Y-120677237D01*
X168173393Y-120343934D01*
X168326796Y-119973587D01*
X168405000Y-119580430D01*
X168405000Y-119179570D01*
X168390307Y-119105701D01*
X188985000Y-119105701D01*
X188985000Y-119654299D01*
X189092026Y-120192354D01*
X189301965Y-120699192D01*
X189606750Y-121155334D01*
X189994666Y-121543250D01*
X190450808Y-121848035D01*
X190957646Y-122057974D01*
X191495701Y-122165000D01*
X192044299Y-122165000D01*
X192582354Y-122057974D01*
X193089192Y-121848035D01*
X193545334Y-121543250D01*
X193933250Y-121155334D01*
X194238035Y-120699192D01*
X194447974Y-120192354D01*
X194555000Y-119654299D01*
X194555000Y-119105701D01*
X194447974Y-118567646D01*
X194238035Y-118060808D01*
X193933250Y-117604666D01*
X193545334Y-117216750D01*
X193089192Y-116911965D01*
X192582354Y-116702026D01*
X192044299Y-116595000D01*
X191495701Y-116595000D01*
X190957646Y-116702026D01*
X190450808Y-116911965D01*
X189994666Y-117216750D01*
X189606750Y-117604666D01*
X189301965Y-118060808D01*
X189092026Y-118567646D01*
X188985000Y-119105701D01*
X168390307Y-119105701D01*
X168326796Y-118786413D01*
X168173393Y-118416066D01*
X167950687Y-118082763D01*
X167667237Y-117799313D01*
X167333934Y-117576607D01*
X166963587Y-117423204D01*
X166570430Y-117345000D01*
X166169570Y-117345000D01*
X165776413Y-117423204D01*
X165406066Y-117576607D01*
X165072763Y-117799313D01*
X164789313Y-118082763D01*
X164566607Y-118416066D01*
X164413204Y-118786413D01*
X164335000Y-119179570D01*
X162055000Y-119179570D01*
X161976796Y-118786413D01*
X161823393Y-118416066D01*
X161600687Y-118082763D01*
X161317237Y-117799313D01*
X160983934Y-117576607D01*
X160613587Y-117423204D01*
X160220430Y-117345000D01*
X159819570Y-117345000D01*
X159426413Y-117423204D01*
X159056066Y-117576607D01*
X158722763Y-117799313D01*
X158439313Y-118082763D01*
X158216607Y-118416066D01*
X158063204Y-118786413D01*
X157985000Y-119179570D01*
X155158072Y-119179570D01*
X155158072Y-118530000D01*
X155145812Y-118405518D01*
X155109502Y-118285820D01*
X155050537Y-118175506D01*
X154971185Y-118078815D01*
X154874494Y-117999463D01*
X154764180Y-117940498D01*
X154644482Y-117904188D01*
X154520000Y-117891928D01*
X153256730Y-117891928D01*
X145615000Y-110250199D01*
X145615000Y-109591000D01*
X158151928Y-109591000D01*
X158164188Y-109715482D01*
X158200498Y-109835180D01*
X158259463Y-109945494D01*
X158338815Y-110042185D01*
X158435506Y-110121537D01*
X158545820Y-110180502D01*
X158665518Y-110216812D01*
X158790000Y-110229072D01*
X159004250Y-110226000D01*
X159163000Y-110067250D01*
X159163000Y-109093000D01*
X158313750Y-109093000D01*
X158155000Y-109251750D01*
X158151928Y-109591000D01*
X145615000Y-109591000D01*
X145615000Y-109211357D01*
X145640289Y-109208564D01*
X145759341Y-109170189D01*
X145868619Y-109109325D01*
X145963923Y-109028312D01*
X146041591Y-108930263D01*
X146098638Y-108818945D01*
X146132871Y-108698637D01*
X146142977Y-108573961D01*
X146140000Y-108270750D01*
X146049250Y-108180000D01*
X147961928Y-108180000D01*
X147974188Y-108304482D01*
X148010498Y-108424180D01*
X148069463Y-108534494D01*
X148148815Y-108631185D01*
X148245506Y-108710537D01*
X148355820Y-108769502D01*
X148475518Y-108805812D01*
X148600000Y-108818072D01*
X148939250Y-108815000D01*
X149098000Y-108656250D01*
X149098000Y-107807000D01*
X149352000Y-107807000D01*
X149352000Y-108656250D01*
X149510750Y-108815000D01*
X149850000Y-108818072D01*
X149974482Y-108805812D01*
X150094180Y-108769502D01*
X150177500Y-108724966D01*
X150260820Y-108769502D01*
X150380518Y-108805812D01*
X150505000Y-108818072D01*
X150844250Y-108815000D01*
X151003000Y-108656250D01*
X151003000Y-107807000D01*
X151257000Y-107807000D01*
X151257000Y-108656250D01*
X151415750Y-108815000D01*
X151755000Y-108818072D01*
X151879482Y-108805812D01*
X151999180Y-108769502D01*
X152109494Y-108710537D01*
X152206185Y-108631185D01*
X152285537Y-108534494D01*
X152344502Y-108424180D01*
X152380812Y-108304482D01*
X152393072Y-108180000D01*
X152390000Y-107965750D01*
X152231250Y-107807000D01*
X151257000Y-107807000D01*
X151003000Y-107807000D01*
X149352000Y-107807000D01*
X149098000Y-107807000D01*
X148123750Y-107807000D01*
X147965000Y-107965750D01*
X147961928Y-108180000D01*
X146049250Y-108180000D01*
X145981250Y-108112000D01*
X145643072Y-108112000D01*
X145643072Y-107858000D01*
X145981250Y-107858000D01*
X146140000Y-107699250D01*
X146142977Y-107396039D01*
X146132871Y-107271363D01*
X146098638Y-107151055D01*
X146041591Y-107039737D01*
X145963923Y-106941688D01*
X145868619Y-106860675D01*
X145759341Y-106799811D01*
X145640289Y-106761436D01*
X145536750Y-106750000D01*
X145399475Y-106887275D01*
X145359494Y-106854463D01*
X145249180Y-106795498D01*
X145205497Y-106782247D01*
X145173250Y-106750000D01*
X145129049Y-106754882D01*
X145140226Y-106727899D01*
X145180000Y-106527940D01*
X145180000Y-106465802D01*
X145265545Y-106380257D01*
X145390226Y-106504938D01*
X145559744Y-106618206D01*
X145748102Y-106696227D01*
X145948061Y-106736001D01*
X146151939Y-106736001D01*
X146351898Y-106696227D01*
X146410469Y-106671966D01*
X146521055Y-106728638D01*
X146641363Y-106762871D01*
X146766039Y-106772977D01*
X147069250Y-106770000D01*
X147228000Y-106611250D01*
X147228000Y-106273072D01*
X147482000Y-106273072D01*
X147482000Y-106611250D01*
X147640750Y-106770000D01*
X147943961Y-106772977D01*
X148068637Y-106762871D01*
X148136778Y-106743482D01*
X148069463Y-106825506D01*
X148010498Y-106935820D01*
X147974188Y-107055518D01*
X147961928Y-107180000D01*
X147965000Y-107394250D01*
X148123750Y-107553000D01*
X149098000Y-107553000D01*
X149098000Y-107533000D01*
X149352000Y-107533000D01*
X149352000Y-107553000D01*
X151003000Y-107553000D01*
X151003000Y-107533000D01*
X151257000Y-107533000D01*
X151257000Y-107553000D01*
X152231250Y-107553000D01*
X152390000Y-107394250D01*
X152392343Y-107230815D01*
X152419820Y-107245502D01*
X152539518Y-107281812D01*
X152664000Y-107294072D01*
X153003250Y-107291000D01*
X153162000Y-107132250D01*
X153162000Y-106283000D01*
X153142000Y-106283000D01*
X153142000Y-106051000D01*
X153436000Y-106051000D01*
X153436000Y-106283000D01*
X153416000Y-106283000D01*
X153416000Y-107132250D01*
X153574750Y-107291000D01*
X153914000Y-107294072D01*
X154038482Y-107281812D01*
X154158180Y-107245502D01*
X154241500Y-107200966D01*
X154324820Y-107245502D01*
X154444518Y-107281812D01*
X154569000Y-107294072D01*
X155819000Y-107294072D01*
X155943482Y-107281812D01*
X156063180Y-107245502D01*
X156173494Y-107186537D01*
X156270185Y-107107185D01*
X156316295Y-107051000D01*
X156442090Y-107051000D01*
X156445568Y-107081671D01*
X156484493Y-107200544D01*
X156545861Y-107309539D01*
X156627314Y-107404467D01*
X156725722Y-107481681D01*
X156837302Y-107538213D01*
X156957767Y-107571890D01*
X157082488Y-107581419D01*
X157189250Y-107578500D01*
X157347998Y-107419752D01*
X157347998Y-107578500D01*
X157469868Y-107578500D01*
X157471688Y-107596982D01*
X157507998Y-107716680D01*
X157566963Y-107826994D01*
X157646315Y-107923685D01*
X157743006Y-108003037D01*
X157853320Y-108062002D01*
X157973018Y-108098312D01*
X158097500Y-108110572D01*
X158196326Y-108110572D01*
X158164188Y-108216518D01*
X158151928Y-108341000D01*
X158155000Y-108680250D01*
X158313750Y-108839000D01*
X159163000Y-108839000D01*
X159163000Y-108819000D01*
X159417000Y-108819000D01*
X159417000Y-108839000D01*
X159437000Y-108839000D01*
X159437000Y-109093000D01*
X159417000Y-109093000D01*
X159417000Y-110067250D01*
X159575750Y-110226000D01*
X159790000Y-110229072D01*
X159914482Y-110216812D01*
X160034180Y-110180502D01*
X160144494Y-110121537D01*
X160241185Y-110042185D01*
X160290000Y-109982704D01*
X160338815Y-110042185D01*
X160435506Y-110121537D01*
X160545820Y-110180502D01*
X160665518Y-110216812D01*
X160790000Y-110229072D01*
X161790000Y-110229072D01*
X161914482Y-110216812D01*
X162034180Y-110180502D01*
X162144494Y-110121537D01*
X162241185Y-110042185D01*
X162300676Y-109969694D01*
X162458061Y-110001000D01*
X162661939Y-110001000D01*
X162861898Y-109961226D01*
X163050256Y-109883205D01*
X163219774Y-109769937D01*
X163363937Y-109625774D01*
X163477205Y-109456256D01*
X163555226Y-109267898D01*
X163595000Y-109067939D01*
X163595000Y-108864061D01*
X163555226Y-108664102D01*
X163477205Y-108475744D01*
X163363937Y-108306226D01*
X163219774Y-108162063D01*
X163050256Y-108048795D01*
X162861898Y-107970774D01*
X162661939Y-107931000D01*
X162458061Y-107931000D01*
X162300676Y-107962306D01*
X162241185Y-107889815D01*
X162144494Y-107810463D01*
X162050000Y-107759954D01*
X162050000Y-106936823D01*
X162053676Y-106899500D01*
X162050000Y-106862177D01*
X162050000Y-106862167D01*
X162039003Y-106750514D01*
X161995546Y-106607253D01*
X161956655Y-106534494D01*
X161924974Y-106475223D01*
X161853799Y-106388497D01*
X161830001Y-106359499D01*
X161801002Y-106335700D01*
X161784938Y-106319636D01*
X161785518Y-106319812D01*
X161910000Y-106332072D01*
X162274250Y-106329000D01*
X162433000Y-106170250D01*
X162433000Y-105471000D01*
X162687000Y-105471000D01*
X162687000Y-106170250D01*
X162845750Y-106329000D01*
X163210000Y-106332072D01*
X163334482Y-106319812D01*
X163454180Y-106283502D01*
X163564494Y-106224537D01*
X163661185Y-106145185D01*
X163740537Y-106048494D01*
X163799502Y-105938180D01*
X163835812Y-105818482D01*
X163848072Y-105694000D01*
X163845000Y-105629750D01*
X163686250Y-105471000D01*
X162687000Y-105471000D01*
X162433000Y-105471000D01*
X162413000Y-105471000D01*
X162413000Y-105217000D01*
X162433000Y-105217000D01*
X162433000Y-105197000D01*
X162687000Y-105197000D01*
X162687000Y-105217000D01*
X163686250Y-105217000D01*
X163845000Y-105058250D01*
X163848072Y-104994000D01*
X163835812Y-104869518D01*
X163799502Y-104749820D01*
X163740537Y-104639506D01*
X163661185Y-104542815D01*
X163564494Y-104463463D01*
X163454180Y-104404498D01*
X163419573Y-104394000D01*
X163454180Y-104383502D01*
X163564494Y-104324537D01*
X163661185Y-104245185D01*
X163740537Y-104148494D01*
X163799502Y-104038180D01*
X163835812Y-103918482D01*
X163848072Y-103794000D01*
X163848072Y-103094000D01*
X163835812Y-102969518D01*
X163799502Y-102849820D01*
X163740537Y-102739506D01*
X163661185Y-102642815D01*
X163564494Y-102563463D01*
X163454180Y-102504498D01*
X163334482Y-102468188D01*
X163210000Y-102455928D01*
X161910000Y-102455928D01*
X161785518Y-102468188D01*
X161665820Y-102504498D01*
X161555506Y-102563463D01*
X161458815Y-102642815D01*
X161425015Y-102684000D01*
X160194853Y-102684000D01*
X160194853Y-102617288D01*
X160155079Y-102417329D01*
X160077058Y-102228971D01*
X159963790Y-102059453D01*
X159819627Y-101915290D01*
X159650109Y-101802022D01*
X159461751Y-101724001D01*
X159261792Y-101684227D01*
X159173845Y-101684227D01*
X159063853Y-101625434D01*
X158920592Y-101581977D01*
X158808939Y-101570980D01*
X158808928Y-101570980D01*
X158771606Y-101567304D01*
X158734284Y-101570980D01*
X149869273Y-101570980D01*
X149666350Y-101570982D01*
X149629019Y-101567305D01*
X149480033Y-101581978D01*
X149336773Y-101625435D01*
X149204744Y-101696007D01*
X149204743Y-101696008D01*
X149204741Y-101696009D01*
X149169416Y-101725000D01*
X148584208Y-101725000D01*
X148593072Y-101635000D01*
X148593072Y-101335000D01*
X148583223Y-101235000D01*
X148593072Y-101135000D01*
X148593072Y-100835000D01*
X148583223Y-100735000D01*
X148593072Y-100635000D01*
X148593072Y-100335000D01*
X148583223Y-100235000D01*
X148593072Y-100135000D01*
X148593072Y-99835000D01*
X148583223Y-99735000D01*
X148593072Y-99635000D01*
X148593072Y-99335000D01*
X148584208Y-99245000D01*
X151546928Y-99245000D01*
X151546928Y-100545000D01*
X151559188Y-100669482D01*
X151595498Y-100789180D01*
X151654463Y-100899494D01*
X151733815Y-100996185D01*
X151830506Y-101075537D01*
X151940820Y-101134502D01*
X152060518Y-101170812D01*
X152185000Y-101183072D01*
X153885000Y-101183072D01*
X154009482Y-101170812D01*
X154129180Y-101134502D01*
X154239494Y-101075537D01*
X154336185Y-100996185D01*
X154415537Y-100899494D01*
X154474502Y-100789180D01*
X154497498Y-100713374D01*
X154693645Y-100890178D01*
X154943748Y-101039157D01*
X155218109Y-101136481D01*
X155448000Y-101015814D01*
X155448000Y-99822000D01*
X155702000Y-99822000D01*
X155702000Y-101015814D01*
X155931891Y-101136481D01*
X156206252Y-101039157D01*
X156456355Y-100890178D01*
X156672588Y-100695269D01*
X156846641Y-100461920D01*
X156971825Y-100199099D01*
X157016476Y-100051890D01*
X156895155Y-99822000D01*
X155702000Y-99822000D01*
X155448000Y-99822000D01*
X155428000Y-99822000D01*
X155428000Y-99568000D01*
X155448000Y-99568000D01*
X155448000Y-99548000D01*
X155702000Y-99548000D01*
X155702000Y-99568000D01*
X156895155Y-99568000D01*
X157016476Y-99338110D01*
X156971825Y-99190901D01*
X156846641Y-98928080D01*
X156672588Y-98694731D01*
X156456355Y-98499822D01*
X156339477Y-98430201D01*
X156404014Y-98395706D01*
X156630134Y-98210134D01*
X156815706Y-97984014D01*
X156953599Y-97726034D01*
X157038513Y-97446111D01*
X157067185Y-97155000D01*
X157038513Y-96863889D01*
X156953599Y-96583966D01*
X156815706Y-96325986D01*
X156630134Y-96099866D01*
X156404014Y-95914294D01*
X156349209Y-95885000D01*
X156404014Y-95855706D01*
X156630134Y-95670134D01*
X156815706Y-95444014D01*
X156953599Y-95186034D01*
X157038513Y-94906111D01*
X157067185Y-94615000D01*
X157038513Y-94323889D01*
X156953599Y-94043966D01*
X156815706Y-93785986D01*
X156786164Y-93749989D01*
X162142778Y-93749989D01*
X165413990Y-97021202D01*
X165413991Y-112626657D01*
X165410314Y-112663990D01*
X165413991Y-112701323D01*
X165414275Y-112704201D01*
X165424988Y-112812975D01*
X165468444Y-112956236D01*
X165539016Y-113088266D01*
X165610191Y-113174992D01*
X165633990Y-113203991D01*
X165662988Y-113227789D01*
X167246201Y-114811003D01*
X167269999Y-114840001D01*
X167298997Y-114863799D01*
X167385724Y-114934974D01*
X167421928Y-114954326D01*
X167421928Y-115150000D01*
X167434188Y-115274482D01*
X167470498Y-115394180D01*
X167529463Y-115504494D01*
X167608815Y-115601185D01*
X167705506Y-115680537D01*
X167815820Y-115739502D01*
X167935518Y-115775812D01*
X168060000Y-115788072D01*
X169760000Y-115788072D01*
X169884482Y-115775812D01*
X170004180Y-115739502D01*
X170114494Y-115680537D01*
X170211185Y-115601185D01*
X170290537Y-115504494D01*
X170349502Y-115394180D01*
X170385812Y-115274482D01*
X170398072Y-115150000D01*
X170398072Y-113450000D01*
X170385812Y-113325518D01*
X170349502Y-113205820D01*
X170290537Y-113095506D01*
X170211185Y-112998815D01*
X170114494Y-112919463D01*
X170004180Y-112860498D01*
X169935313Y-112839607D01*
X169965134Y-112815134D01*
X170150706Y-112589014D01*
X170288599Y-112331034D01*
X170373513Y-112051111D01*
X170402185Y-111760000D01*
X170373513Y-111468889D01*
X170288599Y-111188966D01*
X170150706Y-110930986D01*
X169965134Y-110704866D01*
X169739014Y-110519294D01*
X169481034Y-110381401D01*
X169201111Y-110296487D01*
X168982950Y-110275000D01*
X168837050Y-110275000D01*
X168618889Y-110296487D01*
X168544005Y-110319203D01*
X167444802Y-109220000D01*
X182657815Y-109220000D01*
X182686487Y-109511111D01*
X182771401Y-109791034D01*
X182909294Y-110049014D01*
X183094866Y-110275134D01*
X183320986Y-110460706D01*
X183375791Y-110490000D01*
X183320986Y-110519294D01*
X183094866Y-110704866D01*
X182909294Y-110930986D01*
X182771401Y-111188966D01*
X182686487Y-111468889D01*
X182657815Y-111760000D01*
X182686487Y-112051111D01*
X182771401Y-112331034D01*
X182909294Y-112589014D01*
X183094866Y-112815134D01*
X183124687Y-112839607D01*
X183055820Y-112860498D01*
X182945506Y-112919463D01*
X182848815Y-112998815D01*
X182769463Y-113095506D01*
X182710498Y-113205820D01*
X182674188Y-113325518D01*
X182661928Y-113450000D01*
X182661928Y-115150000D01*
X182674188Y-115274482D01*
X182710498Y-115394180D01*
X182769463Y-115504494D01*
X182848815Y-115601185D01*
X182945506Y-115680537D01*
X183055820Y-115739502D01*
X183175518Y-115775812D01*
X183300000Y-115788072D01*
X185000000Y-115788072D01*
X185124482Y-115775812D01*
X185244180Y-115739502D01*
X185354494Y-115680537D01*
X185451185Y-115601185D01*
X185530537Y-115504494D01*
X185589502Y-115394180D01*
X185625812Y-115274482D01*
X185638072Y-115150000D01*
X185638072Y-113450000D01*
X185625812Y-113325518D01*
X185589502Y-113205820D01*
X185530537Y-113095506D01*
X185451185Y-112998815D01*
X185354494Y-112919463D01*
X185244180Y-112860498D01*
X185175313Y-112839607D01*
X185205134Y-112815134D01*
X185390706Y-112589014D01*
X185528599Y-112331034D01*
X185613513Y-112051111D01*
X185642185Y-111760000D01*
X185613513Y-111468889D01*
X185528599Y-111188966D01*
X185390706Y-110930986D01*
X185205134Y-110704866D01*
X184979014Y-110519294D01*
X184924209Y-110490000D01*
X184979014Y-110460706D01*
X185205134Y-110275134D01*
X185390706Y-110049014D01*
X185528599Y-109791034D01*
X185613513Y-109511111D01*
X185642185Y-109220000D01*
X185613513Y-108928889D01*
X185528599Y-108648966D01*
X185390706Y-108390986D01*
X185205134Y-108164866D01*
X184979014Y-107979294D01*
X184914477Y-107944799D01*
X185031355Y-107875178D01*
X185247588Y-107680269D01*
X185421641Y-107446920D01*
X185546825Y-107184099D01*
X185591476Y-107036890D01*
X185470155Y-106807000D01*
X184277000Y-106807000D01*
X184277000Y-106827000D01*
X184023000Y-106827000D01*
X184023000Y-106807000D01*
X182829845Y-106807000D01*
X182708524Y-107036890D01*
X182753175Y-107184099D01*
X182878359Y-107446920D01*
X183052412Y-107680269D01*
X183268645Y-107875178D01*
X183385523Y-107944799D01*
X183320986Y-107979294D01*
X183094866Y-108164866D01*
X182909294Y-108390986D01*
X182771401Y-108648966D01*
X182686487Y-108928889D01*
X182657815Y-109220000D01*
X167444802Y-109220000D01*
X167384000Y-109159199D01*
X167384000Y-100457000D01*
X167961931Y-100457000D01*
X167854866Y-100544866D01*
X167669294Y-100770986D01*
X167531401Y-101028966D01*
X167446487Y-101308889D01*
X167417815Y-101600000D01*
X167446487Y-101891111D01*
X167531401Y-102171034D01*
X167669294Y-102429014D01*
X167854866Y-102655134D01*
X168080986Y-102840706D01*
X168338966Y-102978599D01*
X168618889Y-103063513D01*
X168837050Y-103085000D01*
X168982950Y-103085000D01*
X169201111Y-103063513D01*
X169481034Y-102978599D01*
X169739014Y-102840706D01*
X169965134Y-102655134D01*
X170150706Y-102429014D01*
X170288599Y-102171034D01*
X170373513Y-101891111D01*
X170402185Y-101600000D01*
X170373513Y-101308889D01*
X170288599Y-101028966D01*
X170150706Y-100770986D01*
X169965134Y-100544866D01*
X169858069Y-100457000D01*
X183201931Y-100457000D01*
X183094866Y-100544866D01*
X182909294Y-100770986D01*
X182771401Y-101028966D01*
X182686487Y-101308889D01*
X182657815Y-101600000D01*
X182686487Y-101891111D01*
X182771401Y-102171034D01*
X182909294Y-102429014D01*
X183094866Y-102655134D01*
X183320986Y-102840706D01*
X183375791Y-102870000D01*
X183320986Y-102899294D01*
X183094866Y-103084866D01*
X182909294Y-103310986D01*
X182771401Y-103568966D01*
X182686487Y-103848889D01*
X182657815Y-104140000D01*
X182686487Y-104431111D01*
X182771401Y-104711034D01*
X182909294Y-104969014D01*
X183094866Y-105195134D01*
X183320986Y-105380706D01*
X183385523Y-105415201D01*
X183268645Y-105484822D01*
X183052412Y-105679731D01*
X182878359Y-105913080D01*
X182753175Y-106175901D01*
X182708524Y-106323110D01*
X182829845Y-106553000D01*
X184023000Y-106553000D01*
X184023000Y-106533000D01*
X184277000Y-106533000D01*
X184277000Y-106553000D01*
X185470155Y-106553000D01*
X185591476Y-106323110D01*
X185546825Y-106175901D01*
X185421641Y-105913080D01*
X185247588Y-105679731D01*
X185031355Y-105484822D01*
X184914477Y-105415201D01*
X184979014Y-105380706D01*
X185205134Y-105195134D01*
X185390706Y-104969014D01*
X185528599Y-104711034D01*
X185613513Y-104431111D01*
X185642185Y-104140000D01*
X185613513Y-103848889D01*
X185528599Y-103568966D01*
X185390706Y-103310986D01*
X185205134Y-103084866D01*
X184979014Y-102899294D01*
X184924209Y-102870000D01*
X184979014Y-102840706D01*
X185205134Y-102655134D01*
X185390706Y-102429014D01*
X185528599Y-102171034D01*
X185613513Y-101891111D01*
X185642185Y-101600000D01*
X185613513Y-101308889D01*
X185528599Y-101028966D01*
X185390706Y-100770986D01*
X185205134Y-100544866D01*
X185098069Y-100457000D01*
X186055000Y-100457000D01*
X186079776Y-100454560D01*
X186103601Y-100447333D01*
X186125557Y-100435597D01*
X186144803Y-100419803D01*
X186160597Y-100400557D01*
X186172333Y-100378601D01*
X186179560Y-100354776D01*
X186182000Y-100330000D01*
X186182000Y-87355701D01*
X188985000Y-87355701D01*
X188985000Y-87904299D01*
X189092026Y-88442354D01*
X189301965Y-88949192D01*
X189606750Y-89405334D01*
X189994666Y-89793250D01*
X190450808Y-90098035D01*
X190957646Y-90307974D01*
X191495701Y-90415000D01*
X192044299Y-90415000D01*
X192582354Y-90307974D01*
X193089192Y-90098035D01*
X193545334Y-89793250D01*
X193933250Y-89405334D01*
X194238035Y-88949192D01*
X194447974Y-88442354D01*
X194555000Y-87904299D01*
X194555000Y-87355701D01*
X194447974Y-86817646D01*
X194238035Y-86310808D01*
X193933250Y-85854666D01*
X193545334Y-85466750D01*
X193089192Y-85161965D01*
X192582354Y-84952026D01*
X192044299Y-84845000D01*
X191495701Y-84845000D01*
X190957646Y-84952026D01*
X190450808Y-85161965D01*
X189994666Y-85466750D01*
X189606750Y-85854666D01*
X189301965Y-86310808D01*
X189092026Y-86817646D01*
X188985000Y-87355701D01*
X186182000Y-87355701D01*
X186182000Y-84455000D01*
X186179560Y-84430224D01*
X186172333Y-84406399D01*
X186160597Y-84384443D01*
X186144803Y-84365197D01*
X186125557Y-84349403D01*
X186103601Y-84337667D01*
X186079776Y-84330440D01*
X186055000Y-84328000D01*
X167005000Y-84328000D01*
X166980224Y-84330440D01*
X166956399Y-84337667D01*
X166934443Y-84349403D01*
X166915197Y-84365197D01*
X166899403Y-84384443D01*
X166887667Y-84406399D01*
X166880440Y-84430224D01*
X166878000Y-84455000D01*
X166878000Y-95699198D01*
X163207783Y-92028982D01*
X163183980Y-91999978D01*
X163068255Y-91905005D01*
X162936226Y-91834433D01*
X162792965Y-91790976D01*
X162681312Y-91779979D01*
X162681301Y-91779979D01*
X162643979Y-91776303D01*
X162606657Y-91779979D01*
X145514823Y-91779979D01*
X145926004Y-91368798D01*
X145955001Y-91345001D01*
X145984953Y-91308504D01*
X146049974Y-91229277D01*
X146120546Y-91097247D01*
X146161117Y-90963499D01*
X146164003Y-90953986D01*
X146175000Y-90842333D01*
X146175000Y-90842324D01*
X146178676Y-90805001D01*
X146175000Y-90767678D01*
X146175000Y-90177595D01*
X146244014Y-90140706D01*
X146470134Y-89955134D01*
X146655706Y-89729014D01*
X146793599Y-89471034D01*
X146878513Y-89191111D01*
X146907185Y-88900000D01*
X146878513Y-88608889D01*
X146793599Y-88328966D01*
X146655706Y-88070986D01*
X146470134Y-87844866D01*
X146440313Y-87820393D01*
X146509180Y-87799502D01*
X146619494Y-87740537D01*
X146716185Y-87661185D01*
X146795537Y-87564494D01*
X146854502Y-87454180D01*
X146890812Y-87334482D01*
X146903072Y-87210000D01*
X146903072Y-85510000D01*
X148371928Y-85510000D01*
X148371928Y-87210000D01*
X148384188Y-87334482D01*
X148420498Y-87454180D01*
X148479463Y-87564494D01*
X148558815Y-87661185D01*
X148655506Y-87740537D01*
X148765820Y-87799502D01*
X148885518Y-87835812D01*
X149010000Y-87848072D01*
X150710000Y-87848072D01*
X150834482Y-87835812D01*
X150954180Y-87799502D01*
X151064494Y-87740537D01*
X151161185Y-87661185D01*
X151240537Y-87564494D01*
X151299502Y-87454180D01*
X151320393Y-87385313D01*
X151344866Y-87415134D01*
X151570986Y-87600706D01*
X151828966Y-87738599D01*
X152108889Y-87823513D01*
X152327050Y-87845000D01*
X152472950Y-87845000D01*
X152691111Y-87823513D01*
X152971034Y-87738599D01*
X153229014Y-87600706D01*
X153455134Y-87415134D01*
X153640706Y-87189014D01*
X153670000Y-87134209D01*
X153699294Y-87189014D01*
X153884866Y-87415134D01*
X154110986Y-87600706D01*
X154368966Y-87738599D01*
X154648889Y-87823513D01*
X154867050Y-87845000D01*
X155012950Y-87845000D01*
X155231111Y-87823513D01*
X155511034Y-87738599D01*
X155769014Y-87600706D01*
X155995134Y-87415134D01*
X156180706Y-87189014D01*
X156210000Y-87134209D01*
X156239294Y-87189014D01*
X156424866Y-87415134D01*
X156650986Y-87600706D01*
X156908966Y-87738599D01*
X157188889Y-87823513D01*
X157407050Y-87845000D01*
X157552950Y-87845000D01*
X157771111Y-87823513D01*
X158051034Y-87738599D01*
X158309014Y-87600706D01*
X158535134Y-87415134D01*
X158720706Y-87189014D01*
X158858599Y-86931034D01*
X158943513Y-86651111D01*
X158972185Y-86360000D01*
X158943513Y-86068889D01*
X158858599Y-85788966D01*
X158720706Y-85530986D01*
X158535134Y-85304866D01*
X158309014Y-85119294D01*
X158051034Y-84981401D01*
X157771111Y-84896487D01*
X157552950Y-84875000D01*
X157407050Y-84875000D01*
X157188889Y-84896487D01*
X156908966Y-84981401D01*
X156650986Y-85119294D01*
X156424866Y-85304866D01*
X156239294Y-85530986D01*
X156210000Y-85585791D01*
X156180706Y-85530986D01*
X155995134Y-85304866D01*
X155769014Y-85119294D01*
X155511034Y-84981401D01*
X155231111Y-84896487D01*
X155012950Y-84875000D01*
X154867050Y-84875000D01*
X154648889Y-84896487D01*
X154368966Y-84981401D01*
X154110986Y-85119294D01*
X153884866Y-85304866D01*
X153699294Y-85530986D01*
X153670000Y-85585791D01*
X153640706Y-85530986D01*
X153455134Y-85304866D01*
X153229014Y-85119294D01*
X152971034Y-84981401D01*
X152691111Y-84896487D01*
X152472950Y-84875000D01*
X152327050Y-84875000D01*
X152108889Y-84896487D01*
X151828966Y-84981401D01*
X151570986Y-85119294D01*
X151344866Y-85304866D01*
X151320393Y-85334687D01*
X151299502Y-85265820D01*
X151240537Y-85155506D01*
X151161185Y-85058815D01*
X151064494Y-84979463D01*
X150954180Y-84920498D01*
X150834482Y-84884188D01*
X150710000Y-84871928D01*
X149010000Y-84871928D01*
X148885518Y-84884188D01*
X148765820Y-84920498D01*
X148655506Y-84979463D01*
X148558815Y-85058815D01*
X148479463Y-85155506D01*
X148420498Y-85265820D01*
X148384188Y-85385518D01*
X148371928Y-85510000D01*
X146903072Y-85510000D01*
X146890812Y-85385518D01*
X146854502Y-85265820D01*
X146795537Y-85155506D01*
X146716185Y-85058815D01*
X146619494Y-84979463D01*
X146509180Y-84920498D01*
X146389482Y-84884188D01*
X146265000Y-84871928D01*
X144565000Y-84871928D01*
X144440518Y-84884188D01*
X144320820Y-84920498D01*
X144210506Y-84979463D01*
X144113815Y-85058815D01*
X144034463Y-85155506D01*
X143975498Y-85265820D01*
X143954607Y-85334687D01*
X143930134Y-85304866D01*
X143704014Y-85119294D01*
X143446034Y-84981401D01*
X143166111Y-84896487D01*
X142947950Y-84875000D01*
X142802050Y-84875000D01*
X142583889Y-84896487D01*
X142303966Y-84981401D01*
X142045986Y-85119294D01*
X141819866Y-85304866D01*
X141634294Y-85530986D01*
X141605000Y-85585791D01*
X141575706Y-85530986D01*
X141390134Y-85304866D01*
X141164014Y-85119294D01*
X140906034Y-84981401D01*
X140626111Y-84896487D01*
X140407950Y-84875000D01*
X140262050Y-84875000D01*
X140043889Y-84896487D01*
X139763966Y-84981401D01*
X139505986Y-85119294D01*
X139279866Y-85304866D01*
X139094294Y-85530986D01*
X139065000Y-85585791D01*
X139035706Y-85530986D01*
X138850134Y-85304866D01*
X138624014Y-85119294D01*
X138366034Y-84981401D01*
X138086111Y-84896487D01*
X137867950Y-84875000D01*
X137722050Y-84875000D01*
X137503889Y-84896487D01*
X137223966Y-84981401D01*
X136965986Y-85119294D01*
X136739866Y-85304866D01*
X136554294Y-85530986D01*
X136416401Y-85788966D01*
X136331487Y-86068889D01*
X136302815Y-86360000D01*
X136331487Y-86651111D01*
X136354203Y-86725996D01*
X136108997Y-86971202D01*
X136079999Y-86995000D01*
X136056201Y-87023998D01*
X136056200Y-87023999D01*
X135985025Y-87110725D01*
X135914453Y-87242755D01*
X135912559Y-87249000D01*
X135877494Y-87364599D01*
X135870997Y-87386016D01*
X135856323Y-87535001D01*
X135860000Y-87572333D01*
X135859999Y-94362676D01*
X135856323Y-94399999D01*
X135859999Y-94437321D01*
X135859999Y-94437331D01*
X135870996Y-94548984D01*
X135910282Y-94678496D01*
X135914453Y-94692245D01*
X135985025Y-94824275D01*
X135995472Y-94837004D01*
X136079998Y-94940000D01*
X136109002Y-94963803D01*
X137066928Y-95921730D01*
X137066928Y-97085000D01*
X137079188Y-97209482D01*
X137115498Y-97329180D01*
X137174463Y-97439494D01*
X137253815Y-97536185D01*
X137350506Y-97615537D01*
X137460820Y-97674502D01*
X137580518Y-97710812D01*
X137705000Y-97723072D01*
X138005000Y-97723072D01*
X138105000Y-97713223D01*
X138205000Y-97723072D01*
X138505000Y-97723072D01*
X138605000Y-97713223D01*
X138705000Y-97723072D01*
X139005000Y-97723072D01*
X139105000Y-97713223D01*
X139205000Y-97723072D01*
X139505000Y-97723072D01*
X139605000Y-97713223D01*
X139705000Y-97723072D01*
X140005000Y-97723072D01*
X140105000Y-97713223D01*
X140205000Y-97723072D01*
X140505000Y-97723072D01*
X140605000Y-97713223D01*
X140705000Y-97723072D01*
X141005000Y-97723072D01*
X141105000Y-97713223D01*
X141205000Y-97723072D01*
X141505000Y-97723072D01*
X141605000Y-97713223D01*
X141705000Y-97723072D01*
X142005000Y-97723072D01*
X142105000Y-97713223D01*
X142205000Y-97723072D01*
X142505000Y-97723072D01*
X142605000Y-97713223D01*
X142705000Y-97723072D01*
X143005000Y-97723072D01*
X143105000Y-97713223D01*
X143205000Y-97723072D01*
X143505000Y-97723072D01*
X143605000Y-97713223D01*
X143705000Y-97723072D01*
X144005000Y-97723072D01*
X144105000Y-97713223D01*
X144205000Y-97723072D01*
X144407126Y-97723072D01*
X141844003Y-100286196D01*
X141814999Y-100309999D01*
X141782150Y-100350026D01*
X141720026Y-100425724D01*
X141688342Y-100485000D01*
X141649454Y-100557754D01*
X141605997Y-100701015D01*
X141595000Y-100812668D01*
X141595000Y-100812678D01*
X141591324Y-100850000D01*
X141595000Y-100887323D01*
X141595001Y-102112656D01*
X141595000Y-102112666D01*
X141595001Y-106755792D01*
X141505000Y-106746928D01*
X141205000Y-106746928D01*
X141105000Y-106756777D01*
X141005000Y-106746928D01*
X140705000Y-106746928D01*
X140605000Y-106756777D01*
X140505000Y-106746928D01*
X140205000Y-106746928D01*
X140105000Y-106756777D01*
X140005000Y-106746928D01*
X139705000Y-106746928D01*
X139601356Y-106757136D01*
X139536750Y-106750000D01*
X139504503Y-106782247D01*
X139460820Y-106795498D01*
X139355000Y-106852061D01*
X139249180Y-106795498D01*
X139205497Y-106782247D01*
X139173250Y-106750000D01*
X139108644Y-106757136D01*
X139005000Y-106746928D01*
X138705000Y-106746928D01*
X138605000Y-106756777D01*
X138505000Y-106746928D01*
X138205000Y-106746928D01*
X138105000Y-106756777D01*
X138005000Y-106746928D01*
X137705000Y-106746928D01*
X137580518Y-106759188D01*
X137460820Y-106795498D01*
X137350506Y-106854463D01*
X137253815Y-106933815D01*
X137174463Y-107030506D01*
X137115498Y-107140820D01*
X137079188Y-107260518D01*
X137066928Y-107385000D01*
X137066928Y-108446448D01*
X136504788Y-109008589D01*
X132477213Y-109008589D01*
X134740802Y-106745000D01*
X135078393Y-106745000D01*
X135130518Y-106760812D01*
X135255000Y-106773072D01*
X136455000Y-106773072D01*
X136579482Y-106760812D01*
X136699180Y-106724502D01*
X136809494Y-106665537D01*
X136906185Y-106586185D01*
X136985537Y-106489494D01*
X137044502Y-106379180D01*
X137080812Y-106259482D01*
X137093072Y-106135000D01*
X137093072Y-105835000D01*
X137083223Y-105735000D01*
X137093072Y-105635000D01*
X137093072Y-105335000D01*
X137083223Y-105235000D01*
X137093072Y-105135000D01*
X137093072Y-104835000D01*
X137083223Y-104735000D01*
X137093072Y-104635000D01*
X137093072Y-104335000D01*
X137083223Y-104235000D01*
X137093072Y-104135000D01*
X137093072Y-103835000D01*
X137083223Y-103735000D01*
X137093072Y-103635000D01*
X137093072Y-103335000D01*
X137083223Y-103235000D01*
X137093072Y-103135000D01*
X137093072Y-102835000D01*
X137083223Y-102735000D01*
X137093072Y-102635000D01*
X137093072Y-102335000D01*
X137083223Y-102235000D01*
X137093072Y-102135000D01*
X137093072Y-101835000D01*
X137083223Y-101735000D01*
X137093072Y-101635000D01*
X137093072Y-101335000D01*
X137083223Y-101235000D01*
X137093072Y-101135000D01*
X137093072Y-100835000D01*
X137083223Y-100735000D01*
X137093072Y-100635000D01*
X137093072Y-100335000D01*
X137083223Y-100235000D01*
X137093072Y-100135000D01*
X137093072Y-99835000D01*
X137083223Y-99735000D01*
X137093072Y-99635000D01*
X137093072Y-99335000D01*
X137083223Y-99235000D01*
X137093072Y-99135000D01*
X137093072Y-98835000D01*
X137082864Y-98731356D01*
X137090000Y-98666750D01*
X137057753Y-98634503D01*
X137044502Y-98590820D01*
X136985537Y-98480506D01*
X136952725Y-98440525D01*
X137090000Y-98303250D01*
X137078564Y-98199711D01*
X137040189Y-98080659D01*
X136979325Y-97971381D01*
X136898312Y-97876077D01*
X136800263Y-97798409D01*
X136688945Y-97741362D01*
X136568637Y-97707129D01*
X136443961Y-97697023D01*
X136140750Y-97700000D01*
X136010676Y-97830074D01*
X136010676Y-97702043D01*
X135970902Y-97502084D01*
X135892881Y-97313726D01*
X135779613Y-97144208D01*
X135635450Y-97000045D01*
X135465932Y-96886777D01*
X135277574Y-96808756D01*
X135077615Y-96768982D01*
X134873737Y-96768982D01*
X134768072Y-96790000D01*
X134112000Y-96790000D01*
X134112000Y-96810000D01*
X133858000Y-96810000D01*
X133858000Y-96790000D01*
X133838000Y-96790000D01*
X133838000Y-96536000D01*
X133858000Y-96536000D01*
X133858000Y-96516000D01*
X134112000Y-96516000D01*
X134112000Y-96536000D01*
X135086250Y-96536000D01*
X135245000Y-96377250D01*
X135248072Y-96163000D01*
X135235812Y-96038518D01*
X135199502Y-95918820D01*
X135140537Y-95808506D01*
X135061185Y-95711815D01*
X134964494Y-95632463D01*
X134854180Y-95573498D01*
X134734482Y-95537188D01*
X134610000Y-95524928D01*
X134270750Y-95528000D01*
X134112002Y-95686748D01*
X134112002Y-95528000D01*
X134059868Y-95528000D01*
X134099003Y-95398986D01*
X134110000Y-95287333D01*
X134113677Y-95250000D01*
X134110000Y-95212667D01*
X134110000Y-90177595D01*
X134179014Y-90140706D01*
X134405134Y-89955134D01*
X134590706Y-89729014D01*
X134728599Y-89471034D01*
X134813513Y-89191111D01*
X134842185Y-88900000D01*
X134813513Y-88608889D01*
X134728599Y-88328966D01*
X134590706Y-88070986D01*
X134405134Y-87844866D01*
X134179014Y-87659294D01*
X134124209Y-87630000D01*
X134179014Y-87600706D01*
X134405134Y-87415134D01*
X134590706Y-87189014D01*
X134728599Y-86931034D01*
X134813513Y-86651111D01*
X134842185Y-86360000D01*
X134813513Y-86068889D01*
X134728599Y-85788966D01*
X134590706Y-85530986D01*
X134405134Y-85304866D01*
X134179014Y-85119294D01*
X133921034Y-84981401D01*
X133641111Y-84896487D01*
X133422950Y-84875000D01*
X133277050Y-84875000D01*
X133058889Y-84896487D01*
X132778966Y-84981401D01*
X132520986Y-85119294D01*
X132294866Y-85304866D01*
X132109294Y-85530986D01*
X132080000Y-85585791D01*
X132050706Y-85530986D01*
X131865134Y-85304866D01*
X131639014Y-85119294D01*
X131381034Y-84981401D01*
X131101111Y-84896487D01*
X130882950Y-84875000D01*
X130737050Y-84875000D01*
X130518889Y-84896487D01*
X130238966Y-84981401D01*
X129980986Y-85119294D01*
X129754866Y-85304866D01*
X129569294Y-85530986D01*
X129540000Y-85585791D01*
X129510706Y-85530986D01*
X129325134Y-85304866D01*
X129099014Y-85119294D01*
X128841034Y-84981401D01*
X128561111Y-84896487D01*
X128342950Y-84875000D01*
X128197050Y-84875000D01*
X127978889Y-84896487D01*
X127698966Y-84981401D01*
X127440986Y-85119294D01*
X127214866Y-85304866D01*
X127029294Y-85530986D01*
X127000000Y-85585791D01*
X126970706Y-85530986D01*
X126785134Y-85304866D01*
X126559014Y-85119294D01*
X126301034Y-84981401D01*
X126021111Y-84896487D01*
X125802950Y-84875000D01*
X125657050Y-84875000D01*
X125438889Y-84896487D01*
X125158966Y-84981401D01*
X124900986Y-85119294D01*
X124674866Y-85304866D01*
X124489294Y-85530986D01*
X124460000Y-85585791D01*
X124430706Y-85530986D01*
X124245134Y-85304866D01*
X124019014Y-85119294D01*
X123761034Y-84981401D01*
X123481111Y-84896487D01*
X123262950Y-84875000D01*
X123117050Y-84875000D01*
X122898889Y-84896487D01*
X122618966Y-84981401D01*
X122360986Y-85119294D01*
X122134866Y-85304866D01*
X121949294Y-85530986D01*
X121920000Y-85585791D01*
X121890706Y-85530986D01*
X121705134Y-85304866D01*
X121479014Y-85119294D01*
X121221034Y-84981401D01*
X120941111Y-84896487D01*
X120722950Y-84875000D01*
X120577050Y-84875000D01*
X120358889Y-84896487D01*
X120078966Y-84981401D01*
X119820986Y-85119294D01*
X119594866Y-85304866D01*
X119409294Y-85530986D01*
X119271401Y-85788966D01*
X119186487Y-86068889D01*
X119157815Y-86360000D01*
X119186487Y-86651111D01*
X119271401Y-86931034D01*
X119409294Y-87189014D01*
X119594866Y-87415134D01*
X119624687Y-87439607D01*
X119555820Y-87460498D01*
X119445506Y-87519463D01*
X119348815Y-87598815D01*
X119269463Y-87695506D01*
X119210498Y-87805820D01*
X119174188Y-87925518D01*
X119161928Y-88050000D01*
X119165000Y-88614250D01*
X119323750Y-88773000D01*
X120523000Y-88773000D01*
X120523000Y-88753000D01*
X120777000Y-88753000D01*
X120777000Y-88773000D01*
X120797000Y-88773000D01*
X120797000Y-89027000D01*
X120777000Y-89027000D01*
X120777000Y-90226250D01*
X120935750Y-90385000D01*
X121160001Y-90386221D01*
X121160000Y-94590367D01*
X121156324Y-94627690D01*
X121160000Y-94665012D01*
X121160000Y-94665022D01*
X121170997Y-94776675D01*
X121210260Y-94906111D01*
X121214454Y-94919936D01*
X121285026Y-95051966D01*
X121316851Y-95090744D01*
X121379999Y-95167691D01*
X121409003Y-95191494D01*
X131213515Y-104996008D01*
X131237309Y-105025001D01*
X131266302Y-105048795D01*
X131266306Y-105048799D01*
X131336995Y-105106811D01*
X131353034Y-105119974D01*
X131485063Y-105190546D01*
X131628324Y-105234003D01*
X131739977Y-105245000D01*
X131739986Y-105245000D01*
X131777309Y-105248676D01*
X131814632Y-105245000D01*
X134247335Y-105245000D01*
X134133753Y-105279454D01*
X134001724Y-105350026D01*
X133885999Y-105444999D01*
X133862201Y-105473997D01*
X127066199Y-112270000D01*
X118686711Y-112270000D01*
X118642774Y-112226063D01*
X118473256Y-112112795D01*
X118284898Y-112034774D01*
X118084939Y-111995000D01*
X117881061Y-111995000D01*
X117681102Y-112034774D01*
X117492744Y-112112795D01*
X117323226Y-112226063D01*
X117179063Y-112370226D01*
X117065795Y-112539744D01*
X116987774Y-112728102D01*
X116948000Y-112928061D01*
X87045000Y-112928061D01*
X87045000Y-109213088D01*
X100012688Y-109213088D01*
X100013776Y-109237961D01*
X100077276Y-109682461D01*
X100080510Y-109698044D01*
X100089408Y-109721296D01*
X100279908Y-110102296D01*
X100295936Y-110126803D01*
X100613436Y-110507803D01*
X100627689Y-110522356D01*
X100647990Y-110536767D01*
X101092490Y-110790767D01*
X101104293Y-110796719D01*
X101127950Y-110804476D01*
X101699450Y-110931476D01*
X101727133Y-110934500D01*
X101751907Y-110932034D01*
X102069407Y-110868534D01*
X102075302Y-110867208D01*
X102329302Y-110803708D01*
X102355296Y-110794092D01*
X102609296Y-110667092D01*
X102631836Y-110652670D01*
X102949336Y-110398670D01*
X102971600Y-110375700D01*
X103162100Y-110121700D01*
X103174092Y-110102296D01*
X103364592Y-109721296D01*
X103371525Y-109704535D01*
X103377019Y-109680252D01*
X103440519Y-109172252D01*
X103439772Y-109135621D01*
X103376272Y-108754621D01*
X103373490Y-108741956D01*
X103364592Y-108718704D01*
X103174092Y-108337704D01*
X103159670Y-108315164D01*
X102905670Y-107997664D01*
X102882700Y-107975400D01*
X102628700Y-107784900D01*
X102609296Y-107772908D01*
X102355296Y-107645908D01*
X102338661Y-107639017D01*
X102148161Y-107575517D01*
X102132776Y-107571440D01*
X102108000Y-107569000D01*
X101938110Y-107569000D01*
X101767161Y-107512017D01*
X101751646Y-107507914D01*
X101726867Y-107505500D01*
X101702093Y-107507966D01*
X101384593Y-107571466D01*
X101378698Y-107572792D01*
X101124698Y-107636292D01*
X101098704Y-107645908D01*
X100717704Y-107836408D01*
X100703943Y-107844403D01*
X100684697Y-107860197D01*
X100367197Y-108177697D01*
X100356671Y-108189634D01*
X100343408Y-108210704D01*
X100152908Y-108591704D01*
X100142524Y-108620950D01*
X100015524Y-109192450D01*
X100012688Y-109213088D01*
X87045000Y-109213088D01*
X87045000Y-87660505D01*
X87072202Y-87355701D01*
X88655000Y-87355701D01*
X88655000Y-87904299D01*
X88762026Y-88442354D01*
X88971965Y-88949192D01*
X89276750Y-89405334D01*
X89664666Y-89793250D01*
X90120808Y-90098035D01*
X90627646Y-90307974D01*
X91165701Y-90415000D01*
X91714299Y-90415000D01*
X92252354Y-90307974D01*
X92759192Y-90098035D01*
X93215334Y-89793250D01*
X93603250Y-89405334D01*
X93908035Y-88949192D01*
X94117974Y-88442354D01*
X94225000Y-87904299D01*
X94225000Y-87355701D01*
X94163908Y-87048570D01*
X105171000Y-87048570D01*
X105171000Y-87449430D01*
X105249204Y-87842587D01*
X105402607Y-88212934D01*
X105625313Y-88546237D01*
X105908763Y-88829687D01*
X106242066Y-89052393D01*
X106612413Y-89205796D01*
X107005570Y-89284000D01*
X107406430Y-89284000D01*
X107799587Y-89205796D01*
X108003522Y-89121323D01*
X110896700Y-92014502D01*
X110920499Y-92043501D01*
X110949497Y-92067299D01*
X111036224Y-92138474D01*
X111168253Y-92209046D01*
X111311514Y-92252503D01*
X111460500Y-92267177D01*
X111497833Y-92263500D01*
X114429699Y-92263500D01*
X117159501Y-94993303D01*
X117159500Y-102166289D01*
X117115563Y-102210226D01*
X117002295Y-102379744D01*
X116924274Y-102568102D01*
X116884500Y-102768061D01*
X116884500Y-102971939D01*
X116924274Y-103171898D01*
X117002295Y-103360256D01*
X117115563Y-103529774D01*
X117259726Y-103673937D01*
X117429244Y-103787205D01*
X117617602Y-103865226D01*
X117817561Y-103905000D01*
X118021439Y-103905000D01*
X118221398Y-103865226D01*
X118409756Y-103787205D01*
X118579274Y-103673937D01*
X118723437Y-103529774D01*
X118836705Y-103360256D01*
X118914726Y-103171898D01*
X118954500Y-102971939D01*
X118954500Y-102768061D01*
X118914726Y-102568102D01*
X118836705Y-102379744D01*
X118723437Y-102210226D01*
X118679500Y-102166289D01*
X118679500Y-94715822D01*
X118683176Y-94678499D01*
X118679500Y-94641176D01*
X118679500Y-94641167D01*
X118668503Y-94529514D01*
X118625046Y-94386253D01*
X118592305Y-94324999D01*
X118554474Y-94254223D01*
X118483299Y-94167497D01*
X118459501Y-94138499D01*
X118430503Y-94114701D01*
X115308304Y-90992503D01*
X115284501Y-90963499D01*
X115168776Y-90868526D01*
X115036747Y-90797954D01*
X114893486Y-90754497D01*
X114781833Y-90743500D01*
X114781822Y-90743500D01*
X114744500Y-90739824D01*
X114707178Y-90743500D01*
X111775302Y-90743500D01*
X110781802Y-89750000D01*
X119161928Y-89750000D01*
X119174188Y-89874482D01*
X119210498Y-89994180D01*
X119269463Y-90104494D01*
X119348815Y-90201185D01*
X119445506Y-90280537D01*
X119555820Y-90339502D01*
X119675518Y-90375812D01*
X119800000Y-90388072D01*
X120364250Y-90385000D01*
X120523000Y-90226250D01*
X120523000Y-89027000D01*
X119323750Y-89027000D01*
X119165000Y-89185750D01*
X119161928Y-89750000D01*
X110781802Y-89750000D01*
X109078323Y-88046522D01*
X109162796Y-87842587D01*
X109241000Y-87449430D01*
X109241000Y-87048570D01*
X110741000Y-87048570D01*
X110741000Y-87449430D01*
X110819204Y-87842587D01*
X110972607Y-88212934D01*
X111195313Y-88546237D01*
X111478763Y-88829687D01*
X111812066Y-89052393D01*
X112182413Y-89205796D01*
X112575570Y-89284000D01*
X112976430Y-89284000D01*
X113369587Y-89205796D01*
X113739934Y-89052393D01*
X114073237Y-88829687D01*
X114356687Y-88546237D01*
X114579393Y-88212934D01*
X114732796Y-87842587D01*
X114811000Y-87449430D01*
X114811000Y-87048570D01*
X114732796Y-86655413D01*
X114579393Y-86285066D01*
X114356687Y-85951763D01*
X114073237Y-85668313D01*
X113739934Y-85445607D01*
X113369587Y-85292204D01*
X112976430Y-85214000D01*
X112575570Y-85214000D01*
X112182413Y-85292204D01*
X111812066Y-85445607D01*
X111478763Y-85668313D01*
X111195313Y-85951763D01*
X110972607Y-86285066D01*
X110819204Y-86655413D01*
X110741000Y-87048570D01*
X109241000Y-87048570D01*
X109162796Y-86655413D01*
X109009393Y-86285066D01*
X108786687Y-85951763D01*
X108503237Y-85668313D01*
X108169934Y-85445607D01*
X107799587Y-85292204D01*
X107406430Y-85214000D01*
X107005570Y-85214000D01*
X106612413Y-85292204D01*
X106242066Y-85445607D01*
X105908763Y-85668313D01*
X105625313Y-85951763D01*
X105402607Y-86285066D01*
X105249204Y-86655413D01*
X105171000Y-87048570D01*
X94163908Y-87048570D01*
X94117974Y-86817646D01*
X93908035Y-86310808D01*
X93603250Y-85854666D01*
X93215334Y-85466750D01*
X92759192Y-85161965D01*
X92252354Y-84952026D01*
X91714299Y-84845000D01*
X91165701Y-84845000D01*
X90627646Y-84952026D01*
X90120808Y-85161965D01*
X89664666Y-85466750D01*
X89276750Y-85854666D01*
X88971965Y-86310808D01*
X88762026Y-86817646D01*
X88655000Y-87355701D01*
X87072202Y-87355701D01*
X87117139Y-86852197D01*
X87323197Y-86098977D01*
X87659384Y-85394148D01*
X88115065Y-84759998D01*
X88675851Y-84216559D01*
X89324001Y-83781019D01*
X90039043Y-83467138D01*
X90803636Y-83283576D01*
X91465112Y-83235000D01*
X191739495Y-83235000D01*
X192547803Y-83307139D01*
X192547803Y-83307139D01*
G37*
X192547803Y-83307139D02*
X193301023Y-83513197D01*
X194005852Y-83849384D01*
X194640002Y-84305065D01*
X195183441Y-84865851D01*
X195618981Y-85514001D01*
X195932862Y-86229043D01*
X196116424Y-86993636D01*
X196165001Y-87655126D01*
X196165000Y-119349494D01*
X196092861Y-120157805D01*
X195886803Y-120911023D01*
X195550616Y-121615852D01*
X195094932Y-122250005D01*
X194534149Y-122793441D01*
X193885996Y-123228982D01*
X193170956Y-123542863D01*
X192406364Y-123726424D01*
X191744887Y-123775000D01*
X91470506Y-123775000D01*
X90662195Y-123702861D01*
X89908977Y-123496803D01*
X89204148Y-123160616D01*
X88569995Y-122704932D01*
X88026559Y-122144149D01*
X87591018Y-121495996D01*
X87277137Y-120780956D01*
X87093576Y-120016364D01*
X87045000Y-119354887D01*
X87045000Y-119105701D01*
X119135000Y-119105701D01*
X119135000Y-119654299D01*
X119242026Y-120192354D01*
X119451965Y-120699192D01*
X119756750Y-121155334D01*
X120144666Y-121543250D01*
X120600808Y-121848035D01*
X121107646Y-122057974D01*
X121645701Y-122165000D01*
X122194299Y-122165000D01*
X122732354Y-122057974D01*
X123239192Y-121848035D01*
X123695334Y-121543250D01*
X124083250Y-121155334D01*
X124388035Y-120699192D01*
X124597974Y-120192354D01*
X124705000Y-119654299D01*
X124705000Y-119105701D01*
X124597974Y-118567646D01*
X124388035Y-118060808D01*
X124083250Y-117604666D01*
X123695334Y-117216750D01*
X123239192Y-116911965D01*
X122732354Y-116702026D01*
X122194299Y-116595000D01*
X121645701Y-116595000D01*
X121107646Y-116702026D01*
X120600808Y-116911965D01*
X120144666Y-117216750D01*
X119756750Y-117604666D01*
X119451965Y-118060808D01*
X119242026Y-118567646D01*
X119135000Y-119105701D01*
X87045000Y-119105701D01*
X87045000Y-112928061D01*
X116948000Y-112928061D01*
X116948000Y-113131939D01*
X116987774Y-113331898D01*
X117065795Y-113520256D01*
X117179063Y-113689774D01*
X117319389Y-113830100D01*
X117204463Y-113945026D01*
X117091195Y-114114544D01*
X117013174Y-114302902D01*
X116973400Y-114502861D01*
X116973400Y-114706739D01*
X117013174Y-114906698D01*
X117091195Y-115095056D01*
X117204463Y-115264574D01*
X117348626Y-115408737D01*
X117518144Y-115522005D01*
X117706502Y-115600026D01*
X117906461Y-115639800D01*
X118110339Y-115639800D01*
X118310298Y-115600026D01*
X118498656Y-115522005D01*
X118668174Y-115408737D01*
X118724811Y-115352100D01*
X126306299Y-115352100D01*
X129533998Y-118579800D01*
X129534003Y-118579804D01*
X129572677Y-118618478D01*
X129488204Y-118822413D01*
X129410000Y-119215570D01*
X129410000Y-119616430D01*
X129488204Y-120009587D01*
X129641607Y-120379934D01*
X129864313Y-120713237D01*
X130147763Y-120996687D01*
X130481066Y-121219393D01*
X130851413Y-121372796D01*
X131244570Y-121451000D01*
X131645430Y-121451000D01*
X132038587Y-121372796D01*
X132408934Y-121219393D01*
X132742237Y-120996687D01*
X133025687Y-120713237D01*
X133248393Y-120379934D01*
X133401796Y-120009587D01*
X133480000Y-119616430D01*
X133480000Y-119215570D01*
X135760000Y-119215570D01*
X135760000Y-119616430D01*
X135838204Y-120009587D01*
X135991607Y-120379934D01*
X136214313Y-120713237D01*
X136497763Y-120996687D01*
X136831066Y-121219393D01*
X137201413Y-121372796D01*
X137594570Y-121451000D01*
X137995430Y-121451000D01*
X138388587Y-121372796D01*
X138758934Y-121219393D01*
X139092237Y-120996687D01*
X139375687Y-120713237D01*
X139598393Y-120379934D01*
X139751796Y-120009587D01*
X139830000Y-119616430D01*
X139830000Y-119215570D01*
X139751796Y-118822413D01*
X139598393Y-118452066D01*
X139375687Y-118118763D01*
X139092237Y-117835313D01*
X138758934Y-117612607D01*
X138388587Y-117459204D01*
X137995430Y-117381000D01*
X137594570Y-117381000D01*
X137201413Y-117459204D01*
X136831066Y-117612607D01*
X136497763Y-117835313D01*
X136214313Y-118118763D01*
X135991607Y-118452066D01*
X135838204Y-118822413D01*
X135760000Y-119215570D01*
X133480000Y-119215570D01*
X133401796Y-118822413D01*
X133248393Y-118452066D01*
X133025687Y-118118763D01*
X132742237Y-117835313D01*
X132408934Y-117612607D01*
X132038587Y-117459204D01*
X131645430Y-117381000D01*
X131244570Y-117381000D01*
X130851413Y-117459204D01*
X130647478Y-117543677D01*
X130608804Y-117505003D01*
X130608800Y-117504998D01*
X127695901Y-114592100D01*
X131759413Y-110528589D01*
X135553500Y-110528589D01*
X135553500Y-110718939D01*
X135593274Y-110918898D01*
X135671295Y-111107256D01*
X135677807Y-111117002D01*
X135671295Y-111126747D01*
X135593274Y-111315105D01*
X135553500Y-111515064D01*
X135553500Y-111718942D01*
X135593274Y-111918901D01*
X135671295Y-112107259D01*
X135784563Y-112276777D01*
X135928726Y-112420940D01*
X136098244Y-112534208D01*
X136286602Y-112612229D01*
X136486561Y-112652003D01*
X136690439Y-112652003D01*
X136890398Y-112612229D01*
X137078756Y-112534208D01*
X137111992Y-112512000D01*
X138450928Y-112512000D01*
X138463188Y-112636482D01*
X138499498Y-112756180D01*
X138558463Y-112866494D01*
X138637815Y-112963185D01*
X138734506Y-113042537D01*
X138844820Y-113101502D01*
X138964518Y-113137812D01*
X139089000Y-113150072D01*
X139303250Y-113147000D01*
X139462000Y-112988250D01*
X139462000Y-112014000D01*
X138612750Y-112014000D01*
X138454000Y-112172750D01*
X138450928Y-112512000D01*
X137111992Y-112512000D01*
X137248274Y-112420940D01*
X137392437Y-112276777D01*
X137505705Y-112107259D01*
X137583726Y-111918901D01*
X137620803Y-111732500D01*
X138500413Y-110852891D01*
X138544034Y-110934500D01*
X138499498Y-111017820D01*
X138463188Y-111137518D01*
X138450928Y-111262000D01*
X138454000Y-111601250D01*
X138612750Y-111760000D01*
X139462000Y-111760000D01*
X139462000Y-110109000D01*
X139442000Y-110109000D01*
X139442000Y-109855000D01*
X139462000Y-109855000D01*
X139462000Y-109835000D01*
X139716000Y-109835000D01*
X139716000Y-109855000D01*
X139736000Y-109855000D01*
X139736000Y-110109000D01*
X139716000Y-110109000D01*
X139716000Y-111760000D01*
X139736000Y-111760000D01*
X139736000Y-112014000D01*
X139716000Y-112014000D01*
X139716000Y-112988250D01*
X139874750Y-113147000D01*
X140089000Y-113150072D01*
X140213482Y-113137812D01*
X140333180Y-113101502D01*
X140443494Y-113042537D01*
X140540185Y-112963185D01*
X140589000Y-112903704D01*
X140624387Y-112946823D01*
X140609774Y-112982102D01*
X140570000Y-113182061D01*
X140570000Y-113385939D01*
X140609774Y-113585898D01*
X140687795Y-113774256D01*
X140801063Y-113943774D01*
X140945226Y-114087937D01*
X141114744Y-114201205D01*
X141303102Y-114279226D01*
X141503061Y-114319000D01*
X141706939Y-114319000D01*
X141906898Y-114279226D01*
X142095256Y-114201205D01*
X142264774Y-114087937D01*
X142408937Y-113943774D01*
X142522205Y-113774256D01*
X142595001Y-113598513D01*
X142595001Y-116647668D01*
X142591324Y-116685000D01*
X142605998Y-116833985D01*
X142649454Y-116977246D01*
X142720026Y-117109276D01*
X142791201Y-117196002D01*
X142815000Y-117225001D01*
X142843998Y-117248799D01*
X143490199Y-117895000D01*
X143437050Y-117895000D01*
X143218889Y-117916487D01*
X142938966Y-118001401D01*
X142680986Y-118139294D01*
X142454866Y-118324866D01*
X142269294Y-118550986D01*
X142131401Y-118808966D01*
X142046487Y-119088889D01*
X142017815Y-119380000D01*
X142046487Y-119671111D01*
X142131401Y-119951034D01*
X142269294Y-120209014D01*
X142454866Y-120435134D01*
X142680986Y-120620706D01*
X142938966Y-120758599D01*
X143218889Y-120843513D01*
X143437050Y-120865000D01*
X143582950Y-120865000D01*
X143801111Y-120843513D01*
X144081034Y-120758599D01*
X144339014Y-120620706D01*
X144565134Y-120435134D01*
X144750706Y-120209014D01*
X144780000Y-120154209D01*
X144809294Y-120209014D01*
X144994866Y-120435134D01*
X145220986Y-120620706D01*
X145478966Y-120758599D01*
X145758889Y-120843513D01*
X145977050Y-120865000D01*
X146122950Y-120865000D01*
X146341111Y-120843513D01*
X146621034Y-120758599D01*
X146879014Y-120620706D01*
X147105134Y-120435134D01*
X147290706Y-120209014D01*
X147320000Y-120154209D01*
X147349294Y-120209014D01*
X147534866Y-120435134D01*
X147760986Y-120620706D01*
X148018966Y-120758599D01*
X148298889Y-120843513D01*
X148517050Y-120865000D01*
X148662950Y-120865000D01*
X148881111Y-120843513D01*
X149161034Y-120758599D01*
X149419014Y-120620706D01*
X149645134Y-120435134D01*
X149830706Y-120209014D01*
X149860000Y-120154209D01*
X149889294Y-120209014D01*
X150074866Y-120435134D01*
X150300986Y-120620706D01*
X150558966Y-120758599D01*
X150838889Y-120843513D01*
X151057050Y-120865000D01*
X151202950Y-120865000D01*
X151421111Y-120843513D01*
X151701034Y-120758599D01*
X151959014Y-120620706D01*
X152185134Y-120435134D01*
X152209607Y-120405313D01*
X152230498Y-120474180D01*
X152289463Y-120584494D01*
X152368815Y-120681185D01*
X152465506Y-120760537D01*
X152575820Y-120819502D01*
X152695518Y-120855812D01*
X152820000Y-120868072D01*
X154520000Y-120868072D01*
X154644482Y-120855812D01*
X154764180Y-120819502D01*
X154874494Y-120760537D01*
X154971185Y-120681185D01*
X155050537Y-120584494D01*
X155109502Y-120474180D01*
X155145812Y-120354482D01*
X155158072Y-120230000D01*
X155158072Y-119179570D01*
X157985000Y-119179570D01*
X157985000Y-119580430D01*
X158063204Y-119973587D01*
X158216607Y-120343934D01*
X158439313Y-120677237D01*
X158722763Y-120960687D01*
X159056066Y-121183393D01*
X159426413Y-121336796D01*
X159819570Y-121415000D01*
X160220430Y-121415000D01*
X160613587Y-121336796D01*
X160983934Y-121183393D01*
X161317237Y-120960687D01*
X161600687Y-120677237D01*
X161823393Y-120343934D01*
X161976796Y-119973587D01*
X162055000Y-119580430D01*
X162055000Y-119179570D01*
X164335000Y-119179570D01*
X164335000Y-119580430D01*
X164413204Y-119973587D01*
X164566607Y-120343934D01*
X164789313Y-120677237D01*
X165072763Y-120960687D01*
X165406066Y-121183393D01*
X165776413Y-121336796D01*
X166169570Y-121415000D01*
X166570430Y-121415000D01*
X166963587Y-121336796D01*
X167333934Y-121183393D01*
X167667237Y-120960687D01*
X167950687Y-120677237D01*
X168173393Y-120343934D01*
X168326796Y-119973587D01*
X168405000Y-119580430D01*
X168405000Y-119179570D01*
X168390307Y-119105701D01*
X188985000Y-119105701D01*
X188985000Y-119654299D01*
X189092026Y-120192354D01*
X189301965Y-120699192D01*
X189606750Y-121155334D01*
X189994666Y-121543250D01*
X190450808Y-121848035D01*
X190957646Y-122057974D01*
X191495701Y-122165000D01*
X192044299Y-122165000D01*
X192582354Y-122057974D01*
X193089192Y-121848035D01*
X193545334Y-121543250D01*
X193933250Y-121155334D01*
X194238035Y-120699192D01*
X194447974Y-120192354D01*
X194555000Y-119654299D01*
X194555000Y-119105701D01*
X194447974Y-118567646D01*
X194238035Y-118060808D01*
X193933250Y-117604666D01*
X193545334Y-117216750D01*
X193089192Y-116911965D01*
X192582354Y-116702026D01*
X192044299Y-116595000D01*
X191495701Y-116595000D01*
X190957646Y-116702026D01*
X190450808Y-116911965D01*
X189994666Y-117216750D01*
X189606750Y-117604666D01*
X189301965Y-118060808D01*
X189092026Y-118567646D01*
X188985000Y-119105701D01*
X168390307Y-119105701D01*
X168326796Y-118786413D01*
X168173393Y-118416066D01*
X167950687Y-118082763D01*
X167667237Y-117799313D01*
X167333934Y-117576607D01*
X166963587Y-117423204D01*
X166570430Y-117345000D01*
X166169570Y-117345000D01*
X165776413Y-117423204D01*
X165406066Y-117576607D01*
X165072763Y-117799313D01*
X164789313Y-118082763D01*
X164566607Y-118416066D01*
X164413204Y-118786413D01*
X164335000Y-119179570D01*
X162055000Y-119179570D01*
X161976796Y-118786413D01*
X161823393Y-118416066D01*
X161600687Y-118082763D01*
X161317237Y-117799313D01*
X160983934Y-117576607D01*
X160613587Y-117423204D01*
X160220430Y-117345000D01*
X159819570Y-117345000D01*
X159426413Y-117423204D01*
X159056066Y-117576607D01*
X158722763Y-117799313D01*
X158439313Y-118082763D01*
X158216607Y-118416066D01*
X158063204Y-118786413D01*
X157985000Y-119179570D01*
X155158072Y-119179570D01*
X155158072Y-118530000D01*
X155145812Y-118405518D01*
X155109502Y-118285820D01*
X155050537Y-118175506D01*
X154971185Y-118078815D01*
X154874494Y-117999463D01*
X154764180Y-117940498D01*
X154644482Y-117904188D01*
X154520000Y-117891928D01*
X153256730Y-117891928D01*
X145615000Y-110250199D01*
X145615000Y-109591000D01*
X158151928Y-109591000D01*
X158164188Y-109715482D01*
X158200498Y-109835180D01*
X158259463Y-109945494D01*
X158338815Y-110042185D01*
X158435506Y-110121537D01*
X158545820Y-110180502D01*
X158665518Y-110216812D01*
X158790000Y-110229072D01*
X159004250Y-110226000D01*
X159163000Y-110067250D01*
X159163000Y-109093000D01*
X158313750Y-109093000D01*
X158155000Y-109251750D01*
X158151928Y-109591000D01*
X145615000Y-109591000D01*
X145615000Y-109211357D01*
X145640289Y-109208564D01*
X145759341Y-109170189D01*
X145868619Y-109109325D01*
X145963923Y-109028312D01*
X146041591Y-108930263D01*
X146098638Y-108818945D01*
X146132871Y-108698637D01*
X146142977Y-108573961D01*
X146140000Y-108270750D01*
X146049250Y-108180000D01*
X147961928Y-108180000D01*
X147974188Y-108304482D01*
X148010498Y-108424180D01*
X148069463Y-108534494D01*
X148148815Y-108631185D01*
X148245506Y-108710537D01*
X148355820Y-108769502D01*
X148475518Y-108805812D01*
X148600000Y-108818072D01*
X148939250Y-108815000D01*
X149098000Y-108656250D01*
X149098000Y-107807000D01*
X149352000Y-107807000D01*
X149352000Y-108656250D01*
X149510750Y-108815000D01*
X149850000Y-108818072D01*
X149974482Y-108805812D01*
X150094180Y-108769502D01*
X150177500Y-108724966D01*
X150260820Y-108769502D01*
X150380518Y-108805812D01*
X150505000Y-108818072D01*
X150844250Y-108815000D01*
X151003000Y-108656250D01*
X151003000Y-107807000D01*
X151257000Y-107807000D01*
X151257000Y-108656250D01*
X151415750Y-108815000D01*
X151755000Y-108818072D01*
X151879482Y-108805812D01*
X151999180Y-108769502D01*
X152109494Y-108710537D01*
X152206185Y-108631185D01*
X152285537Y-108534494D01*
X152344502Y-108424180D01*
X152380812Y-108304482D01*
X152393072Y-108180000D01*
X152390000Y-107965750D01*
X152231250Y-107807000D01*
X151257000Y-107807000D01*
X151003000Y-107807000D01*
X149352000Y-107807000D01*
X149098000Y-107807000D01*
X148123750Y-107807000D01*
X147965000Y-107965750D01*
X147961928Y-108180000D01*
X146049250Y-108180000D01*
X145981250Y-108112000D01*
X145643072Y-108112000D01*
X145643072Y-107858000D01*
X145981250Y-107858000D01*
X146140000Y-107699250D01*
X146142977Y-107396039D01*
X146132871Y-107271363D01*
X146098638Y-107151055D01*
X146041591Y-107039737D01*
X145963923Y-106941688D01*
X145868619Y-106860675D01*
X145759341Y-106799811D01*
X145640289Y-106761436D01*
X145536750Y-106750000D01*
X145399475Y-106887275D01*
X145359494Y-106854463D01*
X145249180Y-106795498D01*
X145205497Y-106782247D01*
X145173250Y-106750000D01*
X145129049Y-106754882D01*
X145140226Y-106727899D01*
X145180000Y-106527940D01*
X145180000Y-106465802D01*
X145265545Y-106380257D01*
X145390226Y-106504938D01*
X145559744Y-106618206D01*
X145748102Y-106696227D01*
X145948061Y-106736001D01*
X146151939Y-106736001D01*
X146351898Y-106696227D01*
X146410469Y-106671966D01*
X146521055Y-106728638D01*
X146641363Y-106762871D01*
X146766039Y-106772977D01*
X147069250Y-106770000D01*
X147228000Y-106611250D01*
X147228000Y-106273072D01*
X147482000Y-106273072D01*
X147482000Y-106611250D01*
X147640750Y-106770000D01*
X147943961Y-106772977D01*
X148068637Y-106762871D01*
X148136778Y-106743482D01*
X148069463Y-106825506D01*
X148010498Y-106935820D01*
X147974188Y-107055518D01*
X147961928Y-107180000D01*
X147965000Y-107394250D01*
X148123750Y-107553000D01*
X149098000Y-107553000D01*
X149098000Y-107533000D01*
X149352000Y-107533000D01*
X149352000Y-107553000D01*
X151003000Y-107553000D01*
X151003000Y-107533000D01*
X151257000Y-107533000D01*
X151257000Y-107553000D01*
X152231250Y-107553000D01*
X152390000Y-107394250D01*
X152392343Y-107230815D01*
X152419820Y-107245502D01*
X152539518Y-107281812D01*
X152664000Y-107294072D01*
X153003250Y-107291000D01*
X153162000Y-107132250D01*
X153162000Y-106283000D01*
X153142000Y-106283000D01*
X153142000Y-106051000D01*
X153436000Y-106051000D01*
X153436000Y-106283000D01*
X153416000Y-106283000D01*
X153416000Y-107132250D01*
X153574750Y-107291000D01*
X153914000Y-107294072D01*
X154038482Y-107281812D01*
X154158180Y-107245502D01*
X154241500Y-107200966D01*
X154324820Y-107245502D01*
X154444518Y-107281812D01*
X154569000Y-107294072D01*
X155819000Y-107294072D01*
X155943482Y-107281812D01*
X156063180Y-107245502D01*
X156173494Y-107186537D01*
X156270185Y-107107185D01*
X156316295Y-107051000D01*
X156442090Y-107051000D01*
X156445568Y-107081671D01*
X156484493Y-107200544D01*
X156545861Y-107309539D01*
X156627314Y-107404467D01*
X156725722Y-107481681D01*
X156837302Y-107538213D01*
X156957767Y-107571890D01*
X157082488Y-107581419D01*
X157189250Y-107578500D01*
X157347998Y-107419752D01*
X157347998Y-107578500D01*
X157469868Y-107578500D01*
X157471688Y-107596982D01*
X157507998Y-107716680D01*
X157566963Y-107826994D01*
X157646315Y-107923685D01*
X157743006Y-108003037D01*
X157853320Y-108062002D01*
X157973018Y-108098312D01*
X158097500Y-108110572D01*
X158196326Y-108110572D01*
X158164188Y-108216518D01*
X158151928Y-108341000D01*
X158155000Y-108680250D01*
X158313750Y-108839000D01*
X159163000Y-108839000D01*
X159163000Y-108819000D01*
X159417000Y-108819000D01*
X159417000Y-108839000D01*
X159437000Y-108839000D01*
X159437000Y-109093000D01*
X159417000Y-109093000D01*
X159417000Y-110067250D01*
X159575750Y-110226000D01*
X159790000Y-110229072D01*
X159914482Y-110216812D01*
X160034180Y-110180502D01*
X160144494Y-110121537D01*
X160241185Y-110042185D01*
X160290000Y-109982704D01*
X160338815Y-110042185D01*
X160435506Y-110121537D01*
X160545820Y-110180502D01*
X160665518Y-110216812D01*
X160790000Y-110229072D01*
X161790000Y-110229072D01*
X161914482Y-110216812D01*
X162034180Y-110180502D01*
X162144494Y-110121537D01*
X162241185Y-110042185D01*
X162300676Y-109969694D01*
X162458061Y-110001000D01*
X162661939Y-110001000D01*
X162861898Y-109961226D01*
X163050256Y-109883205D01*
X163219774Y-109769937D01*
X163363937Y-109625774D01*
X163477205Y-109456256D01*
X163555226Y-109267898D01*
X163595000Y-109067939D01*
X163595000Y-108864061D01*
X163555226Y-108664102D01*
X163477205Y-108475744D01*
X163363937Y-108306226D01*
X163219774Y-108162063D01*
X163050256Y-108048795D01*
X162861898Y-107970774D01*
X162661939Y-107931000D01*
X162458061Y-107931000D01*
X162300676Y-107962306D01*
X162241185Y-107889815D01*
X162144494Y-107810463D01*
X162050000Y-107759954D01*
X162050000Y-106936823D01*
X162053676Y-106899500D01*
X162050000Y-106862177D01*
X162050000Y-106862167D01*
X162039003Y-106750514D01*
X161995546Y-106607253D01*
X161956655Y-106534494D01*
X161924974Y-106475223D01*
X161853799Y-106388497D01*
X161830001Y-106359499D01*
X161801002Y-106335700D01*
X161784938Y-106319636D01*
X161785518Y-106319812D01*
X161910000Y-106332072D01*
X162274250Y-106329000D01*
X162433000Y-106170250D01*
X162433000Y-105471000D01*
X162687000Y-105471000D01*
X162687000Y-106170250D01*
X162845750Y-106329000D01*
X163210000Y-106332072D01*
X163334482Y-106319812D01*
X163454180Y-106283502D01*
X163564494Y-106224537D01*
X163661185Y-106145185D01*
X163740537Y-106048494D01*
X163799502Y-105938180D01*
X163835812Y-105818482D01*
X163848072Y-105694000D01*
X163845000Y-105629750D01*
X163686250Y-105471000D01*
X162687000Y-105471000D01*
X162433000Y-105471000D01*
X162413000Y-105471000D01*
X162413000Y-105217000D01*
X162433000Y-105217000D01*
X162433000Y-105197000D01*
X162687000Y-105197000D01*
X162687000Y-105217000D01*
X163686250Y-105217000D01*
X163845000Y-105058250D01*
X163848072Y-104994000D01*
X163835812Y-104869518D01*
X163799502Y-104749820D01*
X163740537Y-104639506D01*
X163661185Y-104542815D01*
X163564494Y-104463463D01*
X163454180Y-104404498D01*
X163419573Y-104394000D01*
X163454180Y-104383502D01*
X163564494Y-104324537D01*
X163661185Y-104245185D01*
X163740537Y-104148494D01*
X163799502Y-104038180D01*
X163835812Y-103918482D01*
X163848072Y-103794000D01*
X163848072Y-103094000D01*
X163835812Y-102969518D01*
X163799502Y-102849820D01*
X163740537Y-102739506D01*
X163661185Y-102642815D01*
X163564494Y-102563463D01*
X163454180Y-102504498D01*
X163334482Y-102468188D01*
X163210000Y-102455928D01*
X161910000Y-102455928D01*
X161785518Y-102468188D01*
X161665820Y-102504498D01*
X161555506Y-102563463D01*
X161458815Y-102642815D01*
X161425015Y-102684000D01*
X160194853Y-102684000D01*
X160194853Y-102617288D01*
X160155079Y-102417329D01*
X160077058Y-102228971D01*
X159963790Y-102059453D01*
X159819627Y-101915290D01*
X159650109Y-101802022D01*
X159461751Y-101724001D01*
X159261792Y-101684227D01*
X159173845Y-101684227D01*
X159063853Y-101625434D01*
X158920592Y-101581977D01*
X158808939Y-101570980D01*
X158808928Y-101570980D01*
X158771606Y-101567304D01*
X158734284Y-101570980D01*
X149869273Y-101570980D01*
X149666350Y-101570982D01*
X149629019Y-101567305D01*
X149480033Y-101581978D01*
X149336773Y-101625435D01*
X149204744Y-101696007D01*
X149204743Y-101696008D01*
X149204741Y-101696009D01*
X149169416Y-101725000D01*
X148584208Y-101725000D01*
X148593072Y-101635000D01*
X148593072Y-101335000D01*
X148583223Y-101235000D01*
X148593072Y-101135000D01*
X148593072Y-100835000D01*
X148583223Y-100735000D01*
X148593072Y-100635000D01*
X148593072Y-100335000D01*
X148583223Y-100235000D01*
X148593072Y-100135000D01*
X148593072Y-99835000D01*
X148583223Y-99735000D01*
X148593072Y-99635000D01*
X148593072Y-99335000D01*
X148584208Y-99245000D01*
X151546928Y-99245000D01*
X151546928Y-100545000D01*
X151559188Y-100669482D01*
X151595498Y-100789180D01*
X151654463Y-100899494D01*
X151733815Y-100996185D01*
X151830506Y-101075537D01*
X151940820Y-101134502D01*
X152060518Y-101170812D01*
X152185000Y-101183072D01*
X153885000Y-101183072D01*
X154009482Y-101170812D01*
X154129180Y-101134502D01*
X154239494Y-101075537D01*
X154336185Y-100996185D01*
X154415537Y-100899494D01*
X154474502Y-100789180D01*
X154497498Y-100713374D01*
X154693645Y-100890178D01*
X154943748Y-101039157D01*
X155218109Y-101136481D01*
X155448000Y-101015814D01*
X155448000Y-99822000D01*
X155702000Y-99822000D01*
X155702000Y-101015814D01*
X155931891Y-101136481D01*
X156206252Y-101039157D01*
X156456355Y-100890178D01*
X156672588Y-100695269D01*
X156846641Y-100461920D01*
X156971825Y-100199099D01*
X157016476Y-100051890D01*
X156895155Y-99822000D01*
X155702000Y-99822000D01*
X155448000Y-99822000D01*
X155428000Y-99822000D01*
X155428000Y-99568000D01*
X155448000Y-99568000D01*
X155448000Y-99548000D01*
X155702000Y-99548000D01*
X155702000Y-99568000D01*
X156895155Y-99568000D01*
X157016476Y-99338110D01*
X156971825Y-99190901D01*
X156846641Y-98928080D01*
X156672588Y-98694731D01*
X156456355Y-98499822D01*
X156339477Y-98430201D01*
X156404014Y-98395706D01*
X156630134Y-98210134D01*
X156815706Y-97984014D01*
X156953599Y-97726034D01*
X157038513Y-97446111D01*
X157067185Y-97155000D01*
X157038513Y-96863889D01*
X156953599Y-96583966D01*
X156815706Y-96325986D01*
X156630134Y-96099866D01*
X156404014Y-95914294D01*
X156349209Y-95885000D01*
X156404014Y-95855706D01*
X156630134Y-95670134D01*
X156815706Y-95444014D01*
X156953599Y-95186034D01*
X157038513Y-94906111D01*
X157067185Y-94615000D01*
X157038513Y-94323889D01*
X156953599Y-94043966D01*
X156815706Y-93785986D01*
X156786164Y-93749989D01*
X162142778Y-93749989D01*
X165413990Y-97021202D01*
X165413991Y-112626657D01*
X165410314Y-112663990D01*
X165413991Y-112701323D01*
X165414275Y-112704201D01*
X165424988Y-112812975D01*
X165468444Y-112956236D01*
X165539016Y-113088266D01*
X165610191Y-113174992D01*
X165633990Y-113203991D01*
X165662988Y-113227789D01*
X167246201Y-114811003D01*
X167269999Y-114840001D01*
X167298997Y-114863799D01*
X167385724Y-114934974D01*
X167421928Y-114954326D01*
X167421928Y-115150000D01*
X167434188Y-115274482D01*
X167470498Y-115394180D01*
X167529463Y-115504494D01*
X167608815Y-115601185D01*
X167705506Y-115680537D01*
X167815820Y-115739502D01*
X167935518Y-115775812D01*
X168060000Y-115788072D01*
X169760000Y-115788072D01*
X169884482Y-115775812D01*
X170004180Y-115739502D01*
X170114494Y-115680537D01*
X170211185Y-115601185D01*
X170290537Y-115504494D01*
X170349502Y-115394180D01*
X170385812Y-115274482D01*
X170398072Y-115150000D01*
X170398072Y-113450000D01*
X170385812Y-113325518D01*
X170349502Y-113205820D01*
X170290537Y-113095506D01*
X170211185Y-112998815D01*
X170114494Y-112919463D01*
X170004180Y-112860498D01*
X169935313Y-112839607D01*
X169965134Y-112815134D01*
X170150706Y-112589014D01*
X170288599Y-112331034D01*
X170373513Y-112051111D01*
X170402185Y-111760000D01*
X170373513Y-111468889D01*
X170288599Y-111188966D01*
X170150706Y-110930986D01*
X169965134Y-110704866D01*
X169739014Y-110519294D01*
X169481034Y-110381401D01*
X169201111Y-110296487D01*
X168982950Y-110275000D01*
X168837050Y-110275000D01*
X168618889Y-110296487D01*
X168544005Y-110319203D01*
X167444802Y-109220000D01*
X182657815Y-109220000D01*
X182686487Y-109511111D01*
X182771401Y-109791034D01*
X182909294Y-110049014D01*
X183094866Y-110275134D01*
X183320986Y-110460706D01*
X183375791Y-110490000D01*
X183320986Y-110519294D01*
X183094866Y-110704866D01*
X182909294Y-110930986D01*
X182771401Y-111188966D01*
X182686487Y-111468889D01*
X182657815Y-111760000D01*
X182686487Y-112051111D01*
X182771401Y-112331034D01*
X182909294Y-112589014D01*
X183094866Y-112815134D01*
X183124687Y-112839607D01*
X183055820Y-112860498D01*
X182945506Y-112919463D01*
X182848815Y-112998815D01*
X182769463Y-113095506D01*
X182710498Y-113205820D01*
X182674188Y-113325518D01*
X182661928Y-113450000D01*
X182661928Y-115150000D01*
X182674188Y-115274482D01*
X182710498Y-115394180D01*
X182769463Y-115504494D01*
X182848815Y-115601185D01*
X182945506Y-115680537D01*
X183055820Y-115739502D01*
X183175518Y-115775812D01*
X183300000Y-115788072D01*
X185000000Y-115788072D01*
X185124482Y-115775812D01*
X185244180Y-115739502D01*
X185354494Y-115680537D01*
X185451185Y-115601185D01*
X185530537Y-115504494D01*
X185589502Y-115394180D01*
X185625812Y-115274482D01*
X185638072Y-115150000D01*
X185638072Y-113450000D01*
X185625812Y-113325518D01*
X185589502Y-113205820D01*
X185530537Y-113095506D01*
X185451185Y-112998815D01*
X185354494Y-112919463D01*
X185244180Y-112860498D01*
X185175313Y-112839607D01*
X185205134Y-112815134D01*
X185390706Y-112589014D01*
X185528599Y-112331034D01*
X185613513Y-112051111D01*
X185642185Y-111760000D01*
X185613513Y-111468889D01*
X185528599Y-111188966D01*
X185390706Y-110930986D01*
X185205134Y-110704866D01*
X184979014Y-110519294D01*
X184924209Y-110490000D01*
X184979014Y-110460706D01*
X185205134Y-110275134D01*
X185390706Y-110049014D01*
X185528599Y-109791034D01*
X185613513Y-109511111D01*
X185642185Y-109220000D01*
X185613513Y-108928889D01*
X185528599Y-108648966D01*
X185390706Y-108390986D01*
X185205134Y-108164866D01*
X184979014Y-107979294D01*
X184914477Y-107944799D01*
X185031355Y-107875178D01*
X185247588Y-107680269D01*
X185421641Y-107446920D01*
X185546825Y-107184099D01*
X185591476Y-107036890D01*
X185470155Y-106807000D01*
X184277000Y-106807000D01*
X184277000Y-106827000D01*
X184023000Y-106827000D01*
X184023000Y-106807000D01*
X182829845Y-106807000D01*
X182708524Y-107036890D01*
X182753175Y-107184099D01*
X182878359Y-107446920D01*
X183052412Y-107680269D01*
X183268645Y-107875178D01*
X183385523Y-107944799D01*
X183320986Y-107979294D01*
X183094866Y-108164866D01*
X182909294Y-108390986D01*
X182771401Y-108648966D01*
X182686487Y-108928889D01*
X182657815Y-109220000D01*
X167444802Y-109220000D01*
X167384000Y-109159199D01*
X167384000Y-100457000D01*
X167961931Y-100457000D01*
X167854866Y-100544866D01*
X167669294Y-100770986D01*
X167531401Y-101028966D01*
X167446487Y-101308889D01*
X167417815Y-101600000D01*
X167446487Y-101891111D01*
X167531401Y-102171034D01*
X167669294Y-102429014D01*
X167854866Y-102655134D01*
X168080986Y-102840706D01*
X168338966Y-102978599D01*
X168618889Y-103063513D01*
X168837050Y-103085000D01*
X168982950Y-103085000D01*
X169201111Y-103063513D01*
X169481034Y-102978599D01*
X169739014Y-102840706D01*
X169965134Y-102655134D01*
X170150706Y-102429014D01*
X170288599Y-102171034D01*
X170373513Y-101891111D01*
X170402185Y-101600000D01*
X170373513Y-101308889D01*
X170288599Y-101028966D01*
X170150706Y-100770986D01*
X169965134Y-100544866D01*
X169858069Y-100457000D01*
X183201931Y-100457000D01*
X183094866Y-100544866D01*
X182909294Y-100770986D01*
X182771401Y-101028966D01*
X182686487Y-101308889D01*
X182657815Y-101600000D01*
X182686487Y-101891111D01*
X182771401Y-102171034D01*
X182909294Y-102429014D01*
X183094866Y-102655134D01*
X183320986Y-102840706D01*
X183375791Y-102870000D01*
X183320986Y-102899294D01*
X183094866Y-103084866D01*
X182909294Y-103310986D01*
X182771401Y-103568966D01*
X182686487Y-103848889D01*
X182657815Y-104140000D01*
X182686487Y-104431111D01*
X182771401Y-104711034D01*
X182909294Y-104969014D01*
X183094866Y-105195134D01*
X183320986Y-105380706D01*
X183385523Y-105415201D01*
X183268645Y-105484822D01*
X183052412Y-105679731D01*
X182878359Y-105913080D01*
X182753175Y-106175901D01*
X182708524Y-106323110D01*
X182829845Y-106553000D01*
X184023000Y-106553000D01*
X184023000Y-106533000D01*
X184277000Y-106533000D01*
X184277000Y-106553000D01*
X185470155Y-106553000D01*
X185591476Y-106323110D01*
X185546825Y-106175901D01*
X185421641Y-105913080D01*
X185247588Y-105679731D01*
X185031355Y-105484822D01*
X184914477Y-105415201D01*
X184979014Y-105380706D01*
X185205134Y-105195134D01*
X185390706Y-104969014D01*
X185528599Y-104711034D01*
X185613513Y-104431111D01*
X185642185Y-104140000D01*
X185613513Y-103848889D01*
X185528599Y-103568966D01*
X185390706Y-103310986D01*
X185205134Y-103084866D01*
X184979014Y-102899294D01*
X184924209Y-102870000D01*
X184979014Y-102840706D01*
X185205134Y-102655134D01*
X185390706Y-102429014D01*
X185528599Y-102171034D01*
X185613513Y-101891111D01*
X185642185Y-101600000D01*
X185613513Y-101308889D01*
X185528599Y-101028966D01*
X185390706Y-100770986D01*
X185205134Y-100544866D01*
X185098069Y-100457000D01*
X186055000Y-100457000D01*
X186079776Y-100454560D01*
X186103601Y-100447333D01*
X186125557Y-100435597D01*
X186144803Y-100419803D01*
X186160597Y-100400557D01*
X186172333Y-100378601D01*
X186179560Y-100354776D01*
X186182000Y-100330000D01*
X186182000Y-87355701D01*
X188985000Y-87355701D01*
X188985000Y-87904299D01*
X189092026Y-88442354D01*
X189301965Y-88949192D01*
X189606750Y-89405334D01*
X189994666Y-89793250D01*
X190450808Y-90098035D01*
X190957646Y-90307974D01*
X191495701Y-90415000D01*
X192044299Y-90415000D01*
X192582354Y-90307974D01*
X193089192Y-90098035D01*
X193545334Y-89793250D01*
X193933250Y-89405334D01*
X194238035Y-88949192D01*
X194447974Y-88442354D01*
X194555000Y-87904299D01*
X194555000Y-87355701D01*
X194447974Y-86817646D01*
X194238035Y-86310808D01*
X193933250Y-85854666D01*
X193545334Y-85466750D01*
X193089192Y-85161965D01*
X192582354Y-84952026D01*
X192044299Y-84845000D01*
X191495701Y-84845000D01*
X190957646Y-84952026D01*
X190450808Y-85161965D01*
X189994666Y-85466750D01*
X189606750Y-85854666D01*
X189301965Y-86310808D01*
X189092026Y-86817646D01*
X188985000Y-87355701D01*
X186182000Y-87355701D01*
X186182000Y-84455000D01*
X186179560Y-84430224D01*
X186172333Y-84406399D01*
X186160597Y-84384443D01*
X186144803Y-84365197D01*
X186125557Y-84349403D01*
X186103601Y-84337667D01*
X186079776Y-84330440D01*
X186055000Y-84328000D01*
X167005000Y-84328000D01*
X166980224Y-84330440D01*
X166956399Y-84337667D01*
X166934443Y-84349403D01*
X166915197Y-84365197D01*
X166899403Y-84384443D01*
X166887667Y-84406399D01*
X166880440Y-84430224D01*
X166878000Y-84455000D01*
X166878000Y-95699198D01*
X163207783Y-92028982D01*
X163183980Y-91999978D01*
X163068255Y-91905005D01*
X162936226Y-91834433D01*
X162792965Y-91790976D01*
X162681312Y-91779979D01*
X162681301Y-91779979D01*
X162643979Y-91776303D01*
X162606657Y-91779979D01*
X145514823Y-91779979D01*
X145926004Y-91368798D01*
X145955001Y-91345001D01*
X145984953Y-91308504D01*
X146049974Y-91229277D01*
X146120546Y-91097247D01*
X146161117Y-90963499D01*
X146164003Y-90953986D01*
X146175000Y-90842333D01*
X146175000Y-90842324D01*
X146178676Y-90805001D01*
X146175000Y-90767678D01*
X146175000Y-90177595D01*
X146244014Y-90140706D01*
X146470134Y-89955134D01*
X146655706Y-89729014D01*
X146793599Y-89471034D01*
X146878513Y-89191111D01*
X146907185Y-88900000D01*
X146878513Y-88608889D01*
X146793599Y-88328966D01*
X146655706Y-88070986D01*
X146470134Y-87844866D01*
X146440313Y-87820393D01*
X146509180Y-87799502D01*
X146619494Y-87740537D01*
X146716185Y-87661185D01*
X146795537Y-87564494D01*
X146854502Y-87454180D01*
X146890812Y-87334482D01*
X146903072Y-87210000D01*
X146903072Y-85510000D01*
X148371928Y-85510000D01*
X148371928Y-87210000D01*
X148384188Y-87334482D01*
X148420498Y-87454180D01*
X148479463Y-87564494D01*
X148558815Y-87661185D01*
X148655506Y-87740537D01*
X148765820Y-87799502D01*
X148885518Y-87835812D01*
X149010000Y-87848072D01*
X150710000Y-87848072D01*
X150834482Y-87835812D01*
X150954180Y-87799502D01*
X151064494Y-87740537D01*
X151161185Y-87661185D01*
X151240537Y-87564494D01*
X151299502Y-87454180D01*
X151320393Y-87385313D01*
X151344866Y-87415134D01*
X151570986Y-87600706D01*
X151828966Y-87738599D01*
X152108889Y-87823513D01*
X152327050Y-87845000D01*
X152472950Y-87845000D01*
X152691111Y-87823513D01*
X152971034Y-87738599D01*
X153229014Y-87600706D01*
X153455134Y-87415134D01*
X153640706Y-87189014D01*
X153670000Y-87134209D01*
X153699294Y-87189014D01*
X153884866Y-87415134D01*
X154110986Y-87600706D01*
X154368966Y-87738599D01*
X154648889Y-87823513D01*
X154867050Y-87845000D01*
X155012950Y-87845000D01*
X155231111Y-87823513D01*
X155511034Y-87738599D01*
X155769014Y-87600706D01*
X155995134Y-87415134D01*
X156180706Y-87189014D01*
X156210000Y-87134209D01*
X156239294Y-87189014D01*
X156424866Y-87415134D01*
X156650986Y-87600706D01*
X156908966Y-87738599D01*
X157188889Y-87823513D01*
X157407050Y-87845000D01*
X157552950Y-87845000D01*
X157771111Y-87823513D01*
X158051034Y-87738599D01*
X158309014Y-87600706D01*
X158535134Y-87415134D01*
X158720706Y-87189014D01*
X158858599Y-86931034D01*
X158943513Y-86651111D01*
X158972185Y-86360000D01*
X158943513Y-86068889D01*
X158858599Y-85788966D01*
X158720706Y-85530986D01*
X158535134Y-85304866D01*
X158309014Y-85119294D01*
X158051034Y-84981401D01*
X157771111Y-84896487D01*
X157552950Y-84875000D01*
X157407050Y-84875000D01*
X157188889Y-84896487D01*
X156908966Y-84981401D01*
X156650986Y-85119294D01*
X156424866Y-85304866D01*
X156239294Y-85530986D01*
X156210000Y-85585791D01*
X156180706Y-85530986D01*
X155995134Y-85304866D01*
X155769014Y-85119294D01*
X155511034Y-84981401D01*
X155231111Y-84896487D01*
X155012950Y-84875000D01*
X154867050Y-84875000D01*
X154648889Y-84896487D01*
X154368966Y-84981401D01*
X154110986Y-85119294D01*
X153884866Y-85304866D01*
X153699294Y-85530986D01*
X153670000Y-85585791D01*
X153640706Y-85530986D01*
X153455134Y-85304866D01*
X153229014Y-85119294D01*
X152971034Y-84981401D01*
X152691111Y-84896487D01*
X152472950Y-84875000D01*
X152327050Y-84875000D01*
X152108889Y-84896487D01*
X151828966Y-84981401D01*
X151570986Y-85119294D01*
X151344866Y-85304866D01*
X151320393Y-85334687D01*
X151299502Y-85265820D01*
X151240537Y-85155506D01*
X151161185Y-85058815D01*
X151064494Y-84979463D01*
X150954180Y-84920498D01*
X150834482Y-84884188D01*
X150710000Y-84871928D01*
X149010000Y-84871928D01*
X148885518Y-84884188D01*
X148765820Y-84920498D01*
X148655506Y-84979463D01*
X148558815Y-85058815D01*
X148479463Y-85155506D01*
X148420498Y-85265820D01*
X148384188Y-85385518D01*
X148371928Y-85510000D01*
X146903072Y-85510000D01*
X146890812Y-85385518D01*
X146854502Y-85265820D01*
X146795537Y-85155506D01*
X146716185Y-85058815D01*
X146619494Y-84979463D01*
X146509180Y-84920498D01*
X146389482Y-84884188D01*
X146265000Y-84871928D01*
X144565000Y-84871928D01*
X144440518Y-84884188D01*
X144320820Y-84920498D01*
X144210506Y-84979463D01*
X144113815Y-85058815D01*
X144034463Y-85155506D01*
X143975498Y-85265820D01*
X143954607Y-85334687D01*
X143930134Y-85304866D01*
X143704014Y-85119294D01*
X143446034Y-84981401D01*
X143166111Y-84896487D01*
X142947950Y-84875000D01*
X142802050Y-84875000D01*
X142583889Y-84896487D01*
X142303966Y-84981401D01*
X142045986Y-85119294D01*
X141819866Y-85304866D01*
X141634294Y-85530986D01*
X141605000Y-85585791D01*
X141575706Y-85530986D01*
X141390134Y-85304866D01*
X141164014Y-85119294D01*
X140906034Y-84981401D01*
X140626111Y-84896487D01*
X140407950Y-84875000D01*
X140262050Y-84875000D01*
X140043889Y-84896487D01*
X139763966Y-84981401D01*
X139505986Y-85119294D01*
X139279866Y-85304866D01*
X139094294Y-85530986D01*
X139065000Y-85585791D01*
X139035706Y-85530986D01*
X138850134Y-85304866D01*
X138624014Y-85119294D01*
X138366034Y-84981401D01*
X138086111Y-84896487D01*
X137867950Y-84875000D01*
X137722050Y-84875000D01*
X137503889Y-84896487D01*
X137223966Y-84981401D01*
X136965986Y-85119294D01*
X136739866Y-85304866D01*
X136554294Y-85530986D01*
X136416401Y-85788966D01*
X136331487Y-86068889D01*
X136302815Y-86360000D01*
X136331487Y-86651111D01*
X136354203Y-86725996D01*
X136108997Y-86971202D01*
X136079999Y-86995000D01*
X136056201Y-87023998D01*
X136056200Y-87023999D01*
X135985025Y-87110725D01*
X135914453Y-87242755D01*
X135912559Y-87249000D01*
X135877494Y-87364599D01*
X135870997Y-87386016D01*
X135856323Y-87535001D01*
X135860000Y-87572333D01*
X135859999Y-94362676D01*
X135856323Y-94399999D01*
X135859999Y-94437321D01*
X135859999Y-94437331D01*
X135870996Y-94548984D01*
X135910282Y-94678496D01*
X135914453Y-94692245D01*
X135985025Y-94824275D01*
X135995472Y-94837004D01*
X136079998Y-94940000D01*
X136109002Y-94963803D01*
X137066928Y-95921730D01*
X137066928Y-97085000D01*
X137079188Y-97209482D01*
X137115498Y-97329180D01*
X137174463Y-97439494D01*
X137253815Y-97536185D01*
X137350506Y-97615537D01*
X137460820Y-97674502D01*
X137580518Y-97710812D01*
X137705000Y-97723072D01*
X138005000Y-97723072D01*
X138105000Y-97713223D01*
X138205000Y-97723072D01*
X138505000Y-97723072D01*
X138605000Y-97713223D01*
X138705000Y-97723072D01*
X139005000Y-97723072D01*
X139105000Y-97713223D01*
X139205000Y-97723072D01*
X139505000Y-97723072D01*
X139605000Y-97713223D01*
X139705000Y-97723072D01*
X140005000Y-97723072D01*
X140105000Y-97713223D01*
X140205000Y-97723072D01*
X140505000Y-97723072D01*
X140605000Y-97713223D01*
X140705000Y-97723072D01*
X141005000Y-97723072D01*
X141105000Y-97713223D01*
X141205000Y-97723072D01*
X141505000Y-97723072D01*
X141605000Y-97713223D01*
X141705000Y-97723072D01*
X142005000Y-97723072D01*
X142105000Y-97713223D01*
X142205000Y-97723072D01*
X142505000Y-97723072D01*
X142605000Y-97713223D01*
X142705000Y-97723072D01*
X143005000Y-97723072D01*
X143105000Y-97713223D01*
X143205000Y-97723072D01*
X143505000Y-97723072D01*
X143605000Y-97713223D01*
X143705000Y-97723072D01*
X144005000Y-97723072D01*
X144105000Y-97713223D01*
X144205000Y-97723072D01*
X144407126Y-97723072D01*
X141844003Y-100286196D01*
X141814999Y-100309999D01*
X141782150Y-100350026D01*
X141720026Y-100425724D01*
X141688342Y-100485000D01*
X141649454Y-100557754D01*
X141605997Y-100701015D01*
X141595000Y-100812668D01*
X141595000Y-100812678D01*
X141591324Y-100850000D01*
X141595000Y-100887323D01*
X141595001Y-102112656D01*
X141595000Y-102112666D01*
X141595001Y-106755792D01*
X141505000Y-106746928D01*
X141205000Y-106746928D01*
X141105000Y-106756777D01*
X141005000Y-106746928D01*
X140705000Y-106746928D01*
X140605000Y-106756777D01*
X140505000Y-106746928D01*
X140205000Y-106746928D01*
X140105000Y-106756777D01*
X140005000Y-106746928D01*
X139705000Y-106746928D01*
X139601356Y-106757136D01*
X139536750Y-106750000D01*
X139504503Y-106782247D01*
X139460820Y-106795498D01*
X139355000Y-106852061D01*
X139249180Y-106795498D01*
X139205497Y-106782247D01*
X139173250Y-106750000D01*
X139108644Y-106757136D01*
X139005000Y-106746928D01*
X138705000Y-106746928D01*
X138605000Y-106756777D01*
X138505000Y-106746928D01*
X138205000Y-106746928D01*
X138105000Y-106756777D01*
X138005000Y-106746928D01*
X137705000Y-106746928D01*
X137580518Y-106759188D01*
X137460820Y-106795498D01*
X137350506Y-106854463D01*
X137253815Y-106933815D01*
X137174463Y-107030506D01*
X137115498Y-107140820D01*
X137079188Y-107260518D01*
X137066928Y-107385000D01*
X137066928Y-108446448D01*
X136504788Y-109008589D01*
X132477213Y-109008589D01*
X134740802Y-106745000D01*
X135078393Y-106745000D01*
X135130518Y-106760812D01*
X135255000Y-106773072D01*
X136455000Y-106773072D01*
X136579482Y-106760812D01*
X136699180Y-106724502D01*
X136809494Y-106665537D01*
X136906185Y-106586185D01*
X136985537Y-106489494D01*
X137044502Y-106379180D01*
X137080812Y-106259482D01*
X137093072Y-106135000D01*
X137093072Y-105835000D01*
X137083223Y-105735000D01*
X137093072Y-105635000D01*
X137093072Y-105335000D01*
X137083223Y-105235000D01*
X137093072Y-105135000D01*
X137093072Y-104835000D01*
X137083223Y-104735000D01*
X137093072Y-104635000D01*
X137093072Y-104335000D01*
X137083223Y-104235000D01*
X137093072Y-104135000D01*
X137093072Y-103835000D01*
X137083223Y-103735000D01*
X137093072Y-103635000D01*
X137093072Y-103335000D01*
X137083223Y-103235000D01*
X137093072Y-103135000D01*
X137093072Y-102835000D01*
X137083223Y-102735000D01*
X137093072Y-102635000D01*
X137093072Y-102335000D01*
X137083223Y-102235000D01*
X137093072Y-102135000D01*
X137093072Y-101835000D01*
X137083223Y-101735000D01*
X137093072Y-101635000D01*
X137093072Y-101335000D01*
X137083223Y-101235000D01*
X137093072Y-101135000D01*
X137093072Y-100835000D01*
X137083223Y-100735000D01*
X137093072Y-100635000D01*
X137093072Y-100335000D01*
X137083223Y-100235000D01*
X137093072Y-100135000D01*
X137093072Y-99835000D01*
X137083223Y-99735000D01*
X137093072Y-99635000D01*
X137093072Y-99335000D01*
X137083223Y-99235000D01*
X137093072Y-99135000D01*
X137093072Y-98835000D01*
X137082864Y-98731356D01*
X137090000Y-98666750D01*
X137057753Y-98634503D01*
X137044502Y-98590820D01*
X136985537Y-98480506D01*
X136952725Y-98440525D01*
X137090000Y-98303250D01*
X137078564Y-98199711D01*
X137040189Y-98080659D01*
X136979325Y-97971381D01*
X136898312Y-97876077D01*
X136800263Y-97798409D01*
X136688945Y-97741362D01*
X136568637Y-97707129D01*
X136443961Y-97697023D01*
X136140750Y-97700000D01*
X136010676Y-97830074D01*
X136010676Y-97702043D01*
X135970902Y-97502084D01*
X135892881Y-97313726D01*
X135779613Y-97144208D01*
X135635450Y-97000045D01*
X135465932Y-96886777D01*
X135277574Y-96808756D01*
X135077615Y-96768982D01*
X134873737Y-96768982D01*
X134768072Y-96790000D01*
X134112000Y-96790000D01*
X134112000Y-96810000D01*
X133858000Y-96810000D01*
X133858000Y-96790000D01*
X133838000Y-96790000D01*
X133838000Y-96536000D01*
X133858000Y-96536000D01*
X133858000Y-96516000D01*
X134112000Y-96516000D01*
X134112000Y-96536000D01*
X135086250Y-96536000D01*
X135245000Y-96377250D01*
X135248072Y-96163000D01*
X135235812Y-96038518D01*
X135199502Y-95918820D01*
X135140537Y-95808506D01*
X135061185Y-95711815D01*
X134964494Y-95632463D01*
X134854180Y-95573498D01*
X134734482Y-95537188D01*
X134610000Y-95524928D01*
X134270750Y-95528000D01*
X134112002Y-95686748D01*
X134112002Y-95528000D01*
X134059868Y-95528000D01*
X134099003Y-95398986D01*
X134110000Y-95287333D01*
X134113677Y-95250000D01*
X134110000Y-95212667D01*
X134110000Y-90177595D01*
X134179014Y-90140706D01*
X134405134Y-89955134D01*
X134590706Y-89729014D01*
X134728599Y-89471034D01*
X134813513Y-89191111D01*
X134842185Y-88900000D01*
X134813513Y-88608889D01*
X134728599Y-88328966D01*
X134590706Y-88070986D01*
X134405134Y-87844866D01*
X134179014Y-87659294D01*
X134124209Y-87630000D01*
X134179014Y-87600706D01*
X134405134Y-87415134D01*
X134590706Y-87189014D01*
X134728599Y-86931034D01*
X134813513Y-86651111D01*
X134842185Y-86360000D01*
X134813513Y-86068889D01*
X134728599Y-85788966D01*
X134590706Y-85530986D01*
X134405134Y-85304866D01*
X134179014Y-85119294D01*
X133921034Y-84981401D01*
X133641111Y-84896487D01*
X133422950Y-84875000D01*
X133277050Y-84875000D01*
X133058889Y-84896487D01*
X132778966Y-84981401D01*
X132520986Y-85119294D01*
X132294866Y-85304866D01*
X132109294Y-85530986D01*
X132080000Y-85585791D01*
X132050706Y-85530986D01*
X131865134Y-85304866D01*
X131639014Y-85119294D01*
X131381034Y-84981401D01*
X131101111Y-84896487D01*
X130882950Y-84875000D01*
X130737050Y-84875000D01*
X130518889Y-84896487D01*
X130238966Y-84981401D01*
X129980986Y-85119294D01*
X129754866Y-85304866D01*
X129569294Y-85530986D01*
X129540000Y-85585791D01*
X129510706Y-85530986D01*
X129325134Y-85304866D01*
X129099014Y-85119294D01*
X128841034Y-84981401D01*
X128561111Y-84896487D01*
X128342950Y-84875000D01*
X128197050Y-84875000D01*
X127978889Y-84896487D01*
X127698966Y-84981401D01*
X127440986Y-85119294D01*
X127214866Y-85304866D01*
X127029294Y-85530986D01*
X127000000Y-85585791D01*
X126970706Y-85530986D01*
X126785134Y-85304866D01*
X126559014Y-85119294D01*
X126301034Y-84981401D01*
X126021111Y-84896487D01*
X125802950Y-84875000D01*
X125657050Y-84875000D01*
X125438889Y-84896487D01*
X125158966Y-84981401D01*
X124900986Y-85119294D01*
X124674866Y-85304866D01*
X124489294Y-85530986D01*
X124460000Y-85585791D01*
X124430706Y-85530986D01*
X124245134Y-85304866D01*
X124019014Y-85119294D01*
X123761034Y-84981401D01*
X123481111Y-84896487D01*
X123262950Y-84875000D01*
X123117050Y-84875000D01*
X122898889Y-84896487D01*
X122618966Y-84981401D01*
X122360986Y-85119294D01*
X122134866Y-85304866D01*
X121949294Y-85530986D01*
X121920000Y-85585791D01*
X121890706Y-85530986D01*
X121705134Y-85304866D01*
X121479014Y-85119294D01*
X121221034Y-84981401D01*
X120941111Y-84896487D01*
X120722950Y-84875000D01*
X120577050Y-84875000D01*
X120358889Y-84896487D01*
X120078966Y-84981401D01*
X119820986Y-85119294D01*
X119594866Y-85304866D01*
X119409294Y-85530986D01*
X119271401Y-85788966D01*
X119186487Y-86068889D01*
X119157815Y-86360000D01*
X119186487Y-86651111D01*
X119271401Y-86931034D01*
X119409294Y-87189014D01*
X119594866Y-87415134D01*
X119624687Y-87439607D01*
X119555820Y-87460498D01*
X119445506Y-87519463D01*
X119348815Y-87598815D01*
X119269463Y-87695506D01*
X119210498Y-87805820D01*
X119174188Y-87925518D01*
X119161928Y-88050000D01*
X119165000Y-88614250D01*
X119323750Y-88773000D01*
X120523000Y-88773000D01*
X120523000Y-88753000D01*
X120777000Y-88753000D01*
X120777000Y-88773000D01*
X120797000Y-88773000D01*
X120797000Y-89027000D01*
X120777000Y-89027000D01*
X120777000Y-90226250D01*
X120935750Y-90385000D01*
X121160001Y-90386221D01*
X121160000Y-94590367D01*
X121156324Y-94627690D01*
X121160000Y-94665012D01*
X121160000Y-94665022D01*
X121170997Y-94776675D01*
X121210260Y-94906111D01*
X121214454Y-94919936D01*
X121285026Y-95051966D01*
X121316851Y-95090744D01*
X121379999Y-95167691D01*
X121409003Y-95191494D01*
X131213515Y-104996008D01*
X131237309Y-105025001D01*
X131266302Y-105048795D01*
X131266306Y-105048799D01*
X131336995Y-105106811D01*
X131353034Y-105119974D01*
X131485063Y-105190546D01*
X131628324Y-105234003D01*
X131739977Y-105245000D01*
X131739986Y-105245000D01*
X131777309Y-105248676D01*
X131814632Y-105245000D01*
X134247335Y-105245000D01*
X134133753Y-105279454D01*
X134001724Y-105350026D01*
X133885999Y-105444999D01*
X133862201Y-105473997D01*
X127066199Y-112270000D01*
X118686711Y-112270000D01*
X118642774Y-112226063D01*
X118473256Y-112112795D01*
X118284898Y-112034774D01*
X118084939Y-111995000D01*
X117881061Y-111995000D01*
X117681102Y-112034774D01*
X117492744Y-112112795D01*
X117323226Y-112226063D01*
X117179063Y-112370226D01*
X117065795Y-112539744D01*
X116987774Y-112728102D01*
X116948000Y-112928061D01*
X87045000Y-112928061D01*
X87045000Y-109213088D01*
X100012688Y-109213088D01*
X100013776Y-109237961D01*
X100077276Y-109682461D01*
X100080510Y-109698044D01*
X100089408Y-109721296D01*
X100279908Y-110102296D01*
X100295936Y-110126803D01*
X100613436Y-110507803D01*
X100627689Y-110522356D01*
X100647990Y-110536767D01*
X101092490Y-110790767D01*
X101104293Y-110796719D01*
X101127950Y-110804476D01*
X101699450Y-110931476D01*
X101727133Y-110934500D01*
X101751907Y-110932034D01*
X102069407Y-110868534D01*
X102075302Y-110867208D01*
X102329302Y-110803708D01*
X102355296Y-110794092D01*
X102609296Y-110667092D01*
X102631836Y-110652670D01*
X102949336Y-110398670D01*
X102971600Y-110375700D01*
X103162100Y-110121700D01*
X103174092Y-110102296D01*
X103364592Y-109721296D01*
X103371525Y-109704535D01*
X103377019Y-109680252D01*
X103440519Y-109172252D01*
X103439772Y-109135621D01*
X103376272Y-108754621D01*
X103373490Y-108741956D01*
X103364592Y-108718704D01*
X103174092Y-108337704D01*
X103159670Y-108315164D01*
X102905670Y-107997664D01*
X102882700Y-107975400D01*
X102628700Y-107784900D01*
X102609296Y-107772908D01*
X102355296Y-107645908D01*
X102338661Y-107639017D01*
X102148161Y-107575517D01*
X102132776Y-107571440D01*
X102108000Y-107569000D01*
X101938110Y-107569000D01*
X101767161Y-107512017D01*
X101751646Y-107507914D01*
X101726867Y-107505500D01*
X101702093Y-107507966D01*
X101384593Y-107571466D01*
X101378698Y-107572792D01*
X101124698Y-107636292D01*
X101098704Y-107645908D01*
X100717704Y-107836408D01*
X100703943Y-107844403D01*
X100684697Y-107860197D01*
X100367197Y-108177697D01*
X100356671Y-108189634D01*
X100343408Y-108210704D01*
X100152908Y-108591704D01*
X100142524Y-108620950D01*
X100015524Y-109192450D01*
X100012688Y-109213088D01*
X87045000Y-109213088D01*
X87045000Y-87660505D01*
X87072202Y-87355701D01*
X88655000Y-87355701D01*
X88655000Y-87904299D01*
X88762026Y-88442354D01*
X88971965Y-88949192D01*
X89276750Y-89405334D01*
X89664666Y-89793250D01*
X90120808Y-90098035D01*
X90627646Y-90307974D01*
X91165701Y-90415000D01*
X91714299Y-90415000D01*
X92252354Y-90307974D01*
X92759192Y-90098035D01*
X93215334Y-89793250D01*
X93603250Y-89405334D01*
X93908035Y-88949192D01*
X94117974Y-88442354D01*
X94225000Y-87904299D01*
X94225000Y-87355701D01*
X94163908Y-87048570D01*
X105171000Y-87048570D01*
X105171000Y-87449430D01*
X105249204Y-87842587D01*
X105402607Y-88212934D01*
X105625313Y-88546237D01*
X105908763Y-88829687D01*
X106242066Y-89052393D01*
X106612413Y-89205796D01*
X107005570Y-89284000D01*
X107406430Y-89284000D01*
X107799587Y-89205796D01*
X108003522Y-89121323D01*
X110896700Y-92014502D01*
X110920499Y-92043501D01*
X110949497Y-92067299D01*
X111036224Y-92138474D01*
X111168253Y-92209046D01*
X111311514Y-92252503D01*
X111460500Y-92267177D01*
X111497833Y-92263500D01*
X114429699Y-92263500D01*
X117159501Y-94993303D01*
X117159500Y-102166289D01*
X117115563Y-102210226D01*
X117002295Y-102379744D01*
X116924274Y-102568102D01*
X116884500Y-102768061D01*
X116884500Y-102971939D01*
X116924274Y-103171898D01*
X117002295Y-103360256D01*
X117115563Y-103529774D01*
X117259726Y-103673937D01*
X117429244Y-103787205D01*
X117617602Y-103865226D01*
X117817561Y-103905000D01*
X118021439Y-103905000D01*
X118221398Y-103865226D01*
X118409756Y-103787205D01*
X118579274Y-103673937D01*
X118723437Y-103529774D01*
X118836705Y-103360256D01*
X118914726Y-103171898D01*
X118954500Y-102971939D01*
X118954500Y-102768061D01*
X118914726Y-102568102D01*
X118836705Y-102379744D01*
X118723437Y-102210226D01*
X118679500Y-102166289D01*
X118679500Y-94715822D01*
X118683176Y-94678499D01*
X118679500Y-94641176D01*
X118679500Y-94641167D01*
X118668503Y-94529514D01*
X118625046Y-94386253D01*
X118592305Y-94324999D01*
X118554474Y-94254223D01*
X118483299Y-94167497D01*
X118459501Y-94138499D01*
X118430503Y-94114701D01*
X115308304Y-90992503D01*
X115284501Y-90963499D01*
X115168776Y-90868526D01*
X115036747Y-90797954D01*
X114893486Y-90754497D01*
X114781833Y-90743500D01*
X114781822Y-90743500D01*
X114744500Y-90739824D01*
X114707178Y-90743500D01*
X111775302Y-90743500D01*
X110781802Y-89750000D01*
X119161928Y-89750000D01*
X119174188Y-89874482D01*
X119210498Y-89994180D01*
X119269463Y-90104494D01*
X119348815Y-90201185D01*
X119445506Y-90280537D01*
X119555820Y-90339502D01*
X119675518Y-90375812D01*
X119800000Y-90388072D01*
X120364250Y-90385000D01*
X120523000Y-90226250D01*
X120523000Y-89027000D01*
X119323750Y-89027000D01*
X119165000Y-89185750D01*
X119161928Y-89750000D01*
X110781802Y-89750000D01*
X109078323Y-88046522D01*
X109162796Y-87842587D01*
X109241000Y-87449430D01*
X109241000Y-87048570D01*
X110741000Y-87048570D01*
X110741000Y-87449430D01*
X110819204Y-87842587D01*
X110972607Y-88212934D01*
X111195313Y-88546237D01*
X111478763Y-88829687D01*
X111812066Y-89052393D01*
X112182413Y-89205796D01*
X112575570Y-89284000D01*
X112976430Y-89284000D01*
X113369587Y-89205796D01*
X113739934Y-89052393D01*
X114073237Y-88829687D01*
X114356687Y-88546237D01*
X114579393Y-88212934D01*
X114732796Y-87842587D01*
X114811000Y-87449430D01*
X114811000Y-87048570D01*
X114732796Y-86655413D01*
X114579393Y-86285066D01*
X114356687Y-85951763D01*
X114073237Y-85668313D01*
X113739934Y-85445607D01*
X113369587Y-85292204D01*
X112976430Y-85214000D01*
X112575570Y-85214000D01*
X112182413Y-85292204D01*
X111812066Y-85445607D01*
X111478763Y-85668313D01*
X111195313Y-85951763D01*
X110972607Y-86285066D01*
X110819204Y-86655413D01*
X110741000Y-87048570D01*
X109241000Y-87048570D01*
X109162796Y-86655413D01*
X109009393Y-86285066D01*
X108786687Y-85951763D01*
X108503237Y-85668313D01*
X108169934Y-85445607D01*
X107799587Y-85292204D01*
X107406430Y-85214000D01*
X107005570Y-85214000D01*
X106612413Y-85292204D01*
X106242066Y-85445607D01*
X105908763Y-85668313D01*
X105625313Y-85951763D01*
X105402607Y-86285066D01*
X105249204Y-86655413D01*
X105171000Y-87048570D01*
X94163908Y-87048570D01*
X94117974Y-86817646D01*
X93908035Y-86310808D01*
X93603250Y-85854666D01*
X93215334Y-85466750D01*
X92759192Y-85161965D01*
X92252354Y-84952026D01*
X91714299Y-84845000D01*
X91165701Y-84845000D01*
X90627646Y-84952026D01*
X90120808Y-85161965D01*
X89664666Y-85466750D01*
X89276750Y-85854666D01*
X88971965Y-86310808D01*
X88762026Y-86817646D01*
X88655000Y-87355701D01*
X87072202Y-87355701D01*
X87117139Y-86852197D01*
X87323197Y-86098977D01*
X87659384Y-85394148D01*
X88115065Y-84759998D01*
X88675851Y-84216559D01*
X89324001Y-83781019D01*
X90039043Y-83467138D01*
X90803636Y-83283576D01*
X91465112Y-83235000D01*
X191739495Y-83235000D01*
X192547803Y-83307139D01*
M02*
