G04 #@! TF.GenerationSoftware,KiCad,Pcbnew,(5.1.4)-1*
G04 #@! TF.CreationDate,2020-11-03T17:10:34-05:00*
G04 #@! TF.ProjectId,remote_racing_pcb,72656d6f-7465-45f7-9261-63696e675f70,rev?*
G04 #@! TF.SameCoordinates,Original*
G04 #@! TF.FileFunction,Soldermask,Top*
G04 #@! TF.FilePolarity,Negative*
%FSLAX46Y46*%
G04 Gerber Fmt 4.6, Leading zero omitted, Abs format (unit mm)*
G04 Created by KiCad (PCBNEW (5.1.4)-1) date 2020-11-03 17:10:34*
%MOMM*%
%LPD*%
G04 APERTURE LIST*
%ADD10C,0.100000*%
G04 APERTURE END LIST*
D10*
G36*
X192412007Y-117263582D02*
G01*
X192812563Y-117429498D01*
X192812565Y-117429499D01*
X193173056Y-117670371D01*
X193479629Y-117976944D01*
X193688094Y-118288935D01*
X193720502Y-118337437D01*
X193886418Y-118737993D01*
X193971000Y-119163219D01*
X193971000Y-119596781D01*
X193886418Y-120022007D01*
X193720502Y-120422563D01*
X193720501Y-120422565D01*
X193479629Y-120783056D01*
X193173056Y-121089629D01*
X192812565Y-121330501D01*
X192812564Y-121330502D01*
X192812563Y-121330502D01*
X192412007Y-121496418D01*
X191986781Y-121581000D01*
X191553219Y-121581000D01*
X191127993Y-121496418D01*
X190727437Y-121330502D01*
X190727436Y-121330502D01*
X190727435Y-121330501D01*
X190366944Y-121089629D01*
X190060371Y-120783056D01*
X189819499Y-120422565D01*
X189819498Y-120422563D01*
X189653582Y-120022007D01*
X189569000Y-119596781D01*
X189569000Y-119163219D01*
X189653582Y-118737993D01*
X189819498Y-118337437D01*
X189851906Y-118288935D01*
X190060371Y-117976944D01*
X190366944Y-117670371D01*
X190727435Y-117429499D01*
X190727437Y-117429498D01*
X191127993Y-117263582D01*
X191553219Y-117179000D01*
X191986781Y-117179000D01*
X192412007Y-117263582D01*
X192412007Y-117263582D01*
G37*
G36*
X122562007Y-117263582D02*
G01*
X122962563Y-117429498D01*
X122962565Y-117429499D01*
X123323056Y-117670371D01*
X123629629Y-117976944D01*
X123838094Y-118288935D01*
X123870502Y-118337437D01*
X124036418Y-118737993D01*
X124121000Y-119163219D01*
X124121000Y-119596781D01*
X124036418Y-120022007D01*
X123870502Y-120422563D01*
X123870501Y-120422565D01*
X123629629Y-120783056D01*
X123323056Y-121089629D01*
X122962565Y-121330501D01*
X122962564Y-121330502D01*
X122962563Y-121330502D01*
X122562007Y-121496418D01*
X122136781Y-121581000D01*
X121703219Y-121581000D01*
X121277993Y-121496418D01*
X120877437Y-121330502D01*
X120877436Y-121330502D01*
X120877435Y-121330501D01*
X120516944Y-121089629D01*
X120210371Y-120783056D01*
X119969499Y-120422565D01*
X119969498Y-120422563D01*
X119803582Y-120022007D01*
X119719000Y-119596781D01*
X119719000Y-119163219D01*
X119803582Y-118737993D01*
X119969498Y-118337437D01*
X120001906Y-118288935D01*
X120210371Y-117976944D01*
X120516944Y-117670371D01*
X120877435Y-117429499D01*
X120877437Y-117429498D01*
X121277993Y-117263582D01*
X121703219Y-117179000D01*
X122136781Y-117179000D01*
X122562007Y-117263582D01*
X122562007Y-117263582D01*
G37*
G36*
X138218241Y-118020760D02*
G01*
X138482305Y-118130139D01*
X138719958Y-118288934D01*
X138922066Y-118491042D01*
X139080861Y-118728695D01*
X139190240Y-118992759D01*
X139246000Y-119273088D01*
X139246000Y-119558912D01*
X139190240Y-119839241D01*
X139080861Y-120103305D01*
X138922066Y-120340958D01*
X138719958Y-120543066D01*
X138482305Y-120701861D01*
X138218241Y-120811240D01*
X137937912Y-120867000D01*
X137652088Y-120867000D01*
X137371759Y-120811240D01*
X137107695Y-120701861D01*
X136870042Y-120543066D01*
X136667934Y-120340958D01*
X136509139Y-120103305D01*
X136399760Y-119839241D01*
X136344000Y-119558912D01*
X136344000Y-119273088D01*
X136399760Y-118992759D01*
X136509139Y-118728695D01*
X136667934Y-118491042D01*
X136870042Y-118288934D01*
X137107695Y-118130139D01*
X137371759Y-118020760D01*
X137652088Y-117965000D01*
X137937912Y-117965000D01*
X138218241Y-118020760D01*
X138218241Y-118020760D01*
G37*
G36*
X131868241Y-118020760D02*
G01*
X132132305Y-118130139D01*
X132369958Y-118288934D01*
X132572066Y-118491042D01*
X132730861Y-118728695D01*
X132840240Y-118992759D01*
X132896000Y-119273088D01*
X132896000Y-119558912D01*
X132840240Y-119839241D01*
X132730861Y-120103305D01*
X132572066Y-120340958D01*
X132369958Y-120543066D01*
X132132305Y-120701861D01*
X131868241Y-120811240D01*
X131587912Y-120867000D01*
X131302088Y-120867000D01*
X131021759Y-120811240D01*
X130757695Y-120701861D01*
X130520042Y-120543066D01*
X130317934Y-120340958D01*
X130159139Y-120103305D01*
X130049760Y-119839241D01*
X129994000Y-119558912D01*
X129994000Y-119273088D01*
X130049760Y-118992759D01*
X130159139Y-118728695D01*
X130317934Y-118491042D01*
X130520042Y-118288934D01*
X130757695Y-118130139D01*
X131021759Y-118020760D01*
X131302088Y-117965000D01*
X131587912Y-117965000D01*
X131868241Y-118020760D01*
X131868241Y-118020760D01*
G37*
G36*
X160443241Y-117984760D02*
G01*
X160707305Y-118094139D01*
X160944958Y-118252934D01*
X161147066Y-118455042D01*
X161305861Y-118692695D01*
X161415240Y-118956759D01*
X161471000Y-119237088D01*
X161471000Y-119522912D01*
X161415240Y-119803241D01*
X161305861Y-120067305D01*
X161147066Y-120304958D01*
X160944958Y-120507066D01*
X160707305Y-120665861D01*
X160443241Y-120775240D01*
X160162912Y-120831000D01*
X159877088Y-120831000D01*
X159596759Y-120775240D01*
X159332695Y-120665861D01*
X159095042Y-120507066D01*
X158892934Y-120304958D01*
X158734139Y-120067305D01*
X158624760Y-119803241D01*
X158569000Y-119522912D01*
X158569000Y-119237088D01*
X158624760Y-118956759D01*
X158734139Y-118692695D01*
X158892934Y-118455042D01*
X159095042Y-118252934D01*
X159332695Y-118094139D01*
X159596759Y-117984760D01*
X159877088Y-117929000D01*
X160162912Y-117929000D01*
X160443241Y-117984760D01*
X160443241Y-117984760D01*
G37*
G36*
X166793241Y-117984760D02*
G01*
X167057305Y-118094139D01*
X167294958Y-118252934D01*
X167497066Y-118455042D01*
X167655861Y-118692695D01*
X167765240Y-118956759D01*
X167821000Y-119237088D01*
X167821000Y-119522912D01*
X167765240Y-119803241D01*
X167655861Y-120067305D01*
X167497066Y-120304958D01*
X167294958Y-120507066D01*
X167057305Y-120665861D01*
X166793241Y-120775240D01*
X166512912Y-120831000D01*
X166227088Y-120831000D01*
X165946759Y-120775240D01*
X165682695Y-120665861D01*
X165445042Y-120507066D01*
X165242934Y-120304958D01*
X165084139Y-120067305D01*
X164974760Y-119803241D01*
X164919000Y-119522912D01*
X164919000Y-119237088D01*
X164974760Y-118956759D01*
X165084139Y-118692695D01*
X165242934Y-118455042D01*
X165445042Y-118252934D01*
X165682695Y-118094139D01*
X165946759Y-117984760D01*
X166227088Y-117929000D01*
X166512912Y-117929000D01*
X166793241Y-117984760D01*
X166793241Y-117984760D01*
G37*
G36*
X151240442Y-118485518D02*
G01*
X151306627Y-118492037D01*
X151476466Y-118543557D01*
X151632991Y-118627222D01*
X151668729Y-118656552D01*
X151770186Y-118739814D01*
X151853448Y-118841271D01*
X151882778Y-118877009D01*
X151966443Y-119033534D01*
X152017963Y-119203373D01*
X152035359Y-119380000D01*
X152017963Y-119556627D01*
X151966443Y-119726466D01*
X151882778Y-119882991D01*
X151853448Y-119918729D01*
X151770186Y-120020186D01*
X151668904Y-120103305D01*
X151632991Y-120132778D01*
X151476466Y-120216443D01*
X151306627Y-120267963D01*
X151240442Y-120274482D01*
X151174260Y-120281000D01*
X151085740Y-120281000D01*
X151019558Y-120274482D01*
X150953373Y-120267963D01*
X150783534Y-120216443D01*
X150627009Y-120132778D01*
X150591096Y-120103305D01*
X150489814Y-120020186D01*
X150406552Y-119918729D01*
X150377222Y-119882991D01*
X150293557Y-119726466D01*
X150242037Y-119556627D01*
X150224641Y-119380000D01*
X150242037Y-119203373D01*
X150293557Y-119033534D01*
X150377222Y-118877009D01*
X150406552Y-118841271D01*
X150489814Y-118739814D01*
X150591271Y-118656552D01*
X150627009Y-118627222D01*
X150783534Y-118543557D01*
X150953373Y-118492037D01*
X151019558Y-118485518D01*
X151085740Y-118479000D01*
X151174260Y-118479000D01*
X151240442Y-118485518D01*
X151240442Y-118485518D01*
G37*
G36*
X148700442Y-118485518D02*
G01*
X148766627Y-118492037D01*
X148936466Y-118543557D01*
X149092991Y-118627222D01*
X149128729Y-118656552D01*
X149230186Y-118739814D01*
X149313448Y-118841271D01*
X149342778Y-118877009D01*
X149426443Y-119033534D01*
X149477963Y-119203373D01*
X149495359Y-119380000D01*
X149477963Y-119556627D01*
X149426443Y-119726466D01*
X149342778Y-119882991D01*
X149313448Y-119918729D01*
X149230186Y-120020186D01*
X149128904Y-120103305D01*
X149092991Y-120132778D01*
X148936466Y-120216443D01*
X148766627Y-120267963D01*
X148700442Y-120274482D01*
X148634260Y-120281000D01*
X148545740Y-120281000D01*
X148479558Y-120274482D01*
X148413373Y-120267963D01*
X148243534Y-120216443D01*
X148087009Y-120132778D01*
X148051096Y-120103305D01*
X147949814Y-120020186D01*
X147866552Y-119918729D01*
X147837222Y-119882991D01*
X147753557Y-119726466D01*
X147702037Y-119556627D01*
X147684641Y-119380000D01*
X147702037Y-119203373D01*
X147753557Y-119033534D01*
X147837222Y-118877009D01*
X147866552Y-118841271D01*
X147949814Y-118739814D01*
X148051271Y-118656552D01*
X148087009Y-118627222D01*
X148243534Y-118543557D01*
X148413373Y-118492037D01*
X148479558Y-118485518D01*
X148545740Y-118479000D01*
X148634260Y-118479000D01*
X148700442Y-118485518D01*
X148700442Y-118485518D01*
G37*
G36*
X146160442Y-118485518D02*
G01*
X146226627Y-118492037D01*
X146396466Y-118543557D01*
X146552991Y-118627222D01*
X146588729Y-118656552D01*
X146690186Y-118739814D01*
X146773448Y-118841271D01*
X146802778Y-118877009D01*
X146886443Y-119033534D01*
X146937963Y-119203373D01*
X146955359Y-119380000D01*
X146937963Y-119556627D01*
X146886443Y-119726466D01*
X146802778Y-119882991D01*
X146773448Y-119918729D01*
X146690186Y-120020186D01*
X146588904Y-120103305D01*
X146552991Y-120132778D01*
X146396466Y-120216443D01*
X146226627Y-120267963D01*
X146160442Y-120274482D01*
X146094260Y-120281000D01*
X146005740Y-120281000D01*
X145939558Y-120274482D01*
X145873373Y-120267963D01*
X145703534Y-120216443D01*
X145547009Y-120132778D01*
X145511096Y-120103305D01*
X145409814Y-120020186D01*
X145326552Y-119918729D01*
X145297222Y-119882991D01*
X145213557Y-119726466D01*
X145162037Y-119556627D01*
X145144641Y-119380000D01*
X145162037Y-119203373D01*
X145213557Y-119033534D01*
X145297222Y-118877009D01*
X145326552Y-118841271D01*
X145409814Y-118739814D01*
X145511271Y-118656552D01*
X145547009Y-118627222D01*
X145703534Y-118543557D01*
X145873373Y-118492037D01*
X145939558Y-118485518D01*
X146005740Y-118479000D01*
X146094260Y-118479000D01*
X146160442Y-118485518D01*
X146160442Y-118485518D01*
G37*
G36*
X143620442Y-118485518D02*
G01*
X143686627Y-118492037D01*
X143856466Y-118543557D01*
X144012991Y-118627222D01*
X144048729Y-118656552D01*
X144150186Y-118739814D01*
X144233448Y-118841271D01*
X144262778Y-118877009D01*
X144346443Y-119033534D01*
X144397963Y-119203373D01*
X144415359Y-119380000D01*
X144397963Y-119556627D01*
X144346443Y-119726466D01*
X144262778Y-119882991D01*
X144233448Y-119918729D01*
X144150186Y-120020186D01*
X144048904Y-120103305D01*
X144012991Y-120132778D01*
X143856466Y-120216443D01*
X143686627Y-120267963D01*
X143620442Y-120274482D01*
X143554260Y-120281000D01*
X143465740Y-120281000D01*
X143399558Y-120274482D01*
X143333373Y-120267963D01*
X143163534Y-120216443D01*
X143007009Y-120132778D01*
X142971096Y-120103305D01*
X142869814Y-120020186D01*
X142786552Y-119918729D01*
X142757222Y-119882991D01*
X142673557Y-119726466D01*
X142622037Y-119556627D01*
X142604641Y-119380000D01*
X142622037Y-119203373D01*
X142673557Y-119033534D01*
X142757222Y-118877009D01*
X142786552Y-118841271D01*
X142869814Y-118739814D01*
X142971271Y-118656552D01*
X143007009Y-118627222D01*
X143163534Y-118543557D01*
X143333373Y-118492037D01*
X143399558Y-118485518D01*
X143465740Y-118479000D01*
X143554260Y-118479000D01*
X143620442Y-118485518D01*
X143620442Y-118485518D01*
G37*
G36*
X154571000Y-120281000D02*
G01*
X152769000Y-120281000D01*
X152769000Y-118479000D01*
X154571000Y-118479000D01*
X154571000Y-120281000D01*
X154571000Y-120281000D01*
G37*
G36*
X110781000Y-116121000D02*
G01*
X108179000Y-116121000D01*
X108179000Y-115019000D01*
X110781000Y-115019000D01*
X110781000Y-116121000D01*
X110781000Y-116121000D01*
G37*
G36*
X95281000Y-116121000D02*
G01*
X92679000Y-116121000D01*
X92679000Y-115019000D01*
X95281000Y-115019000D01*
X95281000Y-116121000D01*
X95281000Y-116121000D01*
G37*
G36*
X185051000Y-115201000D02*
G01*
X183249000Y-115201000D01*
X183249000Y-113399000D01*
X185051000Y-113399000D01*
X185051000Y-115201000D01*
X185051000Y-115201000D01*
G37*
G36*
X169811000Y-115201000D02*
G01*
X168009000Y-115201000D01*
X168009000Y-113399000D01*
X169811000Y-113399000D01*
X169811000Y-115201000D01*
X169811000Y-115201000D01*
G37*
G36*
X110781000Y-113581000D02*
G01*
X108179000Y-113581000D01*
X108179000Y-112479000D01*
X110781000Y-112479000D01*
X110781000Y-113581000D01*
X110781000Y-113581000D01*
G37*
G36*
X95281000Y-113581000D02*
G01*
X92679000Y-113581000D01*
X92679000Y-112479000D01*
X95281000Y-112479000D01*
X95281000Y-113581000D01*
X95281000Y-113581000D01*
G37*
G36*
X169020442Y-110865518D02*
G01*
X169086627Y-110872037D01*
X169256466Y-110923557D01*
X169412991Y-111007222D01*
X169448729Y-111036552D01*
X169550186Y-111119814D01*
X169633448Y-111221271D01*
X169662778Y-111257009D01*
X169746443Y-111413534D01*
X169797963Y-111583373D01*
X169815359Y-111760000D01*
X169797963Y-111936627D01*
X169746443Y-112106466D01*
X169662778Y-112262991D01*
X169633448Y-112298729D01*
X169550186Y-112400186D01*
X169454149Y-112479000D01*
X169412991Y-112512778D01*
X169256466Y-112596443D01*
X169086627Y-112647963D01*
X169020442Y-112654482D01*
X168954260Y-112661000D01*
X168865740Y-112661000D01*
X168799558Y-112654482D01*
X168733373Y-112647963D01*
X168563534Y-112596443D01*
X168407009Y-112512778D01*
X168365851Y-112479000D01*
X168269814Y-112400186D01*
X168186552Y-112298729D01*
X168157222Y-112262991D01*
X168073557Y-112106466D01*
X168022037Y-111936627D01*
X168004641Y-111760000D01*
X168022037Y-111583373D01*
X168073557Y-111413534D01*
X168157222Y-111257009D01*
X168186552Y-111221271D01*
X168269814Y-111119814D01*
X168371271Y-111036552D01*
X168407009Y-111007222D01*
X168563534Y-110923557D01*
X168733373Y-110872037D01*
X168799558Y-110865518D01*
X168865740Y-110859000D01*
X168954260Y-110859000D01*
X169020442Y-110865518D01*
X169020442Y-110865518D01*
G37*
G36*
X184260442Y-110865518D02*
G01*
X184326627Y-110872037D01*
X184496466Y-110923557D01*
X184652991Y-111007222D01*
X184688729Y-111036552D01*
X184790186Y-111119814D01*
X184873448Y-111221271D01*
X184902778Y-111257009D01*
X184986443Y-111413534D01*
X185037963Y-111583373D01*
X185055359Y-111760000D01*
X185037963Y-111936627D01*
X184986443Y-112106466D01*
X184902778Y-112262991D01*
X184873448Y-112298729D01*
X184790186Y-112400186D01*
X184694149Y-112479000D01*
X184652991Y-112512778D01*
X184496466Y-112596443D01*
X184326627Y-112647963D01*
X184260442Y-112654482D01*
X184194260Y-112661000D01*
X184105740Y-112661000D01*
X184039558Y-112654482D01*
X183973373Y-112647963D01*
X183803534Y-112596443D01*
X183647009Y-112512778D01*
X183605851Y-112479000D01*
X183509814Y-112400186D01*
X183426552Y-112298729D01*
X183397222Y-112262991D01*
X183313557Y-112106466D01*
X183262037Y-111936627D01*
X183244641Y-111760000D01*
X183262037Y-111583373D01*
X183313557Y-111413534D01*
X183397222Y-111257009D01*
X183426552Y-111221271D01*
X183509814Y-111119814D01*
X183611271Y-111036552D01*
X183647009Y-111007222D01*
X183803534Y-110923557D01*
X183973373Y-110872037D01*
X184039558Y-110865518D01*
X184105740Y-110859000D01*
X184194260Y-110859000D01*
X184260442Y-110865518D01*
X184260442Y-110865518D01*
G37*
G36*
X95281000Y-111041000D02*
G01*
X92679000Y-111041000D01*
X92679000Y-109939000D01*
X95281000Y-109939000D01*
X95281000Y-111041000D01*
X95281000Y-111041000D01*
G37*
G36*
X110781000Y-111041000D02*
G01*
X108179000Y-111041000D01*
X108179000Y-109939000D01*
X110781000Y-109939000D01*
X110781000Y-111041000D01*
X110781000Y-111041000D01*
G37*
G36*
X184260443Y-108325519D02*
G01*
X184326627Y-108332037D01*
X184496466Y-108383557D01*
X184652991Y-108467222D01*
X184688729Y-108496552D01*
X184790186Y-108579814D01*
X184873448Y-108681271D01*
X184902778Y-108717009D01*
X184986443Y-108873534D01*
X185037963Y-109043373D01*
X185055359Y-109220000D01*
X185037963Y-109396627D01*
X184986443Y-109566466D01*
X184902778Y-109722991D01*
X184873448Y-109758729D01*
X184790186Y-109860186D01*
X184694149Y-109939000D01*
X184652991Y-109972778D01*
X184496466Y-110056443D01*
X184326627Y-110107963D01*
X184260443Y-110114481D01*
X184194260Y-110121000D01*
X184105740Y-110121000D01*
X184039557Y-110114481D01*
X183973373Y-110107963D01*
X183803534Y-110056443D01*
X183647009Y-109972778D01*
X183605851Y-109939000D01*
X183509814Y-109860186D01*
X183426552Y-109758729D01*
X183397222Y-109722991D01*
X183313557Y-109566466D01*
X183262037Y-109396627D01*
X183244641Y-109220000D01*
X183262037Y-109043373D01*
X183313557Y-108873534D01*
X183397222Y-108717009D01*
X183426552Y-108681271D01*
X183509814Y-108579814D01*
X183611271Y-108496552D01*
X183647009Y-108467222D01*
X183803534Y-108383557D01*
X183973373Y-108332037D01*
X184039557Y-108325519D01*
X184105740Y-108319000D01*
X184194260Y-108319000D01*
X184260443Y-108325519D01*
X184260443Y-108325519D01*
G37*
G36*
X95281000Y-108501000D02*
G01*
X92679000Y-108501000D01*
X92679000Y-107399000D01*
X95281000Y-107399000D01*
X95281000Y-108501000D01*
X95281000Y-108501000D01*
G37*
G36*
X110781000Y-108501000D02*
G01*
X108179000Y-108501000D01*
X108179000Y-107399000D01*
X110781000Y-107399000D01*
X110781000Y-108501000D01*
X110781000Y-108501000D01*
G37*
G36*
X120818000Y-107977000D02*
G01*
X119466000Y-107977000D01*
X119466000Y-106875000D01*
X120818000Y-106875000D01*
X120818000Y-107977000D01*
X120818000Y-107977000D01*
G37*
G36*
X118659000Y-107977000D02*
G01*
X117307000Y-107977000D01*
X117307000Y-106875000D01*
X118659000Y-106875000D01*
X118659000Y-107977000D01*
X118659000Y-107977000D01*
G37*
G36*
X184260443Y-105785519D02*
G01*
X184326627Y-105792037D01*
X184496466Y-105843557D01*
X184652991Y-105927222D01*
X184688729Y-105956552D01*
X184790186Y-106039814D01*
X184873448Y-106141271D01*
X184902778Y-106177009D01*
X184986443Y-106333534D01*
X185037963Y-106503373D01*
X185055359Y-106680000D01*
X185037963Y-106856627D01*
X184986443Y-107026466D01*
X184902778Y-107182991D01*
X184873448Y-107218729D01*
X184790186Y-107320186D01*
X184694149Y-107399000D01*
X184652991Y-107432778D01*
X184496466Y-107516443D01*
X184326627Y-107567963D01*
X184260443Y-107574481D01*
X184194260Y-107581000D01*
X184105740Y-107581000D01*
X184039557Y-107574481D01*
X183973373Y-107567963D01*
X183803534Y-107516443D01*
X183647009Y-107432778D01*
X183605851Y-107399000D01*
X183509814Y-107320186D01*
X183426552Y-107218729D01*
X183397222Y-107182991D01*
X183313557Y-107026466D01*
X183262037Y-106856627D01*
X183244641Y-106680000D01*
X183262037Y-106503373D01*
X183313557Y-106333534D01*
X183397222Y-106177009D01*
X183426552Y-106141271D01*
X183509814Y-106039814D01*
X183611271Y-105956552D01*
X183647009Y-105927222D01*
X183803534Y-105843557D01*
X183973373Y-105792037D01*
X184039557Y-105785519D01*
X184105740Y-105779000D01*
X184194260Y-105779000D01*
X184260443Y-105785519D01*
X184260443Y-105785519D01*
G37*
G36*
X120818000Y-105977000D02*
G01*
X119466000Y-105977000D01*
X119466000Y-104875000D01*
X120818000Y-104875000D01*
X120818000Y-105977000D01*
X120818000Y-105977000D01*
G37*
G36*
X118659000Y-105977000D02*
G01*
X117307000Y-105977000D01*
X117307000Y-104875000D01*
X118659000Y-104875000D01*
X118659000Y-105977000D01*
X118659000Y-105977000D01*
G37*
G36*
X110781000Y-105961000D02*
G01*
X108179000Y-105961000D01*
X108179000Y-104859000D01*
X110781000Y-104859000D01*
X110781000Y-105961000D01*
X110781000Y-105961000D01*
G37*
G36*
X95281000Y-105961000D02*
G01*
X92679000Y-105961000D01*
X92679000Y-104859000D01*
X95281000Y-104859000D01*
X95281000Y-105961000D01*
X95281000Y-105961000D01*
G37*
G36*
X184260443Y-103245519D02*
G01*
X184326627Y-103252037D01*
X184496466Y-103303557D01*
X184652991Y-103387222D01*
X184688729Y-103416552D01*
X184790186Y-103499814D01*
X184873448Y-103601271D01*
X184902778Y-103637009D01*
X184986443Y-103793534D01*
X185037963Y-103963373D01*
X185055359Y-104140000D01*
X185037963Y-104316627D01*
X184986443Y-104486466D01*
X184902778Y-104642991D01*
X184873448Y-104678729D01*
X184790186Y-104780186D01*
X184694149Y-104859000D01*
X184652991Y-104892778D01*
X184496466Y-104976443D01*
X184326627Y-105027963D01*
X184260442Y-105034482D01*
X184194260Y-105041000D01*
X184105740Y-105041000D01*
X184039557Y-105034481D01*
X183973373Y-105027963D01*
X183803534Y-104976443D01*
X183647009Y-104892778D01*
X183605851Y-104859000D01*
X183509814Y-104780186D01*
X183426552Y-104678729D01*
X183397222Y-104642991D01*
X183313557Y-104486466D01*
X183262037Y-104316627D01*
X183244641Y-104140000D01*
X183262037Y-103963373D01*
X183313557Y-103793534D01*
X183397222Y-103637009D01*
X183426552Y-103601271D01*
X183509814Y-103499814D01*
X183611271Y-103416552D01*
X183647009Y-103387222D01*
X183803534Y-103303557D01*
X183973373Y-103252037D01*
X184039558Y-103245518D01*
X184105740Y-103239000D01*
X184194260Y-103239000D01*
X184260443Y-103245519D01*
X184260443Y-103245519D01*
G37*
G36*
X110781000Y-103421000D02*
G01*
X108179000Y-103421000D01*
X108179000Y-102319000D01*
X110781000Y-102319000D01*
X110781000Y-103421000D01*
X110781000Y-103421000D01*
G37*
G36*
X95281000Y-103421000D02*
G01*
X92679000Y-103421000D01*
X92679000Y-102319000D01*
X95281000Y-102319000D01*
X95281000Y-103421000D01*
X95281000Y-103421000D01*
G37*
G36*
X184260443Y-100705519D02*
G01*
X184326627Y-100712037D01*
X184496466Y-100763557D01*
X184652991Y-100847222D01*
X184688729Y-100876552D01*
X184790186Y-100959814D01*
X184873448Y-101061271D01*
X184902778Y-101097009D01*
X184986443Y-101253534D01*
X185037963Y-101423373D01*
X185055359Y-101600000D01*
X185037963Y-101776627D01*
X184986443Y-101946466D01*
X184902778Y-102102991D01*
X184873448Y-102138729D01*
X184790186Y-102240186D01*
X184694149Y-102319000D01*
X184652991Y-102352778D01*
X184496466Y-102436443D01*
X184326627Y-102487963D01*
X184260442Y-102494482D01*
X184194260Y-102501000D01*
X184105740Y-102501000D01*
X184039558Y-102494482D01*
X183973373Y-102487963D01*
X183803534Y-102436443D01*
X183647009Y-102352778D01*
X183605851Y-102319000D01*
X183509814Y-102240186D01*
X183426552Y-102138729D01*
X183397222Y-102102991D01*
X183313557Y-101946466D01*
X183262037Y-101776627D01*
X183244641Y-101600000D01*
X183262037Y-101423373D01*
X183313557Y-101253534D01*
X183397222Y-101097009D01*
X183426552Y-101061271D01*
X183509814Y-100959814D01*
X183611271Y-100876552D01*
X183647009Y-100847222D01*
X183803534Y-100763557D01*
X183973373Y-100712037D01*
X184039557Y-100705519D01*
X184105740Y-100699000D01*
X184194260Y-100699000D01*
X184260443Y-100705519D01*
X184260443Y-100705519D01*
G37*
G36*
X169020443Y-100705519D02*
G01*
X169086627Y-100712037D01*
X169256466Y-100763557D01*
X169412991Y-100847222D01*
X169448729Y-100876552D01*
X169550186Y-100959814D01*
X169633448Y-101061271D01*
X169662778Y-101097009D01*
X169746443Y-101253534D01*
X169797963Y-101423373D01*
X169815359Y-101600000D01*
X169797963Y-101776627D01*
X169746443Y-101946466D01*
X169662778Y-102102991D01*
X169633448Y-102138729D01*
X169550186Y-102240186D01*
X169454149Y-102319000D01*
X169412991Y-102352778D01*
X169256466Y-102436443D01*
X169086627Y-102487963D01*
X169020442Y-102494482D01*
X168954260Y-102501000D01*
X168865740Y-102501000D01*
X168799558Y-102494482D01*
X168733373Y-102487963D01*
X168563534Y-102436443D01*
X168407009Y-102352778D01*
X168365851Y-102319000D01*
X168269814Y-102240186D01*
X168186552Y-102138729D01*
X168157222Y-102102991D01*
X168073557Y-101946466D01*
X168022037Y-101776627D01*
X168004641Y-101600000D01*
X168022037Y-101423373D01*
X168073557Y-101253534D01*
X168157222Y-101097009D01*
X168186552Y-101061271D01*
X168269814Y-100959814D01*
X168371271Y-100876552D01*
X168407009Y-100847222D01*
X168563534Y-100763557D01*
X168733373Y-100712037D01*
X168799557Y-100705519D01*
X168865740Y-100699000D01*
X168954260Y-100699000D01*
X169020443Y-100705519D01*
X169020443Y-100705519D01*
G37*
G36*
X142071000Y-101456000D02*
G01*
X140169000Y-101456000D01*
X140169000Y-100254000D01*
X142071000Y-100254000D01*
X142071000Y-101456000D01*
X142071000Y-101456000D01*
G37*
G36*
X148271000Y-101456000D02*
G01*
X146369000Y-101456000D01*
X146369000Y-100254000D01*
X148271000Y-100254000D01*
X148271000Y-101456000D01*
X148271000Y-101456000D01*
G37*
G36*
X153936000Y-100596000D02*
G01*
X152134000Y-100596000D01*
X152134000Y-98794000D01*
X153936000Y-98794000D01*
X153936000Y-100596000D01*
X153936000Y-100596000D01*
G37*
G36*
X155685443Y-98800519D02*
G01*
X155751627Y-98807037D01*
X155921466Y-98858557D01*
X156077991Y-98942222D01*
X156113729Y-98971552D01*
X156215186Y-99054814D01*
X156298448Y-99156271D01*
X156327778Y-99192009D01*
X156411443Y-99348534D01*
X156462963Y-99518373D01*
X156480359Y-99695000D01*
X156462963Y-99871627D01*
X156411443Y-100041466D01*
X156327778Y-100197991D01*
X156298448Y-100233729D01*
X156215186Y-100335186D01*
X156113729Y-100418448D01*
X156077991Y-100447778D01*
X155921466Y-100531443D01*
X155751627Y-100582963D01*
X155685443Y-100589481D01*
X155619260Y-100596000D01*
X155530740Y-100596000D01*
X155464557Y-100589481D01*
X155398373Y-100582963D01*
X155228534Y-100531443D01*
X155072009Y-100447778D01*
X155036271Y-100418448D01*
X154934814Y-100335186D01*
X154851552Y-100233729D01*
X154822222Y-100197991D01*
X154738557Y-100041466D01*
X154687037Y-99871627D01*
X154669641Y-99695000D01*
X154687037Y-99518373D01*
X154738557Y-99348534D01*
X154822222Y-99192009D01*
X154851552Y-99156271D01*
X154934814Y-99054814D01*
X155036271Y-98971552D01*
X155072009Y-98942222D01*
X155228534Y-98858557D01*
X155398373Y-98807037D01*
X155464557Y-98800519D01*
X155530740Y-98794000D01*
X155619260Y-98794000D01*
X155685443Y-98800519D01*
X155685443Y-98800519D01*
G37*
G36*
X184260443Y-98165519D02*
G01*
X184326627Y-98172037D01*
X184496466Y-98223557D01*
X184652991Y-98307222D01*
X184688729Y-98336552D01*
X184790186Y-98419814D01*
X184873448Y-98521271D01*
X184902778Y-98557009D01*
X184986443Y-98713534D01*
X185037963Y-98883373D01*
X185055359Y-99060000D01*
X185037963Y-99236627D01*
X184986443Y-99406466D01*
X184902778Y-99562991D01*
X184873448Y-99598729D01*
X184790186Y-99700186D01*
X184688729Y-99783448D01*
X184652991Y-99812778D01*
X184496466Y-99896443D01*
X184326627Y-99947963D01*
X184260443Y-99954481D01*
X184194260Y-99961000D01*
X184105740Y-99961000D01*
X184039557Y-99954481D01*
X183973373Y-99947963D01*
X183803534Y-99896443D01*
X183647009Y-99812778D01*
X183611271Y-99783448D01*
X183509814Y-99700186D01*
X183426552Y-99598729D01*
X183397222Y-99562991D01*
X183313557Y-99406466D01*
X183262037Y-99236627D01*
X183244641Y-99060000D01*
X183262037Y-98883373D01*
X183313557Y-98713534D01*
X183397222Y-98557009D01*
X183426552Y-98521271D01*
X183509814Y-98419814D01*
X183611271Y-98336552D01*
X183647009Y-98307222D01*
X183803534Y-98223557D01*
X183973373Y-98172037D01*
X184039557Y-98165519D01*
X184105740Y-98159000D01*
X184194260Y-98159000D01*
X184260443Y-98165519D01*
X184260443Y-98165519D01*
G37*
G36*
X169020443Y-98165519D02*
G01*
X169086627Y-98172037D01*
X169256466Y-98223557D01*
X169412991Y-98307222D01*
X169448729Y-98336552D01*
X169550186Y-98419814D01*
X169633448Y-98521271D01*
X169662778Y-98557009D01*
X169746443Y-98713534D01*
X169797963Y-98883373D01*
X169815359Y-99060000D01*
X169797963Y-99236627D01*
X169746443Y-99406466D01*
X169662778Y-99562991D01*
X169633448Y-99598729D01*
X169550186Y-99700186D01*
X169448729Y-99783448D01*
X169412991Y-99812778D01*
X169256466Y-99896443D01*
X169086627Y-99947963D01*
X169020443Y-99954481D01*
X168954260Y-99961000D01*
X168865740Y-99961000D01*
X168799557Y-99954481D01*
X168733373Y-99947963D01*
X168563534Y-99896443D01*
X168407009Y-99812778D01*
X168371271Y-99783448D01*
X168269814Y-99700186D01*
X168186552Y-99598729D01*
X168157222Y-99562991D01*
X168073557Y-99406466D01*
X168022037Y-99236627D01*
X168004641Y-99060000D01*
X168022037Y-98883373D01*
X168073557Y-98713534D01*
X168157222Y-98557009D01*
X168186552Y-98521271D01*
X168269814Y-98419814D01*
X168371271Y-98336552D01*
X168407009Y-98307222D01*
X168563534Y-98223557D01*
X168733373Y-98172037D01*
X168799557Y-98165519D01*
X168865740Y-98159000D01*
X168954260Y-98159000D01*
X169020443Y-98165519D01*
X169020443Y-98165519D01*
G37*
G36*
X150536000Y-99722000D02*
G01*
X149184000Y-99722000D01*
X149184000Y-98620000D01*
X150536000Y-98620000D01*
X150536000Y-99722000D01*
X150536000Y-99722000D01*
G37*
G36*
X153145442Y-96260518D02*
G01*
X153211627Y-96267037D01*
X153381466Y-96318557D01*
X153537991Y-96402222D01*
X153573729Y-96431552D01*
X153675186Y-96514814D01*
X153758448Y-96616271D01*
X153787778Y-96652009D01*
X153871443Y-96808534D01*
X153922963Y-96978373D01*
X153940359Y-97155000D01*
X153922963Y-97331627D01*
X153871443Y-97501466D01*
X153787778Y-97657991D01*
X153758448Y-97693729D01*
X153675186Y-97795186D01*
X153573729Y-97878448D01*
X153537991Y-97907778D01*
X153381466Y-97991443D01*
X153211627Y-98042963D01*
X153145443Y-98049481D01*
X153079260Y-98056000D01*
X152990740Y-98056000D01*
X152924557Y-98049481D01*
X152858373Y-98042963D01*
X152688534Y-97991443D01*
X152532009Y-97907778D01*
X152496271Y-97878448D01*
X152394814Y-97795186D01*
X152311552Y-97693729D01*
X152282222Y-97657991D01*
X152198557Y-97501466D01*
X152147037Y-97331627D01*
X152129641Y-97155000D01*
X152147037Y-96978373D01*
X152198557Y-96808534D01*
X152282222Y-96652009D01*
X152311552Y-96616271D01*
X152394814Y-96514814D01*
X152496271Y-96431552D01*
X152532009Y-96402222D01*
X152688534Y-96318557D01*
X152858373Y-96267037D01*
X152924558Y-96260518D01*
X152990740Y-96254000D01*
X153079260Y-96254000D01*
X153145442Y-96260518D01*
X153145442Y-96260518D01*
G37*
G36*
X155685442Y-96260518D02*
G01*
X155751627Y-96267037D01*
X155921466Y-96318557D01*
X156077991Y-96402222D01*
X156113729Y-96431552D01*
X156215186Y-96514814D01*
X156298448Y-96616271D01*
X156327778Y-96652009D01*
X156411443Y-96808534D01*
X156462963Y-96978373D01*
X156480359Y-97155000D01*
X156462963Y-97331627D01*
X156411443Y-97501466D01*
X156327778Y-97657991D01*
X156298448Y-97693729D01*
X156215186Y-97795186D01*
X156113729Y-97878448D01*
X156077991Y-97907778D01*
X155921466Y-97991443D01*
X155751627Y-98042963D01*
X155685443Y-98049481D01*
X155619260Y-98056000D01*
X155530740Y-98056000D01*
X155464557Y-98049481D01*
X155398373Y-98042963D01*
X155228534Y-97991443D01*
X155072009Y-97907778D01*
X155036271Y-97878448D01*
X154934814Y-97795186D01*
X154851552Y-97693729D01*
X154822222Y-97657991D01*
X154738557Y-97501466D01*
X154687037Y-97331627D01*
X154669641Y-97155000D01*
X154687037Y-96978373D01*
X154738557Y-96808534D01*
X154822222Y-96652009D01*
X154851552Y-96616271D01*
X154934814Y-96514814D01*
X155036271Y-96431552D01*
X155072009Y-96402222D01*
X155228534Y-96318557D01*
X155398373Y-96267037D01*
X155464558Y-96260518D01*
X155530740Y-96254000D01*
X155619260Y-96254000D01*
X155685442Y-96260518D01*
X155685442Y-96260518D01*
G37*
G36*
X142071000Y-97756000D02*
G01*
X140169000Y-97756000D01*
X140169000Y-96554000D01*
X142071000Y-96554000D01*
X142071000Y-97756000D01*
X142071000Y-97756000D01*
G37*
G36*
X148271000Y-97756000D02*
G01*
X146369000Y-97756000D01*
X146369000Y-96554000D01*
X148271000Y-96554000D01*
X148271000Y-97756000D01*
X148271000Y-97756000D01*
G37*
G36*
X150536000Y-97722000D02*
G01*
X149184000Y-97722000D01*
X149184000Y-96620000D01*
X150536000Y-96620000D01*
X150536000Y-97722000D01*
X150536000Y-97722000D01*
G37*
G36*
X184260442Y-95625518D02*
G01*
X184326627Y-95632037D01*
X184496466Y-95683557D01*
X184652991Y-95767222D01*
X184688729Y-95796552D01*
X184790186Y-95879814D01*
X184873448Y-95981271D01*
X184902778Y-96017009D01*
X184986443Y-96173534D01*
X185037963Y-96343373D01*
X185055359Y-96520000D01*
X185037963Y-96696627D01*
X184986443Y-96866466D01*
X184902778Y-97022991D01*
X184873448Y-97058729D01*
X184790186Y-97160186D01*
X184688729Y-97243448D01*
X184652991Y-97272778D01*
X184496466Y-97356443D01*
X184326627Y-97407963D01*
X184260442Y-97414482D01*
X184194260Y-97421000D01*
X184105740Y-97421000D01*
X184039558Y-97414482D01*
X183973373Y-97407963D01*
X183803534Y-97356443D01*
X183647009Y-97272778D01*
X183611271Y-97243448D01*
X183509814Y-97160186D01*
X183426552Y-97058729D01*
X183397222Y-97022991D01*
X183313557Y-96866466D01*
X183262037Y-96696627D01*
X183244641Y-96520000D01*
X183262037Y-96343373D01*
X183313557Y-96173534D01*
X183397222Y-96017009D01*
X183426552Y-95981271D01*
X183509814Y-95879814D01*
X183611271Y-95796552D01*
X183647009Y-95767222D01*
X183803534Y-95683557D01*
X183973373Y-95632037D01*
X184039558Y-95625518D01*
X184105740Y-95619000D01*
X184194260Y-95619000D01*
X184260442Y-95625518D01*
X184260442Y-95625518D01*
G37*
G36*
X169020442Y-95625518D02*
G01*
X169086627Y-95632037D01*
X169256466Y-95683557D01*
X169412991Y-95767222D01*
X169448729Y-95796552D01*
X169550186Y-95879814D01*
X169633448Y-95981271D01*
X169662778Y-96017009D01*
X169746443Y-96173534D01*
X169797963Y-96343373D01*
X169815359Y-96520000D01*
X169797963Y-96696627D01*
X169746443Y-96866466D01*
X169662778Y-97022991D01*
X169633448Y-97058729D01*
X169550186Y-97160186D01*
X169448729Y-97243448D01*
X169412991Y-97272778D01*
X169256466Y-97356443D01*
X169086627Y-97407963D01*
X169020442Y-97414482D01*
X168954260Y-97421000D01*
X168865740Y-97421000D01*
X168799558Y-97414482D01*
X168733373Y-97407963D01*
X168563534Y-97356443D01*
X168407009Y-97272778D01*
X168371271Y-97243448D01*
X168269814Y-97160186D01*
X168186552Y-97058729D01*
X168157222Y-97022991D01*
X168073557Y-96866466D01*
X168022037Y-96696627D01*
X168004641Y-96520000D01*
X168022037Y-96343373D01*
X168073557Y-96173534D01*
X168157222Y-96017009D01*
X168186552Y-95981271D01*
X168269814Y-95879814D01*
X168371271Y-95796552D01*
X168407009Y-95767222D01*
X168563534Y-95683557D01*
X168733373Y-95632037D01*
X168799558Y-95625518D01*
X168865740Y-95619000D01*
X168954260Y-95619000D01*
X169020442Y-95625518D01*
X169020442Y-95625518D01*
G37*
G36*
X155685443Y-93720519D02*
G01*
X155751627Y-93727037D01*
X155921466Y-93778557D01*
X156077991Y-93862222D01*
X156113729Y-93891552D01*
X156215186Y-93974814D01*
X156298448Y-94076271D01*
X156327778Y-94112009D01*
X156411443Y-94268534D01*
X156462963Y-94438373D01*
X156480359Y-94615000D01*
X156462963Y-94791627D01*
X156411443Y-94961466D01*
X156327778Y-95117991D01*
X156298448Y-95153729D01*
X156215186Y-95255186D01*
X156113729Y-95338448D01*
X156077991Y-95367778D01*
X155921466Y-95451443D01*
X155751627Y-95502963D01*
X155685443Y-95509481D01*
X155619260Y-95516000D01*
X155530740Y-95516000D01*
X155464557Y-95509481D01*
X155398373Y-95502963D01*
X155228534Y-95451443D01*
X155072009Y-95367778D01*
X155036271Y-95338448D01*
X154934814Y-95255186D01*
X154851552Y-95153729D01*
X154822222Y-95117991D01*
X154738557Y-94961466D01*
X154687037Y-94791627D01*
X154669641Y-94615000D01*
X154687037Y-94438373D01*
X154738557Y-94268534D01*
X154822222Y-94112009D01*
X154851552Y-94076271D01*
X154934814Y-93974814D01*
X155036271Y-93891552D01*
X155072009Y-93862222D01*
X155228534Y-93778557D01*
X155398373Y-93727037D01*
X155464558Y-93720518D01*
X155530740Y-93714000D01*
X155619260Y-93714000D01*
X155685443Y-93720519D01*
X155685443Y-93720519D01*
G37*
G36*
X153145443Y-93720519D02*
G01*
X153211627Y-93727037D01*
X153381466Y-93778557D01*
X153537991Y-93862222D01*
X153573729Y-93891552D01*
X153675186Y-93974814D01*
X153758448Y-94076271D01*
X153787778Y-94112009D01*
X153871443Y-94268534D01*
X153922963Y-94438373D01*
X153940359Y-94615000D01*
X153922963Y-94791627D01*
X153871443Y-94961466D01*
X153787778Y-95117991D01*
X153758448Y-95153729D01*
X153675186Y-95255186D01*
X153573729Y-95338448D01*
X153537991Y-95367778D01*
X153381466Y-95451443D01*
X153211627Y-95502963D01*
X153145443Y-95509481D01*
X153079260Y-95516000D01*
X152990740Y-95516000D01*
X152924557Y-95509481D01*
X152858373Y-95502963D01*
X152688534Y-95451443D01*
X152532009Y-95367778D01*
X152496271Y-95338448D01*
X152394814Y-95255186D01*
X152311552Y-95153729D01*
X152282222Y-95117991D01*
X152198557Y-94961466D01*
X152147037Y-94791627D01*
X152129641Y-94615000D01*
X152147037Y-94438373D01*
X152198557Y-94268534D01*
X152282222Y-94112009D01*
X152311552Y-94076271D01*
X152394814Y-93974814D01*
X152496271Y-93891552D01*
X152532009Y-93862222D01*
X152688534Y-93778557D01*
X152858373Y-93727037D01*
X152924558Y-93720518D01*
X152990740Y-93714000D01*
X153079260Y-93714000D01*
X153145443Y-93720519D01*
X153145443Y-93720519D01*
G37*
G36*
X184260443Y-93085519D02*
G01*
X184326627Y-93092037D01*
X184496466Y-93143557D01*
X184652991Y-93227222D01*
X184688729Y-93256552D01*
X184790186Y-93339814D01*
X184873448Y-93441271D01*
X184902778Y-93477009D01*
X184986443Y-93633534D01*
X185037963Y-93803373D01*
X185055359Y-93980000D01*
X185037963Y-94156627D01*
X184986443Y-94326466D01*
X184902778Y-94482991D01*
X184873448Y-94518729D01*
X184790186Y-94620186D01*
X184688729Y-94703448D01*
X184652991Y-94732778D01*
X184496466Y-94816443D01*
X184326627Y-94867963D01*
X184260443Y-94874481D01*
X184194260Y-94881000D01*
X184105740Y-94881000D01*
X184039557Y-94874481D01*
X183973373Y-94867963D01*
X183803534Y-94816443D01*
X183647009Y-94732778D01*
X183611271Y-94703448D01*
X183509814Y-94620186D01*
X183426552Y-94518729D01*
X183397222Y-94482991D01*
X183313557Y-94326466D01*
X183262037Y-94156627D01*
X183244641Y-93980000D01*
X183262037Y-93803373D01*
X183313557Y-93633534D01*
X183397222Y-93477009D01*
X183426552Y-93441271D01*
X183509814Y-93339814D01*
X183611271Y-93256552D01*
X183647009Y-93227222D01*
X183803534Y-93143557D01*
X183973373Y-93092037D01*
X184039557Y-93085519D01*
X184105740Y-93079000D01*
X184194260Y-93079000D01*
X184260443Y-93085519D01*
X184260443Y-93085519D01*
G37*
G36*
X169020443Y-93085519D02*
G01*
X169086627Y-93092037D01*
X169256466Y-93143557D01*
X169412991Y-93227222D01*
X169448729Y-93256552D01*
X169550186Y-93339814D01*
X169633448Y-93441271D01*
X169662778Y-93477009D01*
X169746443Y-93633534D01*
X169797963Y-93803373D01*
X169815359Y-93980000D01*
X169797963Y-94156627D01*
X169746443Y-94326466D01*
X169662778Y-94482991D01*
X169633448Y-94518729D01*
X169550186Y-94620186D01*
X169448729Y-94703448D01*
X169412991Y-94732778D01*
X169256466Y-94816443D01*
X169086627Y-94867963D01*
X169020443Y-94874481D01*
X168954260Y-94881000D01*
X168865740Y-94881000D01*
X168799557Y-94874481D01*
X168733373Y-94867963D01*
X168563534Y-94816443D01*
X168407009Y-94732778D01*
X168371271Y-94703448D01*
X168269814Y-94620186D01*
X168186552Y-94518729D01*
X168157222Y-94482991D01*
X168073557Y-94326466D01*
X168022037Y-94156627D01*
X168004641Y-93980000D01*
X168022037Y-93803373D01*
X168073557Y-93633534D01*
X168157222Y-93477009D01*
X168186552Y-93441271D01*
X168269814Y-93339814D01*
X168371271Y-93256552D01*
X168407009Y-93227222D01*
X168563534Y-93143557D01*
X168733373Y-93092037D01*
X168799557Y-93085519D01*
X168865740Y-93079000D01*
X168954260Y-93079000D01*
X169020443Y-93085519D01*
X169020443Y-93085519D01*
G37*
G36*
X184260443Y-90545519D02*
G01*
X184326627Y-90552037D01*
X184496466Y-90603557D01*
X184652991Y-90687222D01*
X184688729Y-90716552D01*
X184790186Y-90799814D01*
X184873448Y-90901271D01*
X184902778Y-90937009D01*
X184986443Y-91093534D01*
X185037963Y-91263373D01*
X185055359Y-91440000D01*
X185037963Y-91616627D01*
X184986443Y-91786466D01*
X184902778Y-91942991D01*
X184873448Y-91978729D01*
X184790186Y-92080186D01*
X184688729Y-92163448D01*
X184652991Y-92192778D01*
X184496466Y-92276443D01*
X184326627Y-92327963D01*
X184260443Y-92334481D01*
X184194260Y-92341000D01*
X184105740Y-92341000D01*
X184039557Y-92334481D01*
X183973373Y-92327963D01*
X183803534Y-92276443D01*
X183647009Y-92192778D01*
X183611271Y-92163448D01*
X183509814Y-92080186D01*
X183426552Y-91978729D01*
X183397222Y-91942991D01*
X183313557Y-91786466D01*
X183262037Y-91616627D01*
X183244641Y-91440000D01*
X183262037Y-91263373D01*
X183313557Y-91093534D01*
X183397222Y-90937009D01*
X183426552Y-90901271D01*
X183509814Y-90799814D01*
X183611271Y-90716552D01*
X183647009Y-90687222D01*
X183803534Y-90603557D01*
X183973373Y-90552037D01*
X184039558Y-90545518D01*
X184105740Y-90539000D01*
X184194260Y-90539000D01*
X184260443Y-90545519D01*
X184260443Y-90545519D01*
G37*
G36*
X169020443Y-90545519D02*
G01*
X169086627Y-90552037D01*
X169256466Y-90603557D01*
X169412991Y-90687222D01*
X169448729Y-90716552D01*
X169550186Y-90799814D01*
X169633448Y-90901271D01*
X169662778Y-90937009D01*
X169746443Y-91093534D01*
X169797963Y-91263373D01*
X169815359Y-91440000D01*
X169797963Y-91616627D01*
X169746443Y-91786466D01*
X169662778Y-91942991D01*
X169633448Y-91978729D01*
X169550186Y-92080186D01*
X169448729Y-92163448D01*
X169412991Y-92192778D01*
X169256466Y-92276443D01*
X169086627Y-92327963D01*
X169020443Y-92334481D01*
X168954260Y-92341000D01*
X168865740Y-92341000D01*
X168799557Y-92334481D01*
X168733373Y-92327963D01*
X168563534Y-92276443D01*
X168407009Y-92192778D01*
X168371271Y-92163448D01*
X168269814Y-92080186D01*
X168186552Y-91978729D01*
X168157222Y-91942991D01*
X168073557Y-91786466D01*
X168022037Y-91616627D01*
X168004641Y-91440000D01*
X168022037Y-91263373D01*
X168073557Y-91093534D01*
X168157222Y-90937009D01*
X168186552Y-90901271D01*
X168269814Y-90799814D01*
X168371271Y-90716552D01*
X168407009Y-90687222D01*
X168563534Y-90603557D01*
X168733373Y-90552037D01*
X168799558Y-90545518D01*
X168865740Y-90539000D01*
X168954260Y-90539000D01*
X169020443Y-90545519D01*
X169020443Y-90545519D01*
G37*
G36*
X155641000Y-91267000D02*
G01*
X154239000Y-91267000D01*
X154239000Y-90465000D01*
X155641000Y-90465000D01*
X155641000Y-91267000D01*
X155641000Y-91267000D01*
G37*
G36*
X150561000Y-91267000D02*
G01*
X149159000Y-91267000D01*
X149159000Y-90465000D01*
X150561000Y-90465000D01*
X150561000Y-91267000D01*
X150561000Y-91267000D01*
G37*
G36*
X153101000Y-91267000D02*
G01*
X151699000Y-91267000D01*
X151699000Y-90465000D01*
X153101000Y-90465000D01*
X153101000Y-91267000D01*
X153101000Y-91267000D01*
G37*
G36*
X92082007Y-85513582D02*
G01*
X92482563Y-85679498D01*
X92482565Y-85679499D01*
X92843056Y-85920371D01*
X93149629Y-86226944D01*
X93356551Y-86536625D01*
X93390502Y-86587437D01*
X93556418Y-86987993D01*
X93641000Y-87413219D01*
X93641000Y-87846781D01*
X93556418Y-88272007D01*
X93435056Y-88565000D01*
X93390501Y-88672565D01*
X93149629Y-89033056D01*
X92843056Y-89339629D01*
X92482565Y-89580501D01*
X92482564Y-89580502D01*
X92482563Y-89580502D01*
X92082007Y-89746418D01*
X91656781Y-89831000D01*
X91223219Y-89831000D01*
X90797993Y-89746418D01*
X90397437Y-89580502D01*
X90397436Y-89580502D01*
X90397435Y-89580501D01*
X90036944Y-89339629D01*
X89730371Y-89033056D01*
X89489499Y-88672565D01*
X89444944Y-88565000D01*
X89323582Y-88272007D01*
X89239000Y-87846781D01*
X89239000Y-87413219D01*
X89323582Y-86987993D01*
X89489498Y-86587437D01*
X89523449Y-86536625D01*
X89730371Y-86226944D01*
X90036944Y-85920371D01*
X90397435Y-85679499D01*
X90397437Y-85679498D01*
X90797993Y-85513582D01*
X91223219Y-85429000D01*
X91656781Y-85429000D01*
X92082007Y-85513582D01*
X92082007Y-85513582D01*
G37*
G36*
X192412007Y-85513582D02*
G01*
X192812563Y-85679498D01*
X192812565Y-85679499D01*
X193173056Y-85920371D01*
X193479629Y-86226944D01*
X193686551Y-86536625D01*
X193720502Y-86587437D01*
X193886418Y-86987993D01*
X193971000Y-87413219D01*
X193971000Y-87846781D01*
X193886418Y-88272007D01*
X193765056Y-88565000D01*
X193720501Y-88672565D01*
X193479629Y-89033056D01*
X193173056Y-89339629D01*
X192812565Y-89580501D01*
X192812564Y-89580502D01*
X192812563Y-89580502D01*
X192412007Y-89746418D01*
X191986781Y-89831000D01*
X191553219Y-89831000D01*
X191127993Y-89746418D01*
X190727437Y-89580502D01*
X190727436Y-89580502D01*
X190727435Y-89580501D01*
X190366944Y-89339629D01*
X190060371Y-89033056D01*
X189819499Y-88672565D01*
X189774944Y-88565000D01*
X189653582Y-88272007D01*
X189569000Y-87846781D01*
X189569000Y-87413219D01*
X189653582Y-86987993D01*
X189819498Y-86587437D01*
X189853449Y-86536625D01*
X190060371Y-86226944D01*
X190366944Y-85920371D01*
X190727435Y-85679499D01*
X190727437Y-85679498D01*
X191127993Y-85513582D01*
X191553219Y-85429000D01*
X191986781Y-85429000D01*
X192412007Y-85513582D01*
X192412007Y-85513582D01*
G37*
G36*
X169020443Y-88005519D02*
G01*
X169086627Y-88012037D01*
X169256466Y-88063557D01*
X169412991Y-88147222D01*
X169445569Y-88173958D01*
X169550186Y-88259814D01*
X169633448Y-88361271D01*
X169662778Y-88397009D01*
X169662779Y-88397011D01*
X169736462Y-88534860D01*
X169746443Y-88553534D01*
X169797963Y-88723373D01*
X169815359Y-88900000D01*
X169797963Y-89076627D01*
X169746443Y-89246466D01*
X169662778Y-89402991D01*
X169633448Y-89438729D01*
X169550186Y-89540186D01*
X169448729Y-89623448D01*
X169412991Y-89652778D01*
X169256466Y-89736443D01*
X169086627Y-89787963D01*
X169020443Y-89794481D01*
X168954260Y-89801000D01*
X168865740Y-89801000D01*
X168799557Y-89794481D01*
X168733373Y-89787963D01*
X168563534Y-89736443D01*
X168407009Y-89652778D01*
X168371271Y-89623448D01*
X168269814Y-89540186D01*
X168186552Y-89438729D01*
X168157222Y-89402991D01*
X168073557Y-89246466D01*
X168022037Y-89076627D01*
X168004641Y-88900000D01*
X168022037Y-88723373D01*
X168073557Y-88553534D01*
X168083539Y-88534860D01*
X168157221Y-88397011D01*
X168157222Y-88397009D01*
X168186552Y-88361271D01*
X168269814Y-88259814D01*
X168374431Y-88173958D01*
X168407009Y-88147222D01*
X168563534Y-88063557D01*
X168733373Y-88012037D01*
X168799557Y-88005519D01*
X168865740Y-87999000D01*
X168954260Y-87999000D01*
X169020443Y-88005519D01*
X169020443Y-88005519D01*
G37*
G36*
X140445443Y-88005519D02*
G01*
X140511627Y-88012037D01*
X140681466Y-88063557D01*
X140837991Y-88147222D01*
X140870569Y-88173958D01*
X140975186Y-88259814D01*
X141058448Y-88361271D01*
X141087778Y-88397009D01*
X141087779Y-88397011D01*
X141161462Y-88534860D01*
X141171443Y-88553534D01*
X141222963Y-88723373D01*
X141240359Y-88900000D01*
X141222963Y-89076627D01*
X141171443Y-89246466D01*
X141087778Y-89402991D01*
X141058448Y-89438729D01*
X140975186Y-89540186D01*
X140873729Y-89623448D01*
X140837991Y-89652778D01*
X140681466Y-89736443D01*
X140511627Y-89787963D01*
X140445443Y-89794481D01*
X140379260Y-89801000D01*
X140290740Y-89801000D01*
X140224557Y-89794481D01*
X140158373Y-89787963D01*
X139988534Y-89736443D01*
X139832009Y-89652778D01*
X139796271Y-89623448D01*
X139694814Y-89540186D01*
X139611552Y-89438729D01*
X139582222Y-89402991D01*
X139498557Y-89246466D01*
X139447037Y-89076627D01*
X139429641Y-88900000D01*
X139447037Y-88723373D01*
X139498557Y-88553534D01*
X139508539Y-88534860D01*
X139582221Y-88397011D01*
X139582222Y-88397009D01*
X139611552Y-88361271D01*
X139694814Y-88259814D01*
X139799431Y-88173958D01*
X139832009Y-88147222D01*
X139988534Y-88063557D01*
X140158373Y-88012037D01*
X140224557Y-88005519D01*
X140290740Y-87999000D01*
X140379260Y-87999000D01*
X140445443Y-88005519D01*
X140445443Y-88005519D01*
G37*
G36*
X142985443Y-88005519D02*
G01*
X143051627Y-88012037D01*
X143221466Y-88063557D01*
X143377991Y-88147222D01*
X143410569Y-88173958D01*
X143515186Y-88259814D01*
X143598448Y-88361271D01*
X143627778Y-88397009D01*
X143627779Y-88397011D01*
X143701462Y-88534860D01*
X143711443Y-88553534D01*
X143762963Y-88723373D01*
X143780359Y-88900000D01*
X143762963Y-89076627D01*
X143711443Y-89246466D01*
X143627778Y-89402991D01*
X143598448Y-89438729D01*
X143515186Y-89540186D01*
X143413729Y-89623448D01*
X143377991Y-89652778D01*
X143221466Y-89736443D01*
X143051627Y-89787963D01*
X142985443Y-89794481D01*
X142919260Y-89801000D01*
X142830740Y-89801000D01*
X142764557Y-89794481D01*
X142698373Y-89787963D01*
X142528534Y-89736443D01*
X142372009Y-89652778D01*
X142336271Y-89623448D01*
X142234814Y-89540186D01*
X142151552Y-89438729D01*
X142122222Y-89402991D01*
X142038557Y-89246466D01*
X141987037Y-89076627D01*
X141969641Y-88900000D01*
X141987037Y-88723373D01*
X142038557Y-88553534D01*
X142048539Y-88534860D01*
X142122221Y-88397011D01*
X142122222Y-88397009D01*
X142151552Y-88361271D01*
X142234814Y-88259814D01*
X142339431Y-88173958D01*
X142372009Y-88147222D01*
X142528534Y-88063557D01*
X142698373Y-88012037D01*
X142764557Y-88005519D01*
X142830740Y-87999000D01*
X142919260Y-87999000D01*
X142985443Y-88005519D01*
X142985443Y-88005519D01*
G37*
G36*
X184260443Y-88005519D02*
G01*
X184326627Y-88012037D01*
X184496466Y-88063557D01*
X184652991Y-88147222D01*
X184685569Y-88173958D01*
X184790186Y-88259814D01*
X184873448Y-88361271D01*
X184902778Y-88397009D01*
X184902779Y-88397011D01*
X184976462Y-88534860D01*
X184986443Y-88553534D01*
X185037963Y-88723373D01*
X185055359Y-88900000D01*
X185037963Y-89076627D01*
X184986443Y-89246466D01*
X184902778Y-89402991D01*
X184873448Y-89438729D01*
X184790186Y-89540186D01*
X184688729Y-89623448D01*
X184652991Y-89652778D01*
X184496466Y-89736443D01*
X184326627Y-89787963D01*
X184260443Y-89794481D01*
X184194260Y-89801000D01*
X184105740Y-89801000D01*
X184039557Y-89794481D01*
X183973373Y-89787963D01*
X183803534Y-89736443D01*
X183647009Y-89652778D01*
X183611271Y-89623448D01*
X183509814Y-89540186D01*
X183426552Y-89438729D01*
X183397222Y-89402991D01*
X183313557Y-89246466D01*
X183262037Y-89076627D01*
X183244641Y-88900000D01*
X183262037Y-88723373D01*
X183313557Y-88553534D01*
X183323539Y-88534860D01*
X183397221Y-88397011D01*
X183397222Y-88397009D01*
X183426552Y-88361271D01*
X183509814Y-88259814D01*
X183614431Y-88173958D01*
X183647009Y-88147222D01*
X183803534Y-88063557D01*
X183973373Y-88012037D01*
X184039558Y-88005518D01*
X184105740Y-87999000D01*
X184194260Y-87999000D01*
X184260443Y-88005519D01*
X184260443Y-88005519D01*
G37*
G36*
X145525443Y-88005519D02*
G01*
X145591627Y-88012037D01*
X145761466Y-88063557D01*
X145917991Y-88147222D01*
X145950569Y-88173958D01*
X146055186Y-88259814D01*
X146138448Y-88361271D01*
X146167778Y-88397009D01*
X146167779Y-88397011D01*
X146241462Y-88534860D01*
X146251443Y-88553534D01*
X146302963Y-88723373D01*
X146320359Y-88900000D01*
X146302963Y-89076627D01*
X146251443Y-89246466D01*
X146167778Y-89402991D01*
X146138448Y-89438729D01*
X146055186Y-89540186D01*
X145953729Y-89623448D01*
X145917991Y-89652778D01*
X145761466Y-89736443D01*
X145591627Y-89787963D01*
X145525443Y-89794481D01*
X145459260Y-89801000D01*
X145370740Y-89801000D01*
X145304557Y-89794481D01*
X145238373Y-89787963D01*
X145068534Y-89736443D01*
X144912009Y-89652778D01*
X144876271Y-89623448D01*
X144774814Y-89540186D01*
X144691552Y-89438729D01*
X144662222Y-89402991D01*
X144578557Y-89246466D01*
X144527037Y-89076627D01*
X144509641Y-88900000D01*
X144527037Y-88723373D01*
X144578557Y-88553534D01*
X144588539Y-88534860D01*
X144662221Y-88397011D01*
X144662222Y-88397009D01*
X144691552Y-88361271D01*
X144774814Y-88259814D01*
X144879431Y-88173958D01*
X144912009Y-88147222D01*
X145068534Y-88063557D01*
X145238373Y-88012037D01*
X145304557Y-88005519D01*
X145370740Y-87999000D01*
X145459260Y-87999000D01*
X145525443Y-88005519D01*
X145525443Y-88005519D01*
G37*
G36*
X137905443Y-88005519D02*
G01*
X137971627Y-88012037D01*
X138141466Y-88063557D01*
X138297991Y-88147222D01*
X138330569Y-88173958D01*
X138435186Y-88259814D01*
X138518448Y-88361271D01*
X138547778Y-88397009D01*
X138547779Y-88397011D01*
X138621462Y-88534860D01*
X138631443Y-88553534D01*
X138682963Y-88723373D01*
X138700359Y-88900000D01*
X138682963Y-89076627D01*
X138631443Y-89246466D01*
X138547778Y-89402991D01*
X138518448Y-89438729D01*
X138435186Y-89540186D01*
X138333729Y-89623448D01*
X138297991Y-89652778D01*
X138141466Y-89736443D01*
X137971627Y-89787963D01*
X137905443Y-89794481D01*
X137839260Y-89801000D01*
X137750740Y-89801000D01*
X137684557Y-89794481D01*
X137618373Y-89787963D01*
X137448534Y-89736443D01*
X137292009Y-89652778D01*
X137256271Y-89623448D01*
X137154814Y-89540186D01*
X137071552Y-89438729D01*
X137042222Y-89402991D01*
X136958557Y-89246466D01*
X136907037Y-89076627D01*
X136889641Y-88900000D01*
X136907037Y-88723373D01*
X136958557Y-88553534D01*
X136968539Y-88534860D01*
X137042221Y-88397011D01*
X137042222Y-88397009D01*
X137071552Y-88361271D01*
X137154814Y-88259814D01*
X137259431Y-88173958D01*
X137292009Y-88147222D01*
X137448534Y-88063557D01*
X137618373Y-88012037D01*
X137684557Y-88005519D01*
X137750740Y-87999000D01*
X137839260Y-87999000D01*
X137905443Y-88005519D01*
X137905443Y-88005519D01*
G37*
G36*
X123300443Y-88005519D02*
G01*
X123366627Y-88012037D01*
X123536466Y-88063557D01*
X123692991Y-88147222D01*
X123725569Y-88173958D01*
X123830186Y-88259814D01*
X123913448Y-88361271D01*
X123942778Y-88397009D01*
X123942779Y-88397011D01*
X124016462Y-88534860D01*
X124026443Y-88553534D01*
X124077963Y-88723373D01*
X124095359Y-88900000D01*
X124077963Y-89076627D01*
X124026443Y-89246466D01*
X123942778Y-89402991D01*
X123913448Y-89438729D01*
X123830186Y-89540186D01*
X123728729Y-89623448D01*
X123692991Y-89652778D01*
X123536466Y-89736443D01*
X123366627Y-89787963D01*
X123300443Y-89794481D01*
X123234260Y-89801000D01*
X123145740Y-89801000D01*
X123079557Y-89794481D01*
X123013373Y-89787963D01*
X122843534Y-89736443D01*
X122687009Y-89652778D01*
X122651271Y-89623448D01*
X122549814Y-89540186D01*
X122466552Y-89438729D01*
X122437222Y-89402991D01*
X122353557Y-89246466D01*
X122302037Y-89076627D01*
X122284641Y-88900000D01*
X122302037Y-88723373D01*
X122353557Y-88553534D01*
X122363539Y-88534860D01*
X122437221Y-88397011D01*
X122437222Y-88397009D01*
X122466552Y-88361271D01*
X122549814Y-88259814D01*
X122654431Y-88173958D01*
X122687009Y-88147222D01*
X122843534Y-88063557D01*
X123013373Y-88012037D01*
X123079557Y-88005519D01*
X123145740Y-87999000D01*
X123234260Y-87999000D01*
X123300443Y-88005519D01*
X123300443Y-88005519D01*
G37*
G36*
X125840443Y-88005519D02*
G01*
X125906627Y-88012037D01*
X126076466Y-88063557D01*
X126232991Y-88147222D01*
X126265569Y-88173958D01*
X126370186Y-88259814D01*
X126453448Y-88361271D01*
X126482778Y-88397009D01*
X126482779Y-88397011D01*
X126556462Y-88534860D01*
X126566443Y-88553534D01*
X126617963Y-88723373D01*
X126635359Y-88900000D01*
X126617963Y-89076627D01*
X126566443Y-89246466D01*
X126482778Y-89402991D01*
X126453448Y-89438729D01*
X126370186Y-89540186D01*
X126268729Y-89623448D01*
X126232991Y-89652778D01*
X126076466Y-89736443D01*
X125906627Y-89787963D01*
X125840443Y-89794481D01*
X125774260Y-89801000D01*
X125685740Y-89801000D01*
X125619557Y-89794481D01*
X125553373Y-89787963D01*
X125383534Y-89736443D01*
X125227009Y-89652778D01*
X125191271Y-89623448D01*
X125089814Y-89540186D01*
X125006552Y-89438729D01*
X124977222Y-89402991D01*
X124893557Y-89246466D01*
X124842037Y-89076627D01*
X124824641Y-88900000D01*
X124842037Y-88723373D01*
X124893557Y-88553534D01*
X124903539Y-88534860D01*
X124977221Y-88397011D01*
X124977222Y-88397009D01*
X125006552Y-88361271D01*
X125089814Y-88259814D01*
X125194431Y-88173958D01*
X125227009Y-88147222D01*
X125383534Y-88063557D01*
X125553373Y-88012037D01*
X125619557Y-88005519D01*
X125685740Y-87999000D01*
X125774260Y-87999000D01*
X125840443Y-88005519D01*
X125840443Y-88005519D01*
G37*
G36*
X128380443Y-88005519D02*
G01*
X128446627Y-88012037D01*
X128616466Y-88063557D01*
X128772991Y-88147222D01*
X128805569Y-88173958D01*
X128910186Y-88259814D01*
X128993448Y-88361271D01*
X129022778Y-88397009D01*
X129022779Y-88397011D01*
X129096462Y-88534860D01*
X129106443Y-88553534D01*
X129157963Y-88723373D01*
X129175359Y-88900000D01*
X129157963Y-89076627D01*
X129106443Y-89246466D01*
X129022778Y-89402991D01*
X128993448Y-89438729D01*
X128910186Y-89540186D01*
X128808729Y-89623448D01*
X128772991Y-89652778D01*
X128616466Y-89736443D01*
X128446627Y-89787963D01*
X128380443Y-89794481D01*
X128314260Y-89801000D01*
X128225740Y-89801000D01*
X128159557Y-89794481D01*
X128093373Y-89787963D01*
X127923534Y-89736443D01*
X127767009Y-89652778D01*
X127731271Y-89623448D01*
X127629814Y-89540186D01*
X127546552Y-89438729D01*
X127517222Y-89402991D01*
X127433557Y-89246466D01*
X127382037Y-89076627D01*
X127364641Y-88900000D01*
X127382037Y-88723373D01*
X127433557Y-88553534D01*
X127443539Y-88534860D01*
X127517221Y-88397011D01*
X127517222Y-88397009D01*
X127546552Y-88361271D01*
X127629814Y-88259814D01*
X127734431Y-88173958D01*
X127767009Y-88147222D01*
X127923534Y-88063557D01*
X128093373Y-88012037D01*
X128159557Y-88005519D01*
X128225740Y-87999000D01*
X128314260Y-87999000D01*
X128380443Y-88005519D01*
X128380443Y-88005519D01*
G37*
G36*
X130920443Y-88005519D02*
G01*
X130986627Y-88012037D01*
X131156466Y-88063557D01*
X131312991Y-88147222D01*
X131345569Y-88173958D01*
X131450186Y-88259814D01*
X131533448Y-88361271D01*
X131562778Y-88397009D01*
X131562779Y-88397011D01*
X131636462Y-88534860D01*
X131646443Y-88553534D01*
X131697963Y-88723373D01*
X131715359Y-88900000D01*
X131697963Y-89076627D01*
X131646443Y-89246466D01*
X131562778Y-89402991D01*
X131533448Y-89438729D01*
X131450186Y-89540186D01*
X131348729Y-89623448D01*
X131312991Y-89652778D01*
X131156466Y-89736443D01*
X130986627Y-89787963D01*
X130920443Y-89794481D01*
X130854260Y-89801000D01*
X130765740Y-89801000D01*
X130699557Y-89794481D01*
X130633373Y-89787963D01*
X130463534Y-89736443D01*
X130307009Y-89652778D01*
X130271271Y-89623448D01*
X130169814Y-89540186D01*
X130086552Y-89438729D01*
X130057222Y-89402991D01*
X129973557Y-89246466D01*
X129922037Y-89076627D01*
X129904641Y-88900000D01*
X129922037Y-88723373D01*
X129973557Y-88553534D01*
X129983539Y-88534860D01*
X130057221Y-88397011D01*
X130057222Y-88397009D01*
X130086552Y-88361271D01*
X130169814Y-88259814D01*
X130274431Y-88173958D01*
X130307009Y-88147222D01*
X130463534Y-88063557D01*
X130633373Y-88012037D01*
X130699557Y-88005519D01*
X130765740Y-87999000D01*
X130854260Y-87999000D01*
X130920443Y-88005519D01*
X130920443Y-88005519D01*
G37*
G36*
X133460443Y-88005519D02*
G01*
X133526627Y-88012037D01*
X133696466Y-88063557D01*
X133852991Y-88147222D01*
X133885569Y-88173958D01*
X133990186Y-88259814D01*
X134073448Y-88361271D01*
X134102778Y-88397009D01*
X134102779Y-88397011D01*
X134176462Y-88534860D01*
X134186443Y-88553534D01*
X134237963Y-88723373D01*
X134255359Y-88900000D01*
X134237963Y-89076627D01*
X134186443Y-89246466D01*
X134102778Y-89402991D01*
X134073448Y-89438729D01*
X133990186Y-89540186D01*
X133888729Y-89623448D01*
X133852991Y-89652778D01*
X133696466Y-89736443D01*
X133526627Y-89787963D01*
X133460443Y-89794481D01*
X133394260Y-89801000D01*
X133305740Y-89801000D01*
X133239557Y-89794481D01*
X133173373Y-89787963D01*
X133003534Y-89736443D01*
X132847009Y-89652778D01*
X132811271Y-89623448D01*
X132709814Y-89540186D01*
X132626552Y-89438729D01*
X132597222Y-89402991D01*
X132513557Y-89246466D01*
X132462037Y-89076627D01*
X132444641Y-88900000D01*
X132462037Y-88723373D01*
X132513557Y-88553534D01*
X132523539Y-88534860D01*
X132597221Y-88397011D01*
X132597222Y-88397009D01*
X132626552Y-88361271D01*
X132709814Y-88259814D01*
X132814431Y-88173958D01*
X132847009Y-88147222D01*
X133003534Y-88063557D01*
X133173373Y-88012037D01*
X133239557Y-88005519D01*
X133305740Y-87999000D01*
X133394260Y-87999000D01*
X133460443Y-88005519D01*
X133460443Y-88005519D01*
G37*
G36*
X121551000Y-89801000D02*
G01*
X119749000Y-89801000D01*
X119749000Y-87999000D01*
X121551000Y-87999000D01*
X121551000Y-89801000D01*
X121551000Y-89801000D01*
G37*
G36*
X150561000Y-89367000D02*
G01*
X149159000Y-89367000D01*
X149159000Y-88565000D01*
X150561000Y-88565000D01*
X150561000Y-89367000D01*
X150561000Y-89367000D01*
G37*
G36*
X153101000Y-89367000D02*
G01*
X151699000Y-89367000D01*
X151699000Y-88565000D01*
X153101000Y-88565000D01*
X153101000Y-89367000D01*
X153101000Y-89367000D01*
G37*
G36*
X155641000Y-89367000D02*
G01*
X154239000Y-89367000D01*
X154239000Y-88565000D01*
X155641000Y-88565000D01*
X155641000Y-89367000D01*
X155641000Y-89367000D01*
G37*
G36*
X113199241Y-85853760D02*
G01*
X113463305Y-85963139D01*
X113700958Y-86121934D01*
X113903066Y-86324042D01*
X114061861Y-86561695D01*
X114171240Y-86825759D01*
X114227000Y-87106088D01*
X114227000Y-87391912D01*
X114171240Y-87672241D01*
X114061861Y-87936305D01*
X113903066Y-88173958D01*
X113700958Y-88376066D01*
X113463305Y-88534861D01*
X113199241Y-88644240D01*
X112918912Y-88700000D01*
X112633088Y-88700000D01*
X112352759Y-88644240D01*
X112088695Y-88534861D01*
X111851042Y-88376066D01*
X111648934Y-88173958D01*
X111490139Y-87936305D01*
X111380760Y-87672241D01*
X111325000Y-87391912D01*
X111325000Y-87106088D01*
X111380760Y-86825759D01*
X111490139Y-86561695D01*
X111648934Y-86324042D01*
X111851042Y-86121934D01*
X112088695Y-85963139D01*
X112352759Y-85853760D01*
X112633088Y-85798000D01*
X112918912Y-85798000D01*
X113199241Y-85853760D01*
X113199241Y-85853760D01*
G37*
G36*
X107629241Y-85853760D02*
G01*
X107893305Y-85963139D01*
X108130958Y-86121934D01*
X108333066Y-86324042D01*
X108491861Y-86561695D01*
X108601240Y-86825759D01*
X108657000Y-87106088D01*
X108657000Y-87391912D01*
X108601240Y-87672241D01*
X108491861Y-87936305D01*
X108333066Y-88173958D01*
X108130958Y-88376066D01*
X107893305Y-88534861D01*
X107629241Y-88644240D01*
X107348912Y-88700000D01*
X107063088Y-88700000D01*
X106782759Y-88644240D01*
X106518695Y-88534861D01*
X106281042Y-88376066D01*
X106078934Y-88173958D01*
X105920139Y-87936305D01*
X105810760Y-87672241D01*
X105755000Y-87391912D01*
X105755000Y-87106088D01*
X105810760Y-86825759D01*
X105920139Y-86561695D01*
X106078934Y-86324042D01*
X106281042Y-86121934D01*
X106518695Y-85963139D01*
X106782759Y-85853760D01*
X107063088Y-85798000D01*
X107348912Y-85798000D01*
X107629241Y-85853760D01*
X107629241Y-85853760D01*
G37*
G36*
X157590442Y-85465518D02*
G01*
X157656627Y-85472037D01*
X157826466Y-85523557D01*
X157982991Y-85607222D01*
X158018729Y-85636552D01*
X158120186Y-85719814D01*
X158203448Y-85821271D01*
X158232778Y-85857009D01*
X158316443Y-86013534D01*
X158367963Y-86183373D01*
X158385359Y-86360000D01*
X158367963Y-86536627D01*
X158316443Y-86706466D01*
X158232778Y-86862991D01*
X158203448Y-86898729D01*
X158120186Y-87000186D01*
X158018729Y-87083448D01*
X157982991Y-87112778D01*
X157826466Y-87196443D01*
X157656627Y-87247963D01*
X157590442Y-87254482D01*
X157524260Y-87261000D01*
X157435740Y-87261000D01*
X157369558Y-87254482D01*
X157303373Y-87247963D01*
X157133534Y-87196443D01*
X156977009Y-87112778D01*
X156941271Y-87083448D01*
X156839814Y-87000186D01*
X156756552Y-86898729D01*
X156727222Y-86862991D01*
X156643557Y-86706466D01*
X156592037Y-86536627D01*
X156574641Y-86360000D01*
X156592037Y-86183373D01*
X156643557Y-86013534D01*
X156727222Y-85857009D01*
X156756552Y-85821271D01*
X156839814Y-85719814D01*
X156941271Y-85636552D01*
X156977009Y-85607222D01*
X157133534Y-85523557D01*
X157303373Y-85472037D01*
X157369558Y-85465518D01*
X157435740Y-85459000D01*
X157524260Y-85459000D01*
X157590442Y-85465518D01*
X157590442Y-85465518D01*
G37*
G36*
X155050442Y-85465518D02*
G01*
X155116627Y-85472037D01*
X155286466Y-85523557D01*
X155442991Y-85607222D01*
X155478729Y-85636552D01*
X155580186Y-85719814D01*
X155663448Y-85821271D01*
X155692778Y-85857009D01*
X155776443Y-86013534D01*
X155827963Y-86183373D01*
X155845359Y-86360000D01*
X155827963Y-86536627D01*
X155776443Y-86706466D01*
X155692778Y-86862991D01*
X155663448Y-86898729D01*
X155580186Y-87000186D01*
X155478729Y-87083448D01*
X155442991Y-87112778D01*
X155286466Y-87196443D01*
X155116627Y-87247963D01*
X155050442Y-87254482D01*
X154984260Y-87261000D01*
X154895740Y-87261000D01*
X154829558Y-87254482D01*
X154763373Y-87247963D01*
X154593534Y-87196443D01*
X154437009Y-87112778D01*
X154401271Y-87083448D01*
X154299814Y-87000186D01*
X154216552Y-86898729D01*
X154187222Y-86862991D01*
X154103557Y-86706466D01*
X154052037Y-86536627D01*
X154034641Y-86360000D01*
X154052037Y-86183373D01*
X154103557Y-86013534D01*
X154187222Y-85857009D01*
X154216552Y-85821271D01*
X154299814Y-85719814D01*
X154401271Y-85636552D01*
X154437009Y-85607222D01*
X154593534Y-85523557D01*
X154763373Y-85472037D01*
X154829558Y-85465518D01*
X154895740Y-85459000D01*
X154984260Y-85459000D01*
X155050442Y-85465518D01*
X155050442Y-85465518D01*
G37*
G36*
X150761000Y-87261000D02*
G01*
X148959000Y-87261000D01*
X148959000Y-85459000D01*
X150761000Y-85459000D01*
X150761000Y-87261000D01*
X150761000Y-87261000D01*
G37*
G36*
X169020442Y-85465518D02*
G01*
X169086627Y-85472037D01*
X169256466Y-85523557D01*
X169412991Y-85607222D01*
X169448729Y-85636552D01*
X169550186Y-85719814D01*
X169633448Y-85821271D01*
X169662778Y-85857009D01*
X169746443Y-86013534D01*
X169797963Y-86183373D01*
X169815359Y-86360000D01*
X169797963Y-86536627D01*
X169746443Y-86706466D01*
X169662778Y-86862991D01*
X169633448Y-86898729D01*
X169550186Y-87000186D01*
X169448729Y-87083448D01*
X169412991Y-87112778D01*
X169256466Y-87196443D01*
X169086627Y-87247963D01*
X169020442Y-87254482D01*
X168954260Y-87261000D01*
X168865740Y-87261000D01*
X168799558Y-87254482D01*
X168733373Y-87247963D01*
X168563534Y-87196443D01*
X168407009Y-87112778D01*
X168371271Y-87083448D01*
X168269814Y-87000186D01*
X168186552Y-86898729D01*
X168157222Y-86862991D01*
X168073557Y-86706466D01*
X168022037Y-86536627D01*
X168004641Y-86360000D01*
X168022037Y-86183373D01*
X168073557Y-86013534D01*
X168157222Y-85857009D01*
X168186552Y-85821271D01*
X168269814Y-85719814D01*
X168371271Y-85636552D01*
X168407009Y-85607222D01*
X168563534Y-85523557D01*
X168733373Y-85472037D01*
X168799558Y-85465518D01*
X168865740Y-85459000D01*
X168954260Y-85459000D01*
X169020442Y-85465518D01*
X169020442Y-85465518D01*
G37*
G36*
X125840442Y-85465518D02*
G01*
X125906627Y-85472037D01*
X126076466Y-85523557D01*
X126232991Y-85607222D01*
X126268729Y-85636552D01*
X126370186Y-85719814D01*
X126453448Y-85821271D01*
X126482778Y-85857009D01*
X126566443Y-86013534D01*
X126617963Y-86183373D01*
X126635359Y-86360000D01*
X126617963Y-86536627D01*
X126566443Y-86706466D01*
X126482778Y-86862991D01*
X126453448Y-86898729D01*
X126370186Y-87000186D01*
X126268729Y-87083448D01*
X126232991Y-87112778D01*
X126076466Y-87196443D01*
X125906627Y-87247963D01*
X125840442Y-87254482D01*
X125774260Y-87261000D01*
X125685740Y-87261000D01*
X125619558Y-87254482D01*
X125553373Y-87247963D01*
X125383534Y-87196443D01*
X125227009Y-87112778D01*
X125191271Y-87083448D01*
X125089814Y-87000186D01*
X125006552Y-86898729D01*
X124977222Y-86862991D01*
X124893557Y-86706466D01*
X124842037Y-86536627D01*
X124824641Y-86360000D01*
X124842037Y-86183373D01*
X124893557Y-86013534D01*
X124977222Y-85857009D01*
X125006552Y-85821271D01*
X125089814Y-85719814D01*
X125191271Y-85636552D01*
X125227009Y-85607222D01*
X125383534Y-85523557D01*
X125553373Y-85472037D01*
X125619558Y-85465518D01*
X125685740Y-85459000D01*
X125774260Y-85459000D01*
X125840442Y-85465518D01*
X125840442Y-85465518D01*
G37*
G36*
X123300442Y-85465518D02*
G01*
X123366627Y-85472037D01*
X123536466Y-85523557D01*
X123692991Y-85607222D01*
X123728729Y-85636552D01*
X123830186Y-85719814D01*
X123913448Y-85821271D01*
X123942778Y-85857009D01*
X124026443Y-86013534D01*
X124077963Y-86183373D01*
X124095359Y-86360000D01*
X124077963Y-86536627D01*
X124026443Y-86706466D01*
X123942778Y-86862991D01*
X123913448Y-86898729D01*
X123830186Y-87000186D01*
X123728729Y-87083448D01*
X123692991Y-87112778D01*
X123536466Y-87196443D01*
X123366627Y-87247963D01*
X123300442Y-87254482D01*
X123234260Y-87261000D01*
X123145740Y-87261000D01*
X123079558Y-87254482D01*
X123013373Y-87247963D01*
X122843534Y-87196443D01*
X122687009Y-87112778D01*
X122651271Y-87083448D01*
X122549814Y-87000186D01*
X122466552Y-86898729D01*
X122437222Y-86862991D01*
X122353557Y-86706466D01*
X122302037Y-86536627D01*
X122284641Y-86360000D01*
X122302037Y-86183373D01*
X122353557Y-86013534D01*
X122437222Y-85857009D01*
X122466552Y-85821271D01*
X122549814Y-85719814D01*
X122651271Y-85636552D01*
X122687009Y-85607222D01*
X122843534Y-85523557D01*
X123013373Y-85472037D01*
X123079558Y-85465518D01*
X123145740Y-85459000D01*
X123234260Y-85459000D01*
X123300442Y-85465518D01*
X123300442Y-85465518D01*
G37*
G36*
X120760442Y-85465518D02*
G01*
X120826627Y-85472037D01*
X120996466Y-85523557D01*
X121152991Y-85607222D01*
X121188729Y-85636552D01*
X121290186Y-85719814D01*
X121373448Y-85821271D01*
X121402778Y-85857009D01*
X121486443Y-86013534D01*
X121537963Y-86183373D01*
X121555359Y-86360000D01*
X121537963Y-86536627D01*
X121486443Y-86706466D01*
X121402778Y-86862991D01*
X121373448Y-86898729D01*
X121290186Y-87000186D01*
X121188729Y-87083448D01*
X121152991Y-87112778D01*
X120996466Y-87196443D01*
X120826627Y-87247963D01*
X120760442Y-87254482D01*
X120694260Y-87261000D01*
X120605740Y-87261000D01*
X120539558Y-87254482D01*
X120473373Y-87247963D01*
X120303534Y-87196443D01*
X120147009Y-87112778D01*
X120111271Y-87083448D01*
X120009814Y-87000186D01*
X119926552Y-86898729D01*
X119897222Y-86862991D01*
X119813557Y-86706466D01*
X119762037Y-86536627D01*
X119744641Y-86360000D01*
X119762037Y-86183373D01*
X119813557Y-86013534D01*
X119897222Y-85857009D01*
X119926552Y-85821271D01*
X120009814Y-85719814D01*
X120111271Y-85636552D01*
X120147009Y-85607222D01*
X120303534Y-85523557D01*
X120473373Y-85472037D01*
X120539558Y-85465518D01*
X120605740Y-85459000D01*
X120694260Y-85459000D01*
X120760442Y-85465518D01*
X120760442Y-85465518D01*
G37*
G36*
X146316000Y-87261000D02*
G01*
X144514000Y-87261000D01*
X144514000Y-85459000D01*
X146316000Y-85459000D01*
X146316000Y-87261000D01*
X146316000Y-87261000D01*
G37*
G36*
X142985442Y-85465518D02*
G01*
X143051627Y-85472037D01*
X143221466Y-85523557D01*
X143377991Y-85607222D01*
X143413729Y-85636552D01*
X143515186Y-85719814D01*
X143598448Y-85821271D01*
X143627778Y-85857009D01*
X143711443Y-86013534D01*
X143762963Y-86183373D01*
X143780359Y-86360000D01*
X143762963Y-86536627D01*
X143711443Y-86706466D01*
X143627778Y-86862991D01*
X143598448Y-86898729D01*
X143515186Y-87000186D01*
X143413729Y-87083448D01*
X143377991Y-87112778D01*
X143221466Y-87196443D01*
X143051627Y-87247963D01*
X142985442Y-87254482D01*
X142919260Y-87261000D01*
X142830740Y-87261000D01*
X142764558Y-87254482D01*
X142698373Y-87247963D01*
X142528534Y-87196443D01*
X142372009Y-87112778D01*
X142336271Y-87083448D01*
X142234814Y-87000186D01*
X142151552Y-86898729D01*
X142122222Y-86862991D01*
X142038557Y-86706466D01*
X141987037Y-86536627D01*
X141969641Y-86360000D01*
X141987037Y-86183373D01*
X142038557Y-86013534D01*
X142122222Y-85857009D01*
X142151552Y-85821271D01*
X142234814Y-85719814D01*
X142336271Y-85636552D01*
X142372009Y-85607222D01*
X142528534Y-85523557D01*
X142698373Y-85472037D01*
X142764558Y-85465518D01*
X142830740Y-85459000D01*
X142919260Y-85459000D01*
X142985442Y-85465518D01*
X142985442Y-85465518D01*
G37*
G36*
X184260442Y-85465518D02*
G01*
X184326627Y-85472037D01*
X184496466Y-85523557D01*
X184652991Y-85607222D01*
X184688729Y-85636552D01*
X184790186Y-85719814D01*
X184873448Y-85821271D01*
X184902778Y-85857009D01*
X184986443Y-86013534D01*
X185037963Y-86183373D01*
X185055359Y-86360000D01*
X185037963Y-86536627D01*
X184986443Y-86706466D01*
X184902778Y-86862991D01*
X184873448Y-86898729D01*
X184790186Y-87000186D01*
X184688729Y-87083448D01*
X184652991Y-87112778D01*
X184496466Y-87196443D01*
X184326627Y-87247963D01*
X184260442Y-87254482D01*
X184194260Y-87261000D01*
X184105740Y-87261000D01*
X184039558Y-87254482D01*
X183973373Y-87247963D01*
X183803534Y-87196443D01*
X183647009Y-87112778D01*
X183611271Y-87083448D01*
X183509814Y-87000186D01*
X183426552Y-86898729D01*
X183397222Y-86862991D01*
X183313557Y-86706466D01*
X183262037Y-86536627D01*
X183244641Y-86360000D01*
X183262037Y-86183373D01*
X183313557Y-86013534D01*
X183397222Y-85857009D01*
X183426552Y-85821271D01*
X183509814Y-85719814D01*
X183611271Y-85636552D01*
X183647009Y-85607222D01*
X183803534Y-85523557D01*
X183973373Y-85472037D01*
X184039558Y-85465518D01*
X184105740Y-85459000D01*
X184194260Y-85459000D01*
X184260442Y-85465518D01*
X184260442Y-85465518D01*
G37*
G36*
X137905442Y-85465518D02*
G01*
X137971627Y-85472037D01*
X138141466Y-85523557D01*
X138297991Y-85607222D01*
X138333729Y-85636552D01*
X138435186Y-85719814D01*
X138518448Y-85821271D01*
X138547778Y-85857009D01*
X138631443Y-86013534D01*
X138682963Y-86183373D01*
X138700359Y-86360000D01*
X138682963Y-86536627D01*
X138631443Y-86706466D01*
X138547778Y-86862991D01*
X138518448Y-86898729D01*
X138435186Y-87000186D01*
X138333729Y-87083448D01*
X138297991Y-87112778D01*
X138141466Y-87196443D01*
X137971627Y-87247963D01*
X137905442Y-87254482D01*
X137839260Y-87261000D01*
X137750740Y-87261000D01*
X137684558Y-87254482D01*
X137618373Y-87247963D01*
X137448534Y-87196443D01*
X137292009Y-87112778D01*
X137256271Y-87083448D01*
X137154814Y-87000186D01*
X137071552Y-86898729D01*
X137042222Y-86862991D01*
X136958557Y-86706466D01*
X136907037Y-86536627D01*
X136889641Y-86360000D01*
X136907037Y-86183373D01*
X136958557Y-86013534D01*
X137042222Y-85857009D01*
X137071552Y-85821271D01*
X137154814Y-85719814D01*
X137256271Y-85636552D01*
X137292009Y-85607222D01*
X137448534Y-85523557D01*
X137618373Y-85472037D01*
X137684558Y-85465518D01*
X137750740Y-85459000D01*
X137839260Y-85459000D01*
X137905442Y-85465518D01*
X137905442Y-85465518D01*
G37*
G36*
X140445442Y-85465518D02*
G01*
X140511627Y-85472037D01*
X140681466Y-85523557D01*
X140837991Y-85607222D01*
X140873729Y-85636552D01*
X140975186Y-85719814D01*
X141058448Y-85821271D01*
X141087778Y-85857009D01*
X141171443Y-86013534D01*
X141222963Y-86183373D01*
X141240359Y-86360000D01*
X141222963Y-86536627D01*
X141171443Y-86706466D01*
X141087778Y-86862991D01*
X141058448Y-86898729D01*
X140975186Y-87000186D01*
X140873729Y-87083448D01*
X140837991Y-87112778D01*
X140681466Y-87196443D01*
X140511627Y-87247963D01*
X140445442Y-87254482D01*
X140379260Y-87261000D01*
X140290740Y-87261000D01*
X140224558Y-87254482D01*
X140158373Y-87247963D01*
X139988534Y-87196443D01*
X139832009Y-87112778D01*
X139796271Y-87083448D01*
X139694814Y-87000186D01*
X139611552Y-86898729D01*
X139582222Y-86862991D01*
X139498557Y-86706466D01*
X139447037Y-86536627D01*
X139429641Y-86360000D01*
X139447037Y-86183373D01*
X139498557Y-86013534D01*
X139582222Y-85857009D01*
X139611552Y-85821271D01*
X139694814Y-85719814D01*
X139796271Y-85636552D01*
X139832009Y-85607222D01*
X139988534Y-85523557D01*
X140158373Y-85472037D01*
X140224558Y-85465518D01*
X140290740Y-85459000D01*
X140379260Y-85459000D01*
X140445442Y-85465518D01*
X140445442Y-85465518D01*
G37*
G36*
X133460442Y-85465518D02*
G01*
X133526627Y-85472037D01*
X133696466Y-85523557D01*
X133852991Y-85607222D01*
X133888729Y-85636552D01*
X133990186Y-85719814D01*
X134073448Y-85821271D01*
X134102778Y-85857009D01*
X134186443Y-86013534D01*
X134237963Y-86183373D01*
X134255359Y-86360000D01*
X134237963Y-86536627D01*
X134186443Y-86706466D01*
X134102778Y-86862991D01*
X134073448Y-86898729D01*
X133990186Y-87000186D01*
X133888729Y-87083448D01*
X133852991Y-87112778D01*
X133696466Y-87196443D01*
X133526627Y-87247963D01*
X133460442Y-87254482D01*
X133394260Y-87261000D01*
X133305740Y-87261000D01*
X133239558Y-87254482D01*
X133173373Y-87247963D01*
X133003534Y-87196443D01*
X132847009Y-87112778D01*
X132811271Y-87083448D01*
X132709814Y-87000186D01*
X132626552Y-86898729D01*
X132597222Y-86862991D01*
X132513557Y-86706466D01*
X132462037Y-86536627D01*
X132444641Y-86360000D01*
X132462037Y-86183373D01*
X132513557Y-86013534D01*
X132597222Y-85857009D01*
X132626552Y-85821271D01*
X132709814Y-85719814D01*
X132811271Y-85636552D01*
X132847009Y-85607222D01*
X133003534Y-85523557D01*
X133173373Y-85472037D01*
X133239558Y-85465518D01*
X133305740Y-85459000D01*
X133394260Y-85459000D01*
X133460442Y-85465518D01*
X133460442Y-85465518D01*
G37*
G36*
X130920442Y-85465518D02*
G01*
X130986627Y-85472037D01*
X131156466Y-85523557D01*
X131312991Y-85607222D01*
X131348729Y-85636552D01*
X131450186Y-85719814D01*
X131533448Y-85821271D01*
X131562778Y-85857009D01*
X131646443Y-86013534D01*
X131697963Y-86183373D01*
X131715359Y-86360000D01*
X131697963Y-86536627D01*
X131646443Y-86706466D01*
X131562778Y-86862991D01*
X131533448Y-86898729D01*
X131450186Y-87000186D01*
X131348729Y-87083448D01*
X131312991Y-87112778D01*
X131156466Y-87196443D01*
X130986627Y-87247963D01*
X130920442Y-87254482D01*
X130854260Y-87261000D01*
X130765740Y-87261000D01*
X130699558Y-87254482D01*
X130633373Y-87247963D01*
X130463534Y-87196443D01*
X130307009Y-87112778D01*
X130271271Y-87083448D01*
X130169814Y-87000186D01*
X130086552Y-86898729D01*
X130057222Y-86862991D01*
X129973557Y-86706466D01*
X129922037Y-86536627D01*
X129904641Y-86360000D01*
X129922037Y-86183373D01*
X129973557Y-86013534D01*
X130057222Y-85857009D01*
X130086552Y-85821271D01*
X130169814Y-85719814D01*
X130271271Y-85636552D01*
X130307009Y-85607222D01*
X130463534Y-85523557D01*
X130633373Y-85472037D01*
X130699558Y-85465518D01*
X130765740Y-85459000D01*
X130854260Y-85459000D01*
X130920442Y-85465518D01*
X130920442Y-85465518D01*
G37*
G36*
X128380442Y-85465518D02*
G01*
X128446627Y-85472037D01*
X128616466Y-85523557D01*
X128772991Y-85607222D01*
X128808729Y-85636552D01*
X128910186Y-85719814D01*
X128993448Y-85821271D01*
X129022778Y-85857009D01*
X129106443Y-86013534D01*
X129157963Y-86183373D01*
X129175359Y-86360000D01*
X129157963Y-86536627D01*
X129106443Y-86706466D01*
X129022778Y-86862991D01*
X128993448Y-86898729D01*
X128910186Y-87000186D01*
X128808729Y-87083448D01*
X128772991Y-87112778D01*
X128616466Y-87196443D01*
X128446627Y-87247963D01*
X128380442Y-87254482D01*
X128314260Y-87261000D01*
X128225740Y-87261000D01*
X128159558Y-87254482D01*
X128093373Y-87247963D01*
X127923534Y-87196443D01*
X127767009Y-87112778D01*
X127731271Y-87083448D01*
X127629814Y-87000186D01*
X127546552Y-86898729D01*
X127517222Y-86862991D01*
X127433557Y-86706466D01*
X127382037Y-86536627D01*
X127364641Y-86360000D01*
X127382037Y-86183373D01*
X127433557Y-86013534D01*
X127517222Y-85857009D01*
X127546552Y-85821271D01*
X127629814Y-85719814D01*
X127731271Y-85636552D01*
X127767009Y-85607222D01*
X127923534Y-85523557D01*
X128093373Y-85472037D01*
X128159558Y-85465518D01*
X128225740Y-85459000D01*
X128314260Y-85459000D01*
X128380442Y-85465518D01*
X128380442Y-85465518D01*
G37*
G36*
X152510442Y-85465518D02*
G01*
X152576627Y-85472037D01*
X152746466Y-85523557D01*
X152902991Y-85607222D01*
X152938729Y-85636552D01*
X153040186Y-85719814D01*
X153123448Y-85821271D01*
X153152778Y-85857009D01*
X153236443Y-86013534D01*
X153287963Y-86183373D01*
X153305359Y-86360000D01*
X153287963Y-86536627D01*
X153236443Y-86706466D01*
X153152778Y-86862991D01*
X153123448Y-86898729D01*
X153040186Y-87000186D01*
X152938729Y-87083448D01*
X152902991Y-87112778D01*
X152746466Y-87196443D01*
X152576627Y-87247963D01*
X152510442Y-87254482D01*
X152444260Y-87261000D01*
X152355740Y-87261000D01*
X152289558Y-87254482D01*
X152223373Y-87247963D01*
X152053534Y-87196443D01*
X151897009Y-87112778D01*
X151861271Y-87083448D01*
X151759814Y-87000186D01*
X151676552Y-86898729D01*
X151647222Y-86862991D01*
X151563557Y-86706466D01*
X151512037Y-86536627D01*
X151494641Y-86360000D01*
X151512037Y-86183373D01*
X151563557Y-86013534D01*
X151647222Y-85857009D01*
X151676552Y-85821271D01*
X151759814Y-85719814D01*
X151861271Y-85636552D01*
X151897009Y-85607222D01*
X152053534Y-85523557D01*
X152223373Y-85472037D01*
X152289558Y-85465518D01*
X152355740Y-85459000D01*
X152444260Y-85459000D01*
X152510442Y-85465518D01*
X152510442Y-85465518D01*
G37*
M02*
