G04 #@! TF.GenerationSoftware,KiCad,Pcbnew,(5.1.4)-1*
G04 #@! TF.CreationDate,2020-11-03T17:10:34-05:00*
G04 #@! TF.ProjectId,remote_racing_pcb,72656d6f-7465-45f7-9261-63696e675f70,rev?*
G04 #@! TF.SameCoordinates,Original*
G04 #@! TF.FileFunction,Paste,Bot*
G04 #@! TF.FilePolarity,Positive*
%FSLAX46Y46*%
G04 Gerber Fmt 4.6, Leading zero omitted, Abs format (unit mm)*
G04 Created by KiCad (PCBNEW (5.1.4)-1) date 2020-11-03 17:10:34*
%MOMM*%
%LPD*%
G04 APERTURE LIST*
%ADD10R,1.200000X0.300000*%
%ADD11R,0.300000X1.200000*%
%ADD12R,1.300000X0.700000*%
%ADD13R,1.250000X1.000000*%
%ADD14R,1.000000X1.250000*%
%ADD15R,0.305000X0.813000*%
%ADD16R,0.813000X0.305000*%
G04 APERTURE END LIST*
D10*
X147355000Y-105985000D03*
X147355000Y-105485000D03*
X147355000Y-104985000D03*
X147355000Y-104485000D03*
X147355000Y-103985000D03*
X147355000Y-103485000D03*
X147355000Y-102985000D03*
X147355000Y-102485000D03*
X147355000Y-101985000D03*
X147355000Y-101485000D03*
X147355000Y-100985000D03*
X147355000Y-100485000D03*
X147355000Y-99985000D03*
X147355000Y-99485000D03*
X147355000Y-98985000D03*
X147355000Y-98485000D03*
D11*
X145355000Y-96485000D03*
X144855000Y-96485000D03*
X144355000Y-96485000D03*
X143855000Y-96485000D03*
X143355000Y-96485000D03*
X142855000Y-96485000D03*
X142355000Y-96485000D03*
X141855000Y-96485000D03*
X141355000Y-96485000D03*
X140855000Y-96485000D03*
X140355000Y-96485000D03*
X139855000Y-96485000D03*
X139355000Y-96485000D03*
X138855000Y-96485000D03*
X138355000Y-96485000D03*
X137855000Y-96485000D03*
D10*
X135855000Y-98485000D03*
X135855000Y-98985000D03*
X135855000Y-99485000D03*
X135855000Y-99985000D03*
X135855000Y-100485000D03*
X135855000Y-100985000D03*
X135855000Y-101485000D03*
X135855000Y-101985000D03*
X135855000Y-102485000D03*
X135855000Y-102985000D03*
X135855000Y-103485000D03*
X135855000Y-103985000D03*
X135855000Y-104485000D03*
X135855000Y-104985000D03*
X135855000Y-105485000D03*
D11*
X137855000Y-107985000D03*
X138355000Y-107985000D03*
X138855000Y-107985000D03*
X139355000Y-107985000D03*
X139855000Y-107985000D03*
X140355000Y-107985000D03*
X140855000Y-107985000D03*
X141355000Y-107985000D03*
X141855000Y-107985000D03*
X142355000Y-107985000D03*
X142855000Y-107985000D03*
X143355000Y-107985000D03*
X143855000Y-107985000D03*
X144355000Y-107985000D03*
X144855000Y-107985000D03*
X145355000Y-107985000D03*
D10*
X135855000Y-105985000D03*
D12*
X162560000Y-105344000D03*
X162560000Y-103444000D03*
D13*
X151130000Y-107680000D03*
X151130000Y-105680000D03*
D14*
X139589000Y-109982000D03*
X141589000Y-109982000D03*
D13*
X149225000Y-107680000D03*
X149225000Y-105680000D03*
D14*
X139589000Y-111887000D03*
X141589000Y-111887000D03*
D13*
X133985000Y-96663000D03*
X133985000Y-98663000D03*
D14*
X159290000Y-108966000D03*
X161290000Y-108966000D03*
D13*
X155194000Y-106156000D03*
X155194000Y-104156000D03*
X153289000Y-106156000D03*
X153289000Y-104156000D03*
D15*
X158250000Y-107066000D03*
X158750000Y-107066000D03*
X159250000Y-107066000D03*
D16*
X160025000Y-106791000D03*
X160025000Y-106291000D03*
X160025000Y-105791000D03*
X160025000Y-105291000D03*
X160025000Y-104791000D03*
D15*
X159250000Y-104516000D03*
X158750000Y-104516000D03*
X158250000Y-104516000D03*
D16*
X157475000Y-104791000D03*
X157475000Y-105291000D03*
X157475000Y-105791000D03*
X157475000Y-106291000D03*
X157475000Y-106791000D03*
M02*
